<?xml version="1.0" encoding="utf-8"?>
<!-- Generator: Adobe Illustrator 22.0.0, SVG Export Plug-In . SVG Version: 6.00 Build 0)  -->
<svg version="1.1" id="Layer_1" xmlns="http://www.w3.org/2000/svg" xmlns:xlink="http://www.w3.org/1999/xlink" x="0px" y="0px"
	 width="32px" height="32px" viewBox="0 0 32 32" style="enable-background:new 0 0 32 32;" xml:space="preserve">
<style type="text/css">
	.st0{fill:#16BDC9;}
	.st1{fill:#01959F;}
	.st2{fill:#FFFFFF;}
	.st3{fill:#F15F59;}
	.st4{fill:#00BAC6;}
	.st5{fill:none;stroke:#000000;stroke-linecap:round;stroke-linejoin:round;stroke-miterlimit:10;}
	.st6{fill:none;stroke:#01959F;stroke-linecap:round;stroke-miterlimit:10;}
	.st7{fill:none;stroke:#000000;stroke-linecap:round;stroke-miterlimit:10;}
	.st8{fill:none;stroke:#FFFFFF;stroke-linecap:round;stroke-miterlimit:10;}
	.st9{fill:none;stroke:#00BAC6;stroke-linecap:round;stroke-linejoin:round;stroke-miterlimit:10;}
	.st10{fill:none;stroke:#00BAC6;stroke-linecap:round;stroke-miterlimit:10;}
	.st11{fill:none;stroke:#F15F59;stroke-linecap:round;stroke-miterlimit:10;}
	.st12{fill:none;stroke:#000000;stroke-width:0.5;stroke-linecap:round;stroke-linejoin:round;}
	.st13{fill:none;stroke:#000000;stroke-width:0.5;stroke-linecap:round;stroke-linejoin:round;stroke-dasharray:1.832,0.916;}
	.st14{fill:none;stroke:#000000;stroke-width:0.5;stroke-linecap:round;stroke-linejoin:round;stroke-dasharray:1.8563,0.9281;}
	.st15{fill:none;stroke:#000000;stroke-width:0.5;stroke-linecap:round;stroke-linejoin:round;stroke-dasharray:1.6782,0.8391;}
	.st16{fill:none;stroke:#000000;stroke-width:0.5;stroke-linecap:round;stroke-linejoin:round;stroke-dasharray:1.1219,0.5609;}
	
		.st17{fill:none;stroke:#000000;stroke-width:0.5;stroke-linecap:round;stroke-linejoin:round;stroke-miterlimit:10;stroke-dasharray:2,1;}
	
		.st18{fill:none;stroke:#000000;stroke-width:0.5;stroke-linecap:round;stroke-linejoin:round;stroke-miterlimit:10;stroke-dasharray:1,1;}
	.st19{fill:none;stroke:#000000;stroke-width:0.5;stroke-linecap:round;stroke-linejoin:round;stroke-dasharray:0.9564,0.9564;}
	.st20{fill:none;stroke:#000000;stroke-width:0.5;stroke-linecap:round;stroke-linejoin:round;stroke-dasharray:1.0454,1.0454;}
	.st21{fill:none;stroke:#000000;stroke-width:0.5;stroke-linecap:round;stroke-linejoin:round;stroke-dasharray:1.0251,1.0251;}
	.st22{fill:none;stroke:#000000;stroke-width:0.5;stroke-linecap:round;stroke-linejoin:round;stroke-dasharray:1.1555,1.1555;}
</style>
<g>
	<path d="M26.9,23.3c0,0-3.8-2.4-3.8-6.9c0-4.4,3.5-5.3,3.7-5.4c0.3-0.1,0.4-0.3,0.4-0.6l-0.9-3.8c-0.1-0.3-0.3-0.4-0.6-0.4
		c-0.2,0-4.6,0.8-6.2-3.2c-0.1-0.2-0.3-0.3-0.5-0.3H13c-0.2,0-0.4,0.1-0.5,0.3c-1.6,4.1-6,3.3-6.2,3.2C6,6.1,5.7,6.3,5.7,6.6
		l-0.9,3.8c-0.1,0.3,0.1,0.5,0.4,0.6c0,0,3.7,0.9,3.7,5.4c0,4.5-3.8,6.9-3.8,6.9c-0.1,0.1-0.2,0.2-0.2,0.3s0,0.3,0.1,0.4l2.3,3.5
		c0.1,0.2,0.4,0.3,0.6,0.2c2-1,3.8-1.3,5.2-0.8c1.8,0.6,2.5,2.2,2.5,2.2c0.1,0.2,0.3,0.3,0.5,0.3s0.4-0.1,0.5-0.3
		c0,0,0.7-1.6,2.5-2.2c1.5-0.5,3.2-0.2,5.2,0.8c0.2,0.1,0.5,0,0.6-0.2l2.3-3.5c0.1-0.1,0.1-0.3,0.1-0.4S27,23.3,26.9,23.3z
		 M24.2,26.5c-2.1-1-4-1.2-5.6-0.6c-1.3,0.5-2.2,1.3-2.6,2c-0.5-0.6-1.3-1.5-2.6-2c-0.6-0.2-1.2-0.3-1.9-0.3c-1.1,0-2.4,0.3-3.7,0.9
		L6,23.8c1.1-0.8,3.8-3.3,3.8-7.5c0-4.2-2.8-5.7-4-6.2l0.7-3c1.3,0.1,5.1,0.1,6.7-3.6h5.4c1.7,3.7,5.4,3.7,6.7,3.6l0.7,3
		c-1.1,0.5-4,2-4,6.2c0,4.2,2.8,6.7,3.8,7.5L24.2,26.5z"/>
	<path d="M16.6,25.6c-0.2,0.2-0.4,0.3-0.6,0.5c-0.2-0.2-0.4-0.3-0.6-0.5c-0.1-0.1-0.3-0.1-0.3,0.1C15,25.7,15,25.9,15.1,26
		c0.3,0.2,0.5,0.4,0.7,0.6c0,0,0.1,0.1,0.2,0.1c0.1,0,0.1,0,0.2-0.1c0.2-0.2,0.5-0.4,0.7-0.6c0.1-0.1,0.1-0.2,0.1-0.3
		C16.9,25.5,16.7,25.5,16.6,25.6z"/>
	<path d="M11.8,24.4c-0.1,0-0.2,0-0.3,0c-0.5,0-1,0-1.6,0.2c-0.1,0-0.2,0.2-0.2,0.3c0,0.1,0.1,0.2,0.2,0.2c0,0,0,0,0,0
		c0.5-0.1,1-0.1,1.5-0.1c0.1,0,0.2,0,0.3,0c0.1,0,0.3-0.1,0.3-0.2S12,24.4,11.8,24.4z"/>
	<path d="M12.8,24.5c-0.1,0-0.3,0.1-0.3,0.2c0,0.1,0.1,0.3,0.2,0.3c0.6,0.1,1.1,0.3,1.7,0.6c0,0,0.1,0,0.1,0c0.1,0,0.2,0,0.2-0.1
		c0.1-0.1,0-0.3-0.1-0.3C14,24.8,13.4,24.6,12.8,24.5z"/>
	<path d="M9,24.8c-0.3,0.1-0.5,0.2-0.8,0.3l-0.6-0.9c0.2-0.2,0.4-0.4,0.6-0.6c0.1-0.1,0.1-0.3,0-0.4c-0.1-0.1-0.3-0.1-0.4,0
		c-0.2,0.2-0.5,0.5-0.7,0.7c-0.1,0.1-0.1,0.2,0,0.3l0.8,1.3c0,0.1,0.1,0.1,0.2,0.1c0,0,0.1,0,0.1,0c0.3-0.1,0.6-0.2,0.9-0.3
		c0.1,0,0.2-0.2,0.2-0.3S9.2,24.7,9,24.8z"/>
	<path d="M10.6,15.7c0,0.2,0,0.4,0,0.6c0,0.4,0,0.8-0.1,1.2c0,0.1,0.1,0.3,0.2,0.3c0,0,0,0,0,0c0.1,0,0.2-0.1,0.2-0.2
		c0-0.4,0.1-0.8,0.1-1.2c0-0.2,0-0.5,0-0.7c0-0.1-0.1-0.2-0.3-0.2C10.7,15.5,10.6,15.6,10.6,15.7z"/>
	<path d="M8.6,22.9c0.1,0,0.1,0,0.2-0.1c0.4-0.5,0.8-1,1-1.6c0.1-0.1,0-0.3-0.1-0.3c-0.1-0.1-0.3,0-0.3,0.1c-0.3,0.5-0.6,1-1,1.5
		c-0.1,0.1-0.1,0.3,0,0.4C8.5,22.9,8.6,22.9,8.6,22.9z"/>
	<path d="M10,20.5c0.1,0,0.2-0.1,0.2-0.2c0.3-0.6,0.4-1.2,0.6-1.8c0-0.1-0.1-0.3-0.2-0.3c-0.1,0-0.3,0.1-0.3,0.2
		c-0.1,0.6-0.3,1.2-0.6,1.7C9.8,20.3,9.8,20.4,10,20.5C10,20.5,10,20.5,10,20.5z"/>
	<path d="M10.7,15c0.1,0,0.2-0.2,0.2-0.3c-0.1-0.6-0.3-1.3-0.6-1.8c-0.1-0.1-0.2-0.2-0.3-0.1c-0.1,0.1-0.2,0.2-0.1,0.3
		c0.2,0.5,0.4,1.1,0.5,1.7C10.5,15,10.6,15,10.7,15C10.7,15,10.7,15,10.7,15z"/>
	<path d="M10,12.1c-0.3-0.5-0.7-1-1.2-1.5c-0.1-0.1-0.3-0.1-0.4,0c-0.1,0.1-0.1,0.3,0,0.4c0.4,0.4,0.8,0.9,1.1,1.4
		c0,0.1,0.1,0.1,0.2,0.1c0,0,0.1,0,0.1,0C10,12.3,10,12.2,10,12.1z"/>
	<path d="M7.3,9.5l0.2-1c0.3,0,0.6,0,0.8-0.1c0.1,0,0.2-0.1,0.2-0.3S8.4,7.9,8.3,7.9C8,8,7.6,8,7.3,8C7.2,8,7.1,8.1,7.1,8.2L6.8,9.6
		c0,0.1,0,0.2,0.1,0.3c0.3,0.1,0.6,0.3,0.8,0.5c0,0,0.1,0,0.1,0c0.1,0,0.2,0,0.2-0.1C8.1,10.2,8.1,10,8,10C7.8,9.8,7.5,9.6,7.3,9.5z
		"/>
	<path d="M9.1,8.3C9.2,8.3,9.2,8.3,9.1,8.3c0.6-0.1,1.2-0.3,1.7-0.5C11,7.7,11,7.6,11,7.4c-0.1-0.1-0.2-0.2-0.3-0.1
		c-0.5,0.2-1,0.4-1.5,0.5C9,7.8,8.9,8,8.9,8.1C8.9,8.2,9,8.3,9.1,8.3z"/>
	<path d="M11.5,7.4c0,0,0.1,0,0.1,0C12.1,7,12.6,6.7,13,6.3c0.1-0.1,0.1-0.3,0-0.4c-0.1-0.1-0.3-0.1-0.4,0c-0.4,0.4-0.8,0.7-1.3,1
		c-0.1,0.1-0.2,0.2-0.1,0.3C11.3,7.3,11.4,7.4,11.5,7.4z"/>
	<path d="M15.1,4.6c0-0.1-0.1-0.3-0.3-0.3h-1c-0.1,0-0.2,0-0.2,0.1c-0.2,0.3-0.3,0.6-0.5,0.8c-0.1,0.1-0.1,0.3,0,0.4
		c0,0,0.1,0.1,0.2,0.1c0.1,0,0.2,0,0.2-0.1c0.2-0.2,0.3-0.5,0.5-0.7h0.9C15,4.9,15.1,4.8,15.1,4.6z"/>
	<path d="M15.4,4.9h1.1c0.1,0,0.3-0.1,0.3-0.3s-0.1-0.3-0.3-0.3h-1.1c-0.1,0-0.3,0.1-0.3,0.3S15.3,4.9,15.4,4.9z"/>
	<path d="M18.5,5.6c0,0.1,0.1,0.1,0.2,0.1c0.1,0,0.1,0,0.2-0.1c0.1-0.1,0.1-0.2,0-0.4c-0.2-0.3-0.4-0.5-0.5-0.8
		c0-0.1-0.1-0.1-0.2-0.1h-1c-0.1,0-0.3,0.1-0.3,0.3s0.1,0.3,0.3,0.3H18C18.1,5.1,18.3,5.4,18.5,5.6z"/>
	<path d="M20.4,7.4c0,0,0.1,0,0.1,0c0.1,0,0.2,0,0.2-0.1c0.1-0.1,0-0.3-0.1-0.3c-0.5-0.3-0.9-0.6-1.3-1c-0.1-0.1-0.3-0.1-0.4,0
		c-0.1,0.1-0.1,0.3,0,0.4C19.4,6.7,19.9,7,20.4,7.4z"/>
	<path d="M22.8,8.3C22.8,8.3,22.8,8.3,22.8,8.3c0.2,0,0.3-0.1,0.3-0.2c0-0.1-0.1-0.3-0.2-0.3c-0.5-0.1-1.1-0.3-1.5-0.5
		c-0.1-0.1-0.3,0-0.3,0.1c-0.1,0.1,0,0.3,0.1,0.3C21.7,8,22.2,8.2,22.8,8.3z"/>
	<path d="M23.7,8.4c0.3,0,0.5,0,0.8,0.1l0.2,1C24.5,9.6,24.2,9.8,24,10c-0.1,0.1-0.1,0.2-0.1,0.3c0,0.1,0.1,0.1,0.2,0.1
		c0.1,0,0.1,0,0.1,0c0.3-0.2,0.5-0.4,0.8-0.5c0.1-0.1,0.2-0.2,0.1-0.3l-0.3-1.4c0-0.1-0.1-0.2-0.2-0.2c-0.3,0-0.7,0-1-0.1
		c-0.1,0-0.3,0.1-0.3,0.2C23.4,8.3,23.5,8.4,23.7,8.4z"/>
	<path d="M22.1,12.4c0,0,0.1,0,0.1,0c0.1,0,0.2,0,0.2-0.1c0.3-0.5,0.7-1,1.1-1.4c0.1-0.1,0.1-0.3,0-0.4c-0.1-0.1-0.3-0.1-0.4,0
		c-0.5,0.4-0.9,0.9-1.2,1.5C22,12.2,22,12.3,22.1,12.4z"/>
	<path d="M21.3,18.2c-0.1,0-0.2,0.2-0.2,0.3c0.1,0.6,0.3,1.2,0.6,1.8c0,0.1,0.1,0.2,0.2,0.2c0,0,0.1,0,0.1,0
		c0.1-0.1,0.2-0.2,0.1-0.3c-0.2-0.6-0.4-1.1-0.5-1.7C21.6,18.3,21.5,18.2,21.3,18.2z"/>
	<path d="M21.9,12.8c-0.1-0.1-0.3,0-0.3,0.1c-0.3,0.6-0.4,1.2-0.6,1.8c0,0.1,0.1,0.3,0.2,0.3c0,0,0,0,0,0c0.1,0,0.2-0.1,0.2-0.2
		c0.1-0.6,0.3-1.2,0.5-1.7C22.1,13,22.1,12.8,21.9,12.8z"/>
	<path d="M21.2,17.8C21.2,17.8,21.2,17.8,21.2,17.8c0.2,0,0.3-0.1,0.2-0.3c0-0.4-0.1-0.8-0.1-1.1c0-0.2,0-0.4,0-0.7
		c0-0.1-0.1-0.3-0.2-0.3c-0.1,0-0.3,0.1-0.3,0.2c0,0.2,0,0.5,0,0.7c0,0.4,0,0.8,0.1,1.2C21,17.7,21.1,17.8,21.2,17.8z"/>
	<path d="M22.1,21.2c0.3,0.5,0.6,1.1,1,1.6c0,0.1,0.1,0.1,0.2,0.1c0.1,0,0.1,0,0.2-0.1c0.1-0.1,0.1-0.2,0-0.4c-0.4-0.5-0.7-1-1-1.5
		c-0.1-0.1-0.2-0.2-0.3-0.1C22.1,20.9,22.1,21.1,22.1,21.2z"/>
	<path d="M24.2,23.2c-0.1-0.1-0.3-0.1-0.4,0c-0.1,0.1-0.1,0.3,0,0.4c0.2,0.2,0.4,0.4,0.6,0.6L23.8,25c-0.3-0.1-0.5-0.2-0.8-0.3
		c-0.1,0-0.3,0-0.3,0.2c0,0.1,0,0.3,0.2,0.3c0.3,0.1,0.6,0.2,0.9,0.3c0,0,0.1,0,0.1,0c0.1,0,0.2,0,0.2-0.1l0.8-1.3
		c0.1-0.1,0-0.2,0-0.3C24.6,23.6,24.4,23.4,24.2,23.2z"/>
	<path d="M19.2,24.5c-0.6,0.1-1.2,0.3-1.8,0.6c-0.1,0.1-0.2,0.2-0.1,0.3c0,0.1,0.1,0.1,0.2,0.1c0,0,0.1,0,0.1,0
		c0.5-0.3,1.1-0.4,1.7-0.6c0.1,0,0.2-0.2,0.2-0.3S19.4,24.5,19.2,24.5z"/>
	<path d="M22.1,24.5c-0.6-0.1-1.3-0.2-1.9-0.2c-0.1,0-0.2,0.1-0.2,0.3c0,0.1,0.1,0.3,0.3,0.2c0.6,0,1.2,0,1.8,0.1c0,0,0,0,0,0
		c0.1,0,0.2-0.1,0.2-0.2C22.3,24.7,22.2,24.6,22.1,24.5z"/>
</g>
</svg>
