<?xml version="1.0" encoding="utf-8"?>
<!-- Generator: Adobe Illustrator 22.0.0, SVG Export Plug-In . SVG Version: 6.00 Build 0)  -->
<svg version="1.1" id="Layer_1" xmlns="http://www.w3.org/2000/svg" xmlns:xlink="http://www.w3.org/1999/xlink" x="0px" y="0px"
	 width="32px" height="32px" viewBox="0 0 32 32" style="enable-background:new 0 0 32 32;" xml:space="preserve">
<style type="text/css">
	.st0{fill:#16BDC9;}
	.st1{fill:#01959F;}
	.st2{fill:#FFFFFF;}
	.st3{fill:#F15F59;}
	.st4{fill:#00BAC6;}
	.st5{fill:none;stroke:#000000;stroke-linecap:round;stroke-linejoin:round;stroke-miterlimit:10;}
	.st6{fill:none;stroke:#01959F;stroke-linecap:round;stroke-miterlimit:10;}
	.st7{fill:none;stroke:#000000;stroke-linecap:round;stroke-miterlimit:10;}
	.st8{fill:none;stroke:#FFFFFF;stroke-linecap:round;stroke-miterlimit:10;}
	.st9{fill:none;stroke:#00BAC6;stroke-linecap:round;stroke-linejoin:round;stroke-miterlimit:10;}
	.st10{fill:none;stroke:#00BAC6;stroke-linecap:round;stroke-miterlimit:10;}
	.st11{fill:none;stroke:#F15F59;stroke-linecap:round;stroke-miterlimit:10;}
	.st12{fill:none;stroke:#000000;stroke-width:0.5;stroke-linecap:round;stroke-linejoin:round;}
	.st13{fill:none;stroke:#000000;stroke-width:0.5;stroke-linecap:round;stroke-linejoin:round;stroke-dasharray:1.832,0.916;}
	.st14{fill:none;stroke:#000000;stroke-width:0.5;stroke-linecap:round;stroke-linejoin:round;stroke-dasharray:1.8563,0.9281;}
	.st15{fill:none;stroke:#000000;stroke-width:0.5;stroke-linecap:round;stroke-linejoin:round;stroke-dasharray:1.6782,0.8391;}
	.st16{fill:none;stroke:#000000;stroke-width:0.5;stroke-linecap:round;stroke-linejoin:round;stroke-dasharray:1.1219,0.5609;}
	
		.st17{fill:none;stroke:#000000;stroke-width:0.5;stroke-linecap:round;stroke-linejoin:round;stroke-miterlimit:10;stroke-dasharray:2,1;}
	
		.st18{fill:none;stroke:#000000;stroke-width:0.5;stroke-linecap:round;stroke-linejoin:round;stroke-miterlimit:10;stroke-dasharray:1,1;}
	.st19{fill:none;stroke:#000000;stroke-width:0.5;stroke-linecap:round;stroke-linejoin:round;stroke-dasharray:0.9564,0.9564;}
	.st20{fill:none;stroke:#000000;stroke-width:0.5;stroke-linecap:round;stroke-linejoin:round;stroke-dasharray:1.0454,1.0454;}
	.st21{fill:none;stroke:#000000;stroke-width:0.5;stroke-linecap:round;stroke-linejoin:round;stroke-dasharray:1.0251,1.0251;}
	.st22{fill:none;stroke:#000000;stroke-width:0.5;stroke-linecap:round;stroke-linejoin:round;stroke-dasharray:1.1555,1.1555;}
</style>
<g>
	<path d="M20.2,23.9c-0.3-0.1-0.5,0.1-0.6,0.3c-0.5,1.4-1.8,3.9-5.3,3.9h-2.1c-1.8,0-3.3-0.6-4.3-1.9C7,25,6.5,23.4,6.4,21.7
		l1.1-1.1c0.1-0.1,0.1-0.3,0-0.4s-0.3-0.1-0.4,0L6.5,21c0-0.5,0.1-1,0.2-1.5c0.4-1.7,1.5-3.1,2.6-4.6c1.3-1.7,2.7-3.5,2.7-5.7
		c0-2.5-1-4.4-1.8-5.4h6.2c-0.8,1-1.8,2.8-1.8,5.4c0,2.2,1.4,4,2.7,5.7c0.6,0.8,1.3,1.7,1.8,2.6c0.1,0.2,0.4,0.3,0.7,0.2
		c0.2-0.1,0.3-0.4,0.2-0.7c-0.5-1-1.2-1.8-1.9-2.7c-1.3-1.7-2.5-3.2-2.5-5.1c0-3.5,2.2-5.5,2.2-5.5c0.2-0.1,0.2-0.4,0.1-0.6
		c-0.1-0.2-0.3-0.3-0.5-0.3H9c-0.2,0-0.4,0.1-0.5,0.3c-0.1,0.2,0,0.4,0.1,0.6c0,0,2.2,2,2.2,5.5c0,1.8-1.2,3.4-2.5,5.1
		c-1.1,1.5-2.3,3-2.8,4.9c-0.5,2.1-0.4,5.2,1.4,7.5c1.2,1.5,3,2.3,5.1,2.3h2.1c3.1,0,5.3-1.7,6.3-4.6C20.6,24.2,20.5,23.9,20.2,23.9
		z"/>
	<path d="M11.6,19.9c-0.2-0.2-0.3-0.3-0.5-0.4c-0.1-0.1-0.3,0-0.3,0.1c-0.1,0.1,0,0.3,0.1,0.3c0.2,0.1,0.3,0.2,0.4,0.3
		c0.4,0.4,0.8,0.6,1.3,0.7c0,0,0,0,0.1,0c0.1,0,0.2-0.1,0.2-0.2c0-0.1-0.1-0.3-0.2-0.3C12.2,20.4,11.9,20.2,11.6,19.9z"/>
	<path d="M15.1,19.6c-0.1,0.1-0.2,0.1-0.2,0.2l-0.1,0.1c-0.3,0.3-0.8,0.6-1.3,0.6c-0.1,0-0.2,0.1-0.2,0.3c0,0.1,0.1,0.2,0.2,0.2
		c0,0,0,0,0,0c0.6-0.1,1.1-0.4,1.5-0.8l0.1-0.1c0.1-0.1,0.1-0.1,0.2-0.2c0.1-0.1,0.1-0.2,0-0.4C15.4,19.5,15.2,19.5,15.1,19.6z"/>
	<path d="M16.1,19.1c-0.1,0-0.2,0.2-0.2,0.3c0,0.1,0.2,0.2,0.3,0.2c0.6-0.2,1.2-0.1,1.7,0.2c0,0,0.1,0,0.1,0c0.1,0,0.2,0,0.2-0.1
		c0.1-0.1,0-0.3-0.1-0.3C17.6,19,16.8,18.9,16.1,19.1z"/>
	<path d="M9.6,19C9.6,19,9.6,19,9.6,19c-0.6,0-1.2,0.2-1.6,0.5c-0.1,0.1-0.1,0.2-0.1,0.3C7.9,20,8,20,8.1,20c0.1,0,0.1,0,0.1,0
		c0.4-0.3,0.9-0.4,1.4-0.4c0,0,0,0,0,0c0.1,0,0.2,0,0.4,0c0.1,0,0.3-0.1,0.3-0.2c0-0.1-0.1-0.3-0.2-0.3C9.9,19.1,9.7,19,9.6,19z"/>
	<path d="M26.3,19h-2c-0.1,0-0.3,0.1-0.3,0.3s0.1,0.3,0.3,0.3h2c0.1,0,0.3-0.1,0.3-0.3S26.5,19,26.3,19z"/>
	<path d="M20.7,20.5c-0.6,0-1.2-0.1-1.7-0.5c-0.1-0.1-0.3-0.1-0.4,0c-0.1,0.1-0.1,0.3,0,0.4c0.5,0.4,1.1,0.7,1.8,0.7
		c0.1,0,0.1,0,0.2,0c0.1,0,0.2-0.1,0.2-0.3C21,20.6,20.8,20.5,20.7,20.5z"/>
	<path d="M23.3,19.2c-0.4,0.1-0.8,0.4-1.1,0.7c-0.2,0.2-0.4,0.3-0.6,0.4c-0.1,0.1-0.2,0.2-0.1,0.3c0,0.1,0.1,0.1,0.2,0.1
		c0,0,0.1,0,0.1,0c0.3-0.1,0.5-0.3,0.7-0.5c0.3-0.3,0.6-0.4,0.9-0.6c0.1,0,0.2-0.2,0.2-0.3C23.5,19.2,23.4,19.1,23.3,19.2z"/>
</g>
</svg>
