<?xml version="1.0" encoding="UTF-8"?>
<!DOCTYPE svg PUBLIC "-//W3C//DTD SVG 1.1//EN" "http://www.w3.org/Graphics/SVG/1.1/DTD/svg11.dtd">
<!-- Creator: CorelDRAW 2019 (64-Bit) -->
<svg xmlns="http://www.w3.org/2000/svg" xml:space="preserve" width="26px" height="32px" version="1.1" style="shape-rendering:geometricPrecision; text-rendering:geometricPrecision; image-rendering:optimizeQuality; fill-rule:evenodd; clip-rule:evenodd"
viewBox="0 0 1.19 1.45"
 xmlns:xlink="http://www.w3.org/1999/xlink">
 <defs>
  <style type="text/css">
   <![CDATA[
    .fil0 {fill:#231F20;fill-rule:nonzero}
   ]]>
  </style>
 </defs>
 <g id="Layer_x0020_1">
  <metadata id="CorelCorpID_0Corel-Layer"/>
  <g id="_2207296717040">
   <path class="fil0" d="M0.6 0.69c-0.01,0 -0.01,0 -0.01,-0.01l0 -0.08c0,-0.01 0,-0.01 0.01,-0.01 0,0 0.01,0 0.01,0.01l0 0.08c0,0.01 -0.01,0.01 -0.01,0.01z"/>
   <path class="fil0" d="M0.03 0.12c-0.01,0 -0.01,-0.01 -0.01,-0.01 -0.01,-0.03 -0.02,-0.07 -0.02,-0.1 0,0 0.01,-0.01 0.01,-0.01 0.01,0 0.01,0.01 0.01,0.01 0,0.03 0.01,0.06 0.02,0.09 0,0.01 0,0.01 -0.01,0.02 0,0 0,0 0,0zm1.14 0c-0.01,0 -0.01,0 -0.01,0 -0.01,0 -0.01,-0.01 -0.01,-0.01 0.01,-0.04 0.02,-0.07 0.02,-0.1 0,0 0.01,-0.01 0.01,-0.01 0.01,0 0.01,0.01 0.01,0.01 0,0.04 0,0.07 -0.01,0.1 0,0.01 -0.01,0.01 -0.01,0.01zm-1.07 0.13c-0.01,0 -0.01,-0.01 -0.01,-0.01 -0.02,-0.03 -0.04,-0.06 -0.05,-0.08 -0.01,-0.01 -0.01,-0.02 0,-0.02 0.01,0 0.01,0 0.02,0 0.01,0.03 0.03,0.06 0.05,0.09 0,0 0,0.01 0,0.01 -0.01,0.01 -0.01,0.01 -0.01,0.01zm0.99 0c0,0 0,0 0,0 -0.01,-0.01 -0.01,-0.01 -0.01,-0.02 0.02,-0.03 0.04,-0.05 0.06,-0.08 0,-0.01 0.01,-0.01 0.01,-0.01 0.01,0.01 0.01,0.01 0.01,0.02 -0.02,0.03 -0.04,0.06 -0.06,0.09 0,0 0,0 -0.01,0zm-0.89 0.1c0,0 -0.01,0 -0.01,0 -0.02,-0.02 -0.05,-0.05 -0.07,-0.07 0,-0.01 0,-0.01 0,-0.02 0.01,0 0.01,0 0.02,0 0.02,0.03 0.04,0.05 0.07,0.07 0,0.01 0,0.02 0,0.02 0,0 -0.01,0 -0.01,0zm0.79 0.01c0,0 -0.01,0 -0.01,-0.01 0,0 0,-0.01 0,-0.01 0.03,-0.03 0.05,-0.05 0.07,-0.07 0.01,-0.01 0.01,-0.01 0.02,0 0,0 0,0.01 0,0.01 -0.02,0.03 -0.04,0.05 -0.07,0.07 0,0.01 -0.01,0.01 -0.01,0.01zm-0.67 0.09c-0.01,0 -0.01,0 -0.01,-0.01 -0.03,-0.02 -0.06,-0.04 -0.08,-0.06 -0.01,0 -0.01,-0.01 0,-0.01 0,-0.01 0.01,-0.01 0.02,-0.01 0.02,0.02 0.05,0.04 0.07,0.06 0.01,0.01 0.01,0.02 0.01,0.02 -0.01,0 -0.01,0.01 -0.01,0.01zm0.55 0c0,0 0,0 -0.01,-0.01 0,0 0,-0.01 0.01,-0.01 0.02,-0.02 0.05,-0.04 0.08,-0.06 0,-0.01 0.01,-0.01 0.01,0 0.01,0.01 0.01,0.01 0,0.02 -0.02,0.02 -0.05,0.04 -0.08,0.06 0,0 0,0 -0.01,0zm-0.43 0.08c0,0 0,0 0,0 -0.03,-0.02 -0.06,-0.04 -0.09,-0.06 -0.01,0 -0.01,-0.01 0,-0.01 0,-0.01 0.01,-0.01 0.01,-0.01 0.03,0.02 0.06,0.04 0.09,0.05 0,0.01 0.01,0.02 0,0.02 0,0.01 0,0.01 -0.01,0.01zm0.31 0c-0.01,0 -0.01,0 -0.01,-0.01 -0.01,0 0,-0.01 0,-0.01 0.03,-0.02 0.06,-0.04 0.09,-0.06 0,0 0.01,0 0.01,0.01 0.01,0 0.01,0.01 0,0.02 -0.03,0.01 -0.06,0.03 -0.08,0.05 -0.01,0 -0.01,0 -0.01,0zm-0.18 0.07c0,0 0,0 0,0 -0.02,-0.01 -0.05,-0.03 -0.09,-0.05 -0.01,0 -0.01,-0.01 -0.01,-0.02 0.01,0 0.01,0 0.02,0 0.04,0.02 0.07,0.04 0.09,0.04 0,0.01 0.01,0.01 0,0.02 0,0.01 0,0.01 -0.01,0.01zm0.05 0c-0.01,0 -0.01,0 -0.01,-0.01 -0.01,0 0,-0.01 0,-0.01 0.02,-0.01 0.05,-0.03 0.09,-0.05 0.01,0 0.01,0 0.02,0.01 0,0 0,0.01 -0.01,0.01 -0.04,0.02 -0.07,0.04 -0.09,0.05 0,0 0,0 0,0z"/>
   <path class="fil0" d="M0.6 0.7c-0.18,0 -0.32,0.16 -0.32,0.35 0,0.19 0.14,0.35 0.32,0.35 0.17,0 0.32,-0.16 0.32,-0.35 0,-0.19 -0.15,-0.35 -0.32,-0.35zm0 0.75c-0.21,0 -0.37,-0.18 -0.37,-0.4 0,-0.22 0.16,-0.4 0.37,-0.4 0.2,0 0.37,0.18 0.37,0.4 0,0.22 -0.17,0.4 -0.37,0.4z"/>
   <path class="fil0" d="M0.79 1.14l-0.38 0c-0.02,0 -0.03,-0.01 -0.03,-0.02 0,-0.01 0.01,-0.02 0.03,-0.02l0.38 0c0.01,0 0.02,0.01 0.02,0.02 0,0.01 -0.01,0.02 -0.02,0.02z"/>
   <path class="fil0" d="M0.73 1.06l-0.27 0c-0.01,0 -0.02,-0.02 -0.02,-0.03 0,-0.01 0.01,-0.02 0.02,-0.02l0.27 0c0.02,0 0.03,0.01 0.03,0.02 0,0.01 -0.01,0.03 -0.03,0.03z"/>
   <path class="fil0" d="M0.67 0.97l-0.15 0c-0.01,0 -0.02,-0.01 -0.02,-0.03 0,-0.01 0.01,-0.02 0.02,-0.02l0.15 0c0.02,0 0.03,0.01 0.03,0.02 0,0.02 -0.01,0.03 -0.03,0.03z"/>
   <path class="fil0" d="M0.62 0.88l-0.04 0c-0.01,0 -0.03,-0.01 -0.03,-0.03 0,-0.01 0.02,-0.02 0.03,-0.02l0.04 0c0.01,0 0.02,0.01 0.02,0.02 0,0.02 -0.01,0.03 -0.02,0.03z"/>
   <path class="fil0" d="M0.6 1.26c-0.02,0 -0.03,-0.01 -0.03,-0.02l0 -0.12c0,-0.01 0.01,-0.02 0.03,-0.02 0.01,0 0.02,0.01 0.02,0.02l0 0.12c0,0.01 -0.01,0.02 -0.02,0.02z"/>
  </g>
 </g>
</svg>
