<?xml version="1.0" encoding="UTF-8"?>
<!DOCTYPE svg PUBLIC "-//W3C//DTD SVG 1.1//EN" "http://www.w3.org/Graphics/SVG/1.1/DTD/svg11.dtd">
<!-- Creator: CorelDRAW 2019 (64-Bit) -->
<svg xmlns="http://www.w3.org/2000/svg" xml:space="preserve" width="35px" height="32px" version="1.1" style="shape-rendering:geometricPrecision; text-rendering:geometricPrecision; image-rendering:optimizeQuality; fill-rule:evenodd; clip-rule:evenodd"
viewBox="0 0 18.27 16.61"
 xmlns:xlink="http://www.w3.org/1999/xlink">
 <defs>
  <style type="text/css">
   <![CDATA[
    .str0 {stroke:#373435;stroke-width:0.34;stroke-miterlimit:2.61313}
    .str1 {stroke:#373435;stroke-width:0.11;stroke-miterlimit:2.61313}
    .fil0 {fill:none}
    .fil2 {fill:#FEFEFE}
    .fil1 {fill:#FEFEFE}
   ]]>
  </style>
 </defs>
 <g id="Layer_x0020_1">
  <metadata id="CorelCorpID_0Corel-Layer"/>
  <g id="_2207396914656">
   <polyline class="fil0 str0" points="0.08,7.43 4.53,6.56 13.3,6.61 18.24,7.54 "/>
   <polyline class="fil0 str0" points="18.2,9.99 13.42,8.12 12.92,8.12 4.58,8.12 0.07,9.86 "/>
   <polyline class="fil0 str0" points="18.2,0.16 13.53,1.96 4.48,1.97 0.06,0.24 "/>
   <polyline class="fil0 str0" points="0.15,2.55 4.65,3.53 13.74,3.55 18.25,2.81 "/>
   <line class="fil0 str0" x1="18.2" y1="5.04" x2="0.03" y2= "5.04" />
   <path class="fil0 str0" d="M6.56 2.18l-0.02 -0.49c0,-0.1 0.03,-0.13 0.15,-0.13 0.11,0 0.13,0.03 0.13,0.13 0,0.09 0.01,0.49 0.01,0.49"/>
   <path class="fil0 str0" d="M8.11 2.2l-0.01 -0.49c0,-0.1 0.03,-0.13 0.15,-0.13 0.11,0 0.13,0.03 0.13,0.12 -0.01,0.1 0,0.49 0,0.49"/>
   <path class="fil0 str0" d="M9.64 2.22l-0.02 -0.5c0,-0.09 0.03,-0.13 0.15,-0.13 0.11,0 0.13,0.04 0.13,0.13 0,0.1 0,0.49 0,0.49"/>
   <path class="fil0 str0" d="M11.15 2.18l-0.01 -0.49c0,-0.1 0.03,-0.13 0.15,-0.13 0.11,0 0.13,0.04 0.13,0.13 0,0.09 0,0.49 0,0.49"/>
   <path class="fil0 str0" d="M12.7 2.17l-0.02 -0.49c0,-0.09 0.03,-0.13 0.15,-0.13 0.11,0 0.13,0.04 0.13,0.13 0,0.1 0,0.49 0,0.49"/>
   <path class="fil0 str0" d="M11.51 8.12c0,0 0.05,0.44 0.5,0.44 0.46,-0.01 0.53,-0.39 0.53,-0.39m-2.53 -0.04c0,0 0.06,0.45 0.51,0.44 0.45,-0.01 0.53,-0.39 0.53,-0.39m-2.58 -0.03c0,0 0.06,0.45 0.51,0.44 0.45,-0.01 0.53,-0.39 0.53,-0.39m-2.56 -0.07c0,0 0.05,0.45 0.5,0.44 0.46,-0.01 0.53,-0.39 0.53,-0.39m-2.58 -0.04c0,0 -0.05,0.44 0.41,0.45 0.16,0 0.36,0.01 0.44,-0.11 0.22,-0.31 0.2,-2.21 0.22,-2.83 0.03,-0.68 0.09,-3.53 0.09,-3.53"/>
   <line class="fil0 str0" x1="12.92" y1="8.15" x2="12.91" y2= "8.58" />
   <polyline class="fil0 str0" points="12.54,8.17 12.67,3.14 12.7,2.17 "/>
   <line class="fil0 str0" x1="12.97" y1="2.21" x2="12.92" y2= "8.12" />
   <line class="fil0 str0" x1="11.42" y1="2.2" x2="11.51" y2= "8.15" />
   <line class="fil0 str0" x1="11.04" y1="8.21" x2="11.15" y2= "2.16" />
   <line class="fil0 str0" x1="10.01" y1="8.13" x2="9.9" y2= "2.18" />
   <line class="fil0 str0" x1="9.63" y1="2.16" x2="9.51" y2= "8.2" />
   <line class="fil0 str0" x1="8.47" y1="8.15" x2="8.38" y2= "2.15" />
   <line class="fil0 str0" x1="8.12" y1="2.19" x2="7.98" y2= "8.19" />
   <line class="fil0 str0" x1="6.83" y1="2.16" x2="6.95" y2= "8.13" />
   <path class="fil0 str0" d="M5.03 2.2l-0.02 -0.49c0,-0.1 0.03,-0.13 0.15,-0.13 0.11,0 0.13,0.03 0.13,0.13 0,0.09 -0.15,6.41 0.12,6.48"/>
   <g>
    <path class="fil1 str1" d="M5.68 6.8l-0.19 0 -0.79 0.01c0,0 -0.12,-0.03 -0.12,0.17 -0.01,0.2 -0.02,0.78 -0.02,0.78 0,0 0.02,0.18 0.21,0.18 0.2,0 0.83,-0.01 0.83,-0.01 0,0 0.13,-0.03 0.14,-0.2 0.01,-0.17 0.02,-0.73 0.02,-0.76 0,-0.04 0.03,-0.17 -0.08,-0.17z"/>
    <path class="fil1 str1" d="M7.18 6.81l-0.19 -0.01 -0.79 0.02c0,0 -0.12,-0.04 -0.13,0.16 0,0.2 -0.01,0.79 -0.01,0.79 0,0 0.02,0.18 0.21,0.17 0.19,0 0.83,0 0.83,0 0,0 0.13,-0.04 0.14,-0.21 0,-0.16 0.02,-0.72 0.02,-0.75 0,-0.04 0.03,-0.17 -0.08,-0.17z"/>
    <path class="fil1 str1" d="M8.74 6.82l-0.19 0 -0.79 0.01c0,0 -0.12,-0.03 -0.13,0.16 0,0.2 -0.01,0.79 -0.01,0.79 0,0 0.02,0.18 0.21,0.17 0.19,0 0.83,0 0.83,0 0,0 0.13,-0.04 0.14,-0.21 0,-0.16 0.02,-0.72 0.02,-0.75 0,-0.04 0.03,-0.17 -0.08,-0.17z"/>
    <path class="fil1 str1" d="M5.68 6.8l-0.19 0 -0.79 0.01c0,0 -0.12,-0.03 -0.12,0.17 -0.01,0.2 -0.02,0.78 -0.02,0.78 0,0 0.02,0.18 0.21,0.18 0.2,0 0.83,-0.01 0.83,-0.01 0,0 0.13,-0.03 0.14,-0.2 0.01,-0.17 0.02,-0.73 0.02,-0.76 0,-0.04 0.03,-0.17 -0.08,-0.17z"/>
    <path class="fil1 str1" d="M10.27 6.82l-0.19 0 -0.79 0.01c0,0 -0.12,-0.03 -0.12,0.17 -0.01,0.2 -0.02,0.78 -0.02,0.78 0,0 0.02,0.18 0.21,0.18 0.2,0 0.83,0 0.83,0 0,0 0.13,-0.04 0.14,-0.21 0.01,-0.17 0.02,-0.73 0.02,-0.76 0,-0.04 0.03,-0.17 -0.08,-0.17z"/>
    <path class="fil1 str1" d="M11.81 6.81l-0.19 -0.01 -0.79 0.02c0,0 -0.12,-0.04 -0.13,0.16 0,0.2 -0.01,0.79 -0.01,0.79 0,0 0.02,0.18 0.21,0.17 0.19,0 0.83,0 0.83,0 0,0 0.13,-0.04 0.14,-0.21 0,-0.17 0.02,-0.72 0.02,-0.76 0,-0.03 0.03,-0.17 -0.08,-0.16z"/>
    <path class="fil1 str1" d="M13.34 6.82l-0.19 0 -0.79 0.01c0,0 -0.12,-0.03 -0.12,0.17 -0.01,0.19 -0.02,0.78 -0.02,0.78 0,0 0.02,0.18 0.21,0.18 0.2,-0.01 0.83,-0.01 0.83,-0.01 0,0 0.13,-0.04 0.14,-0.21 0.01,-0.16 0.02,-0.72 0.02,-0.75 0,-0.04 0.03,-0.17 -0.08,-0.17z"/>
   </g>
   <g>
    <path class="fil1 str1" d="M5.68 5.26l-0.2 -0.01 -0.78 0.01c0,0 -0.13,-0.03 -0.13,0.17 0,0.2 -0.01,0.78 -0.01,0.78 0,0 0.01,0.18 0.21,0.18 0.19,0 0.82,0 0.82,0 0,0 0.13,-0.04 0.14,-0.21 0.01,-0.17 0.03,-0.73 0.03,-0.76 -0.01,-0.04 0.02,-0.17 -0.08,-0.16z"/>
    <path class="fil1 str1" d="M7.19 5.24l-0.2 0 -0.79 0.01c0,0 -0.12,-0.03 -0.12,0.17 0,0.2 -0.01,0.78 -0.01,0.78 0,0 0.01,0.18 0.21,0.18 0.19,-0.01 0.82,-0.01 0.82,-0.01 0,0 0.13,-0.04 0.14,-0.2 0.01,-0.17 0.02,-0.73 0.02,-0.76 0,-0.04 0.03,-0.17 -0.07,-0.17z"/>
    <path class="fil1 str1" d="M8.74 5.27l-0.2 0 -0.79 0.01c0,0 -0.12,-0.03 -0.12,0.17 0,0.2 -0.02,0.78 -0.02,0.78 0,0 0.02,0.18 0.22,0.18 0.19,-0.01 0.82,-0.01 0.82,-0.01 0,0 0.13,-0.04 0.14,-0.2 0.01,-0.17 0.02,-0.73 0.02,-0.76 0,-0.04 0.03,-0.17 -0.07,-0.17z"/>
    <path class="fil1 str1" d="M5.68 5.26l-0.2 -0.01 -0.78 0.01c0,0 -0.13,-0.03 -0.13,0.17 0,0.2 -0.01,0.78 -0.01,0.78 0,0 0.01,0.18 0.21,0.18 0.19,0 0.82,0 0.82,0 0,0 0.13,-0.04 0.14,-0.21 0.01,-0.17 0.03,-0.73 0.03,-0.76 -0.01,-0.04 0.02,-0.17 -0.08,-0.16z"/>
    <path class="fil1 str1" d="M10.27 5.28l-0.2 -0.01 -0.78 0.02c0,0 -0.12,-0.04 -0.13,0.16 0,0.2 -0.01,0.79 -0.01,0.79 0,0 0.02,0.18 0.21,0.17 0.19,0 0.82,0 0.82,0 0,0 0.14,-0.04 0.14,-0.21 0.01,-0.16 0.03,-0.72 0.03,-0.75 0,-0.04 0.02,-0.17 -0.08,-0.17z"/>
    <path class="fil1 str1" d="M11.81 5.26l-0.2 0 -0.79 0.01c0,0 -0.12,-0.03 -0.12,0.17 0,0.2 -0.02,0.78 -0.02,0.78 0,0 0.02,0.18 0.22,0.18 0.19,-0.01 0.82,-0.01 0.82,-0.01 0,0 0.13,-0.04 0.14,-0.2 0.01,-0.17 0.02,-0.73 0.02,-0.76 0,-0.04 0.03,-0.17 -0.07,-0.17z"/>
    <path class="fil1 str1" d="M13.34 5.27l-0.2 0 -0.78 0.01c0,0 -0.12,-0.03 -0.13,0.17 0,0.2 -0.01,0.78 -0.01,0.78 0,0 0.02,0.18 0.21,0.18 0.19,0 0.83,-0.01 0.83,-0.01 0,0 0.13,-0.03 0.13,-0.2 0.01,-0.17 0.03,-0.73 0.03,-0.76 0,-0.04 0.03,-0.17 -0.08,-0.17z"/>
   </g>
   <g>
    <path class="fil1 str1" d="M8.73 3.75l-0.19 0 -0.79 0.01c0,0 -0.12,-0.03 -0.12,0.17 -0.01,0.2 -0.02,0.78 -0.02,0.78 0,0 0.02,0.18 0.21,0.18 0.2,-0.01 0.83,-0.01 0.83,-0.01 0,0 0.13,-0.04 0.14,-0.2 0.01,-0.17 0.02,-0.73 0.02,-0.76 0,-0.04 0.03,-0.17 -0.08,-0.17z"/>
    <path class="fil1 str1" d="M5.68 3.73l-0.2 0 -0.79 0.01c0,0 -0.12,-0.03 -0.12,0.17 0,0.2 -0.02,0.78 -0.02,0.78 0,0 0.02,0.18 0.21,0.18 0.2,0 0.83,-0.01 0.83,-0.01 0,0 0.13,-0.03 0.14,-0.2 0.01,-0.17 0.02,-0.73 0.02,-0.76 0,-0.04 0.03,-0.17 -0.07,-0.17z"/>
    <path class="fil1 str1" d="M10.27 3.76l-0.2 -0.01 -0.79 0.01c0,0 -0.12,-0.03 -0.12,0.17 0,0.2 -0.01,0.79 -0.01,0.79 0,0 0.01,0.18 0.21,0.17 0.19,0 0.82,0 0.82,0 0,0 0.13,-0.04 0.14,-0.21 0.01,-0.17 0.02,-0.73 0.02,-0.76 0,-0.03 0.03,-0.17 -0.07,-0.16z"/>
    <path class="fil1 str1" d="M11.8 3.74l-0.19 0 -0.79 0.01c0,0 -0.12,-0.03 -0.12,0.16 -0.01,0.2 -0.02,0.79 -0.02,0.79 0,0 0.02,0.18 0.21,0.17 0.2,0 0.83,0 0.83,0 0,0 0.13,-0.04 0.14,-0.21 0.01,-0.16 0.02,-0.72 0.02,-0.75 0,-0.04 0.03,-0.17 -0.08,-0.17z"/>
    <path class="fil1 str1" d="M13.34 3.75l-0.2 0 -0.79 0.01c0,0 -0.12,-0.03 -0.12,0.17 0,0.2 -0.01,0.78 -0.01,0.78 0,0 0.01,0.18 0.21,0.18 0.19,-0.01 0.82,-0.01 0.82,-0.01 0,0 0.13,-0.04 0.14,-0.2 0.01,-0.17 0.02,-0.73 0.02,-0.76 0,-0.04 0.03,-0.17 -0.07,-0.17z"/>
    <path class="fil1 str1" d="M7.18 3.72l-0.19 0 -0.79 0.01c0,0 -0.12,-0.03 -0.12,0.17 -0.01,0.2 -0.02,0.78 -0.02,0.78 0,0 0.02,0.18 0.21,0.18 0.2,-0.01 0.83,-0.01 0.83,-0.01 0,0 0.13,-0.04 0.14,-0.2 0.01,-0.17 0.02,-0.73 0.02,-0.76 0,-0.04 0.03,-0.17 -0.08,-0.17z"/>
   </g>
   <g>
    <path class="fil1 str1" d="M8.75 2.21l-0.2 0 -0.78 0.01c0,0 -0.13,-0.03 -0.13,0.17 0,0.2 -0.01,0.78 -0.01,0.78 0,0 0.01,0.18 0.21,0.18 0.19,0 0.82,-0.01 0.82,-0.01 0,0 0.13,-0.03 0.14,-0.2 0.01,-0.17 0.02,-0.73 0.03,-0.76 -0.01,-0.04 0.02,-0.17 -0.08,-0.17z"/>
    <path class="fil1 str1" d="M5.69 2.2l-0.2 -0.01 -0.78 0.01c0,0 -0.12,-0.03 -0.13,0.17 0,0.2 -0.01,0.79 -0.01,0.79 0,0 0.02,0.18 0.21,0.17 0.19,0 0.82,0 0.82,0 0,0 0.14,-0.04 0.14,-0.21 0.01,-0.17 0.03,-0.73 0.03,-0.76 0,-0.04 0.03,-0.17 -0.08,-0.16z"/>
    <path class="fil1 str1" d="M10.28 2.22l-0.19 0 -0.79 0.01c0,0 -0.12,-0.03 -0.13,0.17 0,0.19 -0.01,0.78 -0.01,0.78 0,0 0.02,0.18 0.21,0.18 0.19,-0.01 0.83,-0.01 0.83,-0.01 0,0 0.13,-0.04 0.14,-0.21 0,-0.16 0.02,-0.72 0.02,-0.75 0,-0.04 0.03,-0.17 -0.08,-0.17z"/>
    <path class="fil1 str1" d="M11.82 2.2l-0.2 0 -0.78 0.01c0,0 -0.13,-0.03 -0.13,0.17 0,0.2 -0.01,0.78 -0.01,0.78 0,0 0.01,0.18 0.21,0.18 0.19,-0.01 0.82,-0.01 0.82,-0.01 0,0 0.13,-0.04 0.14,-0.2 0.01,-0.17 0.02,-0.73 0.02,-0.76 0,-0.04 0.03,-0.17 -0.07,-0.17z"/>
    <path class="fil1 str1" d="M13.35 2.21l-0.19 0 -0.79 0.01c0,0 -0.12,-0.03 -0.13,0.17 0,0.2 -0.01,0.78 -0.01,0.78 0,0 0.02,0.18 0.21,0.18 0.19,0 0.83,-0.01 0.83,-0.01 0,0 0.13,-0.03 0.14,-0.2 0,-0.17 0.02,-0.73 0.02,-0.76 0,-0.04 0.03,-0.17 -0.08,-0.17z"/>
    <path class="fil1 str1" d="M7.2 2.18l-0.2 0 -0.78 0.01c0,0 -0.13,-0.03 -0.13,0.17 0,0.2 -0.01,0.78 -0.01,0.78 0,0 0.01,0.18 0.21,0.18 0.19,0 0.82,-0.01 0.82,-0.01 0,0 0.13,-0.03 0.14,-0.2 0.01,-0.17 0.02,-0.73 0.03,-0.76 -0.01,-0.04 0.02,-0.17 -0.08,-0.17z"/>
   </g>
   <g>
    <path class="fil0 str0" d="M13.85 12.63c0,0 -5.64,1.18 -7.01,0.63"/>
    <path class="fil0 str0" d="M6.59 13.26c0,0 -0.84,-0.05 -1.47,-0.44 -0.96,-0.6 -1.78,-1.65 0.53,-2.08"/>
    <path class="fil0 str0" d="M12.91 8.57c0,0 -0.01,0.46 -0.11,0.55 -0.1,0.09 -1.09,0.81 -1.09,0.81l-0.84 0.15 -2.1 0.26 -1.86 0.19 -1.3 0.22"/>
    <polygon class="fil1 str0" points="3.53,16.49 7.62,12.15 7.79,12.34 "/>
    <g>
     <path class="fil2 str1" d="M6.69 10.03l-0.19 0.03 -0.77 0.15c0,0 -0.13,-0.01 -0.1,0.19 0.04,0.19 0.13,0.77 0.13,0.77 0,0 0.05,0.17 0.24,0.14 0.19,-0.04 0.81,-0.16 0.81,-0.16 0,0 0.12,-0.06 0.1,-0.22 -0.02,-0.17 -0.11,-0.72 -0.11,-0.75 -0.01,-0.04 -0.01,-0.18 -0.11,-0.15z"/>
     <path class="fil1 str1" d="M8.66 9.75l-0.19 0.01 -0.79 0.06c0,0 -0.12,-0.03 -0.11,0.17 0.01,0.2 0.03,0.78 0.03,0.78 0,0 0.03,0.18 0.22,0.17 0.19,-0.02 0.83,-0.06 0.83,-0.06 0,0 0.12,-0.04 0.12,-0.21 0,-0.17 -0.02,-0.73 -0.02,-0.76 0,-0.04 0.02,-0.17 -0.09,-0.16z"/>
     <path class="fil1 str1" d="M10.61 9.51l-0.2 0.03 -0.77 0.15c0,0 -0.13,-0.01 -0.09,0.18 0.03,0.2 0.12,0.78 0.12,0.78 0,0 0.04,0.17 0.23,0.14 0.19,-0.04 0.82,-0.15 0.82,-0.15 0,0 0.12,-0.06 0.1,-0.23 -0.02,-0.17 -0.1,-0.72 -0.11,-0.75 -0.01,-0.04 0,-0.17 -0.1,-0.15z"/>
     <path class="fil1 str1" d="M12.31 8.79l-0.16 0.11 -0.62 0.48c0,0 -0.12,0.05 0,0.21 0.12,0.16 0.46,0.64 0.46,0.64 0,0 0.12,0.13 0.27,0.02 0.15,-0.12 0.66,-0.5 0.66,-0.5 0,0 0.08,-0.11 -0.01,-0.25 -0.09,-0.14 -0.42,-0.6 -0.43,-0.62 -0.03,-0.03 -0.08,-0.15 -0.17,-0.09z"/>
    </g>
   </g>
  </g>
 </g>
</svg>
