<?xml version="1.0" encoding="UTF-8"?>
<!DOCTYPE svg PUBLIC "-//W3C//DTD SVG 1.1//EN" "http://www.w3.org/Graphics/SVG/1.1/DTD/svg11.dtd">
<!-- Creator: CorelDRAW 2019 (64-Bit) -->
<svg xmlns="http://www.w3.org/2000/svg" xml:space="preserve" width="21px" height="32px" version="1.1" style="shape-rendering:geometricPrecision; text-rendering:geometricPrecision; image-rendering:optimizeQuality; fill-rule:evenodd; clip-rule:evenodd"
viewBox="0 0 0.37 0.57"
 xmlns:xlink="http://www.w3.org/1999/xlink">
 <defs>
  <style type="text/css">
   <![CDATA[
    .fil0 {fill:black}
   ]]>
  </style>
 </defs>
 <g id="Layer_x0020_1">
  <metadata id="CorelCorpID_0Corel-Layer"/>
  <g id="_2207295916752">
   <path class="fil0" d="M0.34 0.41l0 -0.05c0,0 0,0 0,0 0.01,-0.02 0.02,-0.05 0.02,-0.07 0,-0.05 -0.03,-0.1 -0.07,-0.13 0,-0.01 -0.01,0 -0.01,0 -0.01,0 -0.01,0.01 0,0.01 0.04,0.03 0.06,0.07 0.06,0.12 0,0.08 -0.07,0.14 -0.15,0.14 -0.09,0 -0.16,-0.06 -0.16,-0.14 0,-0.08 0.07,-0.15 0.16,-0.15 0.01,0 0.03,0.01 0.05,0.01 0.01,0 0.01,0 0.01,0 0,-0.01 0,-0.01 0,-0.01 -0.02,-0.01 -0.04,-0.01 -0.06,-0.01l0 -0.04c0.02,-0.01 0.02,-0.02 0.02,-0.03 0,-0.01 0,-0.02 -0.02,-0.02l0 -0.03c0,-0.01 0,-0.01 0,-0.01 -0.01,0 -0.01,0 -0.01,0.01l0 0.03c-0.02,0 -0.02,0.01 -0.02,0.02 0,0.01 0,0.02 0.02,0.03l0 0.04c-0.1,0 -0.17,0.07 -0.17,0.16 0,0.02 0.01,0.05 0.02,0.07 0,0 0,0 0,0l0 0.05c-0.02,0.01 -0.03,0.02 -0.03,0.04 0,0.02 0.03,0.05 0.03,0.06 0,0 0.01,0 0.02,0 0,-0.01 0.03,-0.04 0.03,-0.06 0,-0.02 -0.02,-0.03 -0.03,-0.04l0 -0.02c0.03,0.03 0.07,0.06 0.13,0.06l0 0.03c-0.02,0 -0.03,0.02 -0.03,0.03 0,0.02 0.02,0.05 0.03,0.06 0,0.01 0.01,0.01 0.01,0 0.01,-0.01 0.03,-0.04 0.03,-0.06 0,-0.01 -0.01,-0.03 -0.03,-0.03l0 -0.03c0.06,0 0.1,-0.03 0.13,-0.06l0 0.02c-0.01,0.01 -0.03,0.02 -0.03,0.04 0,0.02 0.03,0.05 0.03,0.06 0.01,0 0.02,0 0.02,0 0.01,-0.01 0.03,-0.04 0.03,-0.06 0,-0.02 -0.01,-0.03 -0.03,-0.04l0 0zm-0.15 -0.36c0,0 0.01,0.01 0.01,0.01 0,0.01 -0.01,0.01 -0.01,0.01 -0.01,0 -0.01,0 -0.01,-0.01 0,0 0,-0.01 0.01,-0.01zm-0.13 0.4c0,0.01 -0.01,0.02 -0.02,0.04 -0.01,-0.02 -0.02,-0.03 -0.02,-0.04 0,-0.01 0.01,-0.02 0.02,-0.02 0.01,0 0.02,0.01 0.02,0.02zm0.15 0.06c0,0.01 -0.01,0.02 -0.02,0.04 -0.02,-0.02 -0.02,-0.03 -0.02,-0.04 0,-0.01 0,-0.02 0.02,-0.02 0.01,0 0.02,0.01 0.02,0.02zm0.12 -0.02c-0.01,-0.02 -0.02,-0.03 -0.02,-0.04 0,-0.01 0.01,-0.02 0.02,-0.02 0.01,0 0.02,0.01 0.02,0.02 0,0.01 -0.01,0.02 -0.02,0.04zm0 0z"/>
   <path class="fil0" d="M0.1 0.2c0,0 0,0 0,0 0,0.01 0,0.01 -0.01,0.01 -0.02,0.02 -0.03,0.05 -0.03,0.08 0,0.03 0.01,0.06 0.03,0.08 0.01,0 0.01,0 0.01,0 0,0 0,0 0,0 0.02,0.02 0.05,0.03 0.09,0.03 0.03,0 0.06,-0.01 0.08,-0.03 0,0 0,0 0.01,0 0,0 0,0 0,0 0.02,-0.02 0.03,-0.05 0.03,-0.08 0,-0.03 -0.01,-0.06 -0.03,-0.08 0,0 0,0 0,-0.01 -0.01,0 -0.01,0 -0.01,0 -0.02,-0.02 -0.05,-0.03 -0.08,-0.03 -0.04,0 -0.07,0.01 -0.09,0.03l0 0zm0.14 0c0,0.01 -0.01,0.01 -0.02,0.01 -0.01,0.01 -0.02,0.02 -0.03,0.03 -0.02,-0.01 -0.03,-0.02 -0.04,-0.03 -0.01,0 -0.02,0 -0.02,-0.01 0.01,-0.01 0.03,-0.01 0.06,-0.01 0.02,0 0.04,0 0.05,0.01zm0.02 0.16c0,0 -0.01,0 -0.03,-0.01 -0.01,-0.01 -0.02,-0.02 -0.03,-0.03 0,0 0.01,0 0.01,-0.01 0.01,0 0.01,-0.01 0.02,-0.01 0,0.01 0.01,0.02 0.02,0.03 0.01,0.02 0.01,0.02 0.01,0.03zm-0.06 -0.06c-0.01,0 -0.01,0.01 -0.01,0.01 -0.01,0 -0.01,-0.01 -0.02,-0.01 0,0 -0.01,-0.01 -0.01,-0.01 0,-0.01 0.01,-0.01 0.01,-0.02 0.01,0 0.01,0 0.02,-0.01 0,0.01 0,0.01 0.01,0.01 0,0.01 0.01,0.01 0.01,0.02 0,0 -0.01,0.01 -0.01,0.01zm-0.09 0.06c0,-0.01 0,-0.01 0.01,-0.03 0.01,-0.01 0.02,-0.02 0.03,-0.03 0,0 0,0.01 0.01,0.01 0,0.01 0.01,0.01 0.01,0.01 -0.01,0.01 -0.02,0.02 -0.03,0.03 -0.02,0.01 -0.03,0.01 -0.03,0.01zm0 -0.14c0,0 0.01,0 0.03,0.01 0.01,0 0.01,0.01 0.02,0.01 0.01,0.01 0.01,0.01 0.01,0.01 0,0 -0.01,0.01 -0.01,0.01 -0.01,0.01 -0.01,0.01 -0.01,0.01 -0.01,-0.01 -0.02,-0.02 -0.03,-0.02 -0.01,-0.02 -0.01,-0.03 -0.01,-0.03zm0.1 0.04c0,0 -0.01,-0.01 -0.01,-0.01 0.01,-0.01 0.02,-0.02 0.03,-0.02 0.02,-0.01 0.03,-0.01 0.03,-0.01 0,0 0,0.01 -0.01,0.03 -0.01,0 -0.02,0.01 -0.02,0.02 -0.01,0 -0.01,0 -0.02,-0.01zm-0.12 -0.03c0.01,0.01 0.01,0.01 0.01,0.02 0.01,0.01 0.02,0.02 0.03,0.04 -0.01,0.01 -0.02,0.02 -0.03,0.03 0,0.01 0,0.02 -0.01,0.02 -0.01,-0.01 -0.01,-0.03 -0.01,-0.05 0,-0.02 0,-0.04 0.01,-0.06zm0.04 0.14c0,0 0.01,0 0.02,-0.01 0.01,0 0.02,-0.01 0.04,-0.02 0.01,0.01 0.02,0.02 0.03,0.02 0.01,0.01 0.02,0.01 0.02,0.01 -0.01,0.01 -0.03,0.02 -0.05,0.02 -0.03,0 -0.05,-0.01 -0.06,-0.02l0 0zm0.15 -0.03c-0.01,0 -0.01,-0.01 -0.01,-0.02 -0.01,-0.01 -0.02,-0.02 -0.03,-0.03 0.01,-0.02 0.02,-0.03 0.03,-0.04 0,-0.01 0,-0.01 0.01,-0.02 0.01,0.02 0.01,0.04 0.01,0.06 0,0.02 0,0.04 -0.01,0.05zm0 0z"/>
  </g>
 </g>
</svg>
