<?xml version="1.0" encoding="UTF-8"?>
<!DOCTYPE svg PUBLIC "-//W3C//DTD SVG 1.1//EN" "http://www.w3.org/Graphics/SVG/1.1/DTD/svg11.dtd">
<!-- Creator: CorelDRAW 2019 (64-Bit) -->
<svg xmlns="http://www.w3.org/2000/svg" xml:space="preserve" width="27px" height="32px" version="1.1" style="shape-rendering:geometricPrecision; text-rendering:geometricPrecision; image-rendering:optimizeQuality; fill-rule:evenodd; clip-rule:evenodd"
viewBox="0 0 3.41 4.08"
 xmlns:xlink="http://www.w3.org/1999/xlink">
 <defs>
  <style type="text/css">
   <![CDATA[
    .fil0 {fill:#231F20;fill-rule:nonzero}
   ]]>
  </style>
 </defs>
 <g id="Layer_x0020_1">
  <metadata id="CorelCorpID_0Corel-Layer"/>
  <g id="_2207296720560">
   <path class="fil0" d="M1.7 1.97c-0.01,0 -0.03,-0.01 -0.03,-0.03l0 -0.24c0,-0.01 0.02,-0.03 0.03,-0.03 0.02,0 0.04,0.02 0.04,0.03l0 0.24c0,0.02 -0.02,0.03 -0.04,0.03z"/>
   <path class="fil0" d="M0.06 0.28c-0.01,0 -0.03,-0.01 -0.03,-0.02 -0.02,-0.08 -0.03,-0.15 -0.03,-0.23 0,-0.02 0.01,-0.03 0.03,-0.03 0.02,0 0.04,0.01 0.04,0.03 0,0.07 0.01,0.14 0.02,0.21 0.01,0.02 0,0.04 -0.02,0.04 0,0 0,0 -0.01,0zm3.27 0.04c0,0 0,0 -0.01,0 -0.01,-0.01 -0.02,-0.02 -0.02,-0.04 0.03,-0.08 0.04,-0.17 0.04,-0.25 0,-0.02 0.02,-0.03 0.04,-0.03 0.01,0 0.03,0.01 0.03,0.03 0,0.09 -0.02,0.18 -0.05,0.27 0,0.01 -0.01,0.02 -0.03,0.02zm-3.1 0.31c-0.01,0 -0.02,0 -0.02,-0.01 -0.06,-0.08 -0.1,-0.16 -0.13,-0.24 -0.01,-0.01 0,-0.03 0.01,-0.04 0.02,-0.01 0.04,0 0.05,0.02 0.03,0.07 0.07,0.15 0.12,0.22 0.01,0.02 0.01,0.04 -0.01,0.05 0,0 -0.01,0 -0.02,0zm2.92 0.04c-0.01,0 -0.01,0 -0.02,-0.01 -0.01,-0.01 -0.02,-0.03 -0.01,-0.04 0.06,-0.08 0.1,-0.15 0.14,-0.22 0,-0.02 0.02,-0.03 0.04,-0.02 0.02,0.01 0.02,0.03 0.02,0.04 -0.04,0.08 -0.09,0.16 -0.14,0.23 -0.01,0.01 -0.02,0.02 -0.03,0.02zm-2.66 0.26c-0.01,0 -0.02,0 -0.02,-0.01 -0.07,-0.06 -0.13,-0.13 -0.18,-0.19 -0.02,-0.02 -0.01,-0.04 0,-0.05 0.01,-0.01 0.04,-0.01 0.05,0 0.05,0.07 0.11,0.13 0.17,0.19 0.01,0.02 0.01,0.04 0,0.05 0,0.01 -0.01,0.01 -0.02,0.01zm2.4 0.03c-0.01,0 -0.02,0 -0.02,-0.01 -0.02,-0.01 -0.02,-0.03 0,-0.05 0.06,-0.06 0.12,-0.12 0.17,-0.18 0.02,-0.02 0.04,-0.02 0.05,-0.01 0.01,0.01 0.02,0.04 0,0.05 -0.05,0.06 -0.11,0.13 -0.18,0.19 0,0.01 -0.01,0.01 -0.02,0.01zm-2.1 0.23c-0.01,0 -0.02,-0.01 -0.02,-0.01 -0.08,-0.06 -0.14,-0.11 -0.21,-0.17 -0.01,-0.01 -0.01,-0.03 0,-0.04 0.01,-0.02 0.03,-0.02 0.05,-0.01 0.06,0.06 0.13,0.11 0.2,0.17 0.01,0.01 0.01,0.03 0,0.04 0,0.01 -0.01,0.02 -0.02,0.02zm1.8 0.02c-0.01,0 -0.02,0 -0.03,-0.01 -0.01,-0.02 -0.01,-0.04 0.01,-0.05 0.07,-0.05 0.14,-0.11 0.2,-0.16 0.01,-0.01 0.04,-0.01 0.05,0 0.01,0.02 0.01,0.04 -0.01,0.05 -0.06,0.06 -0.13,0.11 -0.2,0.17 -0.01,0 -0.02,0 -0.02,0zm-1.48 0.2c-0.01,0 -0.01,0 -0.02,0 -0.07,-0.05 -0.15,-0.1 -0.22,-0.15 -0.01,-0.01 -0.01,-0.03 0,-0.05 0.01,-0.01 0.03,-0.02 0.04,0 0.07,0.04 0.14,0.09 0.22,0.14 0.01,0.01 0.02,0.03 0.01,0.05 -0.01,0.01 -0.02,0.01 -0.03,0.01zm1.15 0.02c-0.01,0 -0.02,0 -0.03,-0.01 0,-0.02 0,-0.04 0.02,-0.05 0.07,-0.04 0.14,-0.09 0.21,-0.14 0.02,-0.01 0.04,-0.01 0.05,0.01 0.01,0.01 0,0.03 -0.01,0.04 -0.07,0.05 -0.14,0.1 -0.22,0.15 -0.01,0 -0.01,0 -0.02,0zm-0.81 0.18c-0.01,0 -0.01,0 -0.02,0 -0.07,-0.05 -0.15,-0.09 -0.22,-0.13 -0.02,-0.01 -0.03,-0.03 -0.02,-0.05 0.01,-0.02 0.03,-0.02 0.05,-0.01 0.07,0.04 0.15,0.09 0.23,0.13 0.01,0.01 0.02,0.03 0.01,0.04 -0.01,0.01 -0.02,0.02 -0.03,0.02zm0.47 0.02c-0.01,0 -0.02,-0.01 -0.03,-0.02 -0.01,-0.01 0,-0.03 0.02,-0.04 0.07,-0.04 0.15,-0.09 0.22,-0.13 0.02,-0.01 0.04,0 0.05,0.01 0.01,0.02 0,0.04 -0.01,0.05 -0.08,0.04 -0.16,0.08 -0.23,0.13 -0.01,0 -0.01,0 -0.02,0zm-0.22 0.11c0,0 -0.01,0 -0.01,-0.01 0,0 -0.05,-0.02 -0.14,-0.06 -0.01,-0.01 -0.02,-0.03 -0.01,-0.05 0.01,-0.01 0.02,-0.02 0.04,-0.01 0.06,0.03 0.1,0.05 0.12,0.06 0.02,-0.01 0.05,-0.02 0.09,-0.04 0.02,-0.01 0.04,0 0.04,0.01 0.01,0.02 0,0.04 -0.01,0.05 -0.07,0.03 -0.1,0.04 -0.1,0.04 -0.01,0.01 -0.01,0.01 -0.02,0.01z"/>
   <path class="fil0" d="M1.26 3.61c-0.01,0 -0.02,0 -0.03,-0.01l-0.47 -0.25c-0.03,-0.01 -0.04,-0.04 -0.03,-0.07l0.47 -1.36c0.01,-0.04 0.05,-0.06 0.08,-0.04 0.03,0.01 0.05,0.04 0.04,0.08l-0.45 1.31 0.42 0.22c0.03,0.02 0.04,0.06 0.03,0.09 -0.02,0.02 -0.04,0.03 -0.06,0.03z"/>
   <path class="fil0" d="M1.7 4.08l-0.2 0c-0.02,0 -0.04,-0.02 -0.05,-0.04l-0.25 -0.46c-0.01,-0.02 -0.01,-0.03 -0.01,-0.04l0.3 -1.61c0,-0.04 0.04,-0.06 0.07,-0.06 0.04,0.01 0.06,0.04 0.06,0.08l-0.29 1.59 0.21 0.4 0.16 0c0.04,0 0.07,0.03 0.07,0.07 0,0.04 -0.03,0.07 -0.07,0.07z"/>
   <path class="fil0" d="M2.56 3.19c-0.02,0 -0.04,-0.01 -0.05,-0.02 -0.02,-0.03 -0.02,-0.07 0,-0.1l0.28 -0.25 -0.46 -0.82 -1.25 0 -0.46 0.82 0.27 0.25c0.03,0.03 0.03,0.07 0.01,0.1 -0.03,0.02 -0.07,0.02 -0.1,0l-0.31 -0.29c-0.02,-0.02 -0.02,-0.05 -0.01,-0.08l0.5 -0.89c0.01,-0.03 0.04,-0.04 0.06,-0.04l1.33 0c0.02,0 0.04,0.01 0.06,0.04l0.5 0.89c0.01,0.03 0.01,0.06 -0.01,0.08l-0.32 0.29c-0.01,0.01 -0.03,0.02 -0.04,0.02z"/>
   <path class="fil0" d="M2.15 3.61c-0.02,0 -0.05,-0.01 -0.06,-0.03 -0.02,-0.03 0,-0.07 0.03,-0.09l0.42 -0.22 -0.45 -1.31c-0.01,-0.04 0,-0.07 0.04,-0.08 0.03,-0.02 0.07,0 0.08,0.04l0.47 1.36c0.01,0.03 0,0.06 -0.03,0.07l-0.47 0.25c-0.01,0.01 -0.02,0.01 -0.03,0.01z"/>
   <path class="fil0" d="M1.9 4.08l-0.2 0c-0.03,0 -0.06,-0.03 -0.06,-0.07 0,-0.04 0.03,-0.07 0.06,-0.07l0.17 0 0.21 -0.4 -0.29 -1.59c0,-0.04 0.02,-0.07 0.06,-0.08 0.03,0 0.06,0.02 0.07,0.06l0.29 1.61c0.01,0.01 0,0.02 0,0.04l-0.25 0.46c-0.01,0.02 -0.03,0.04 -0.06,0.04z"/>
  </g>
 </g>
</svg>
