<?xml version="1.0" encoding="UTF-8"?>
<!DOCTYPE svg PUBLIC "-//W3C//DTD SVG 1.1//EN" "http://www.w3.org/Graphics/SVG/1.1/DTD/svg11.dtd">
<!-- Creator: CorelDRAW 2019 (64-Bit) -->
<svg xmlns="http://www.w3.org/2000/svg" xml:space="preserve" width="27px" height="32px" version="1.1" style="shape-rendering:geometricPrecision; text-rendering:geometricPrecision; image-rendering:optimizeQuality; fill-rule:evenodd; clip-rule:evenodd"
viewBox="0 0 13.57 15.83"
 xmlns:xlink="http://www.w3.org/1999/xlink">
 <defs>
  <style type="text/css">
   <![CDATA[
    .str2 {stroke:#373435;stroke-width:0.22;stroke-miterlimit:2.61313}
    .str0 {stroke:#373435;stroke-width:0.44;stroke-miterlimit:2.61313}
    .str1 {stroke:#373435;stroke-width:0.15;stroke-miterlimit:2.61313}
    .fil0 {fill:none;fill-rule:nonzero}
   ]]>
  </style>
 </defs>
 <g id="Layer_x0020_1">
  <metadata id="CorelCorpID_0Corel-Layer"/>
  <g id="_2207288083008">
   <path class="fil0 str0" d="M4.32 5.86c-0.02,0.01 -1.58,0.42 -2.15,0.72 -1.63,0.85 -1.92,1.69 -1.95,3.17 -0.01,0.36 0.03,0.75 0.12,1.19 0.17,0.84 0.35,1.11 0.35,1.11 0.36,0.8 0.99,1.43 1.67,2.02 1.72,1.48 3.67,1.69 5.45,1.46 1.59,-0.2 3.04,-0.63 4.01,-1.76 0.88,-1.01 1.55,-2.21 1.53,-3.83 -0.01,-1.71 -1.25,-2.78 -1.61,-3.01 -0.08,-0.05 -0.02,-0.02 -0.02,-0.02 0,0 -0.11,2.44 -2.31,3.12 -2.21,0.68 -3.63,1.03 -4.63,1.08 -1,0.04 -4.23,0.1 -4.43,-0.22"/>
   <path class="fil0 str0" d="M0.25 9.81c0,0 2.41,-1.66 4.22,-1.64 1.81,0.03 1.35,0.03 1.53,0.04 0.18,0.01 2.06,0.18 3.05,1.91"/>
   <path class="fil0 str0" d="M0.91 9.4c0,0 0.05,-0.14 0.15,-0.41 0.24,-0.74 1.4,-3.03 5.21,-3.68"/>
   <path class="fil0 str0" d="M3.92 8.21c0,0 0.09,-0.17 0.1,-0.2 0.14,-0.46 1.28,-3.36 5.15,-3.47 2.56,-0.08 2.54,2.45 2.54,2.45"/>
   <path class="fil0 str1" d="M2.63 8.56c0,0 -0.73,-0.97 1.43,-1.76 0.05,-0.02 0.68,-0.19 0.74,-0.21"/>
   <path class="fil0 str2" d="M6.98 10.78l0.2 -9.97c0,0 -0.02,-0.13 -0.19,-0.13 -0.16,0 -0.43,0 -0.43,0 0,0 -0.1,-0.03 -0.11,-0.14 0,-0.11 -0.02,-0.33 -0.02,-0.35 0,-0.02 0,-0.05 0.04,-0.07 0.03,-0.01 0.07,-0.01 0.16,-0.01 0.19,0 1.09,0.04 1.09,0.04 0,0 0.14,0.04 0.12,0.2 -0.01,0.16 -0.86,10.43 -0.86,10.43z"/>
   <path class="fil0 str1" d="M2.61 14.23c0,0 2.3,0.22 4.96,-0.32 1.85,-0.37 3.87,-1.23 5.41,-2.26"/>
   <path class="fil0 str1" d="M13.1 8.52c-0.41,1.13 -1.28,2.19 -2.2,2.7 -2.91,1.6 -7.07,1.42 -10.05,1.15"/>
   <path class="fil0 str1" d="M0.38 10.92c-0.16,0.09 3.58,-1.83 6.7,-0.22"/>
   <path class="fil0 str1" d="M8.54 10.29c0,0 -2.61,-3.46 -8.3,-0.04"/>
   <path class="fil0 str1" d="M5.24 8.18c0.37,-0.83 0.75,-1.82 1.61,-2.25 2.19,-1.1 5,-0.62 3.44,2.47 -0.25,0.5 -0.74,1.03 -1.4,1.49"/>
  </g>
 </g>
</svg>
