<?xml version="1.0" encoding="UTF-8"?>
<!DOCTYPE svg PUBLIC "-//W3C//DTD SVG 1.1//EN" "http://www.w3.org/Graphics/SVG/1.1/DTD/svg11.dtd">
<!-- Creator: CorelDRAW 2020 (64-Bit) -->
<svg xmlns="http://www.w3.org/2000/svg" xml:space="preserve" width="0.17189in" height="0.330382in" version="1.1" style="shape-rendering:geometricPrecision; text-rendering:geometricPrecision; image-rendering:optimizeQuality; fill-rule:evenodd; clip-rule:evenodd"
viewBox="0 0 177.29 340.76"
 xmlns:xlink="http://www.w3.org/1999/xlink"
 xmlns:xodm="http://www.corel.com/coreldraw/odm/2003">
 <defs>
  <style type="text/css">
   <![CDATA[
    .str0 {stroke:#373435;stroke-width:12.18;stroke-miterlimit:2.61313}
    .fil0 {fill:none}
   ]]>
  </style>
 </defs>
 <g id="Layer_x0020_1">
  <metadata id="CorelCorpID_0Corel-Layer"/>
  <g id="_1599385711696">
   <path class="fil0 str0" d="M6.09 152.11l0.54 159.69c0,0 20.87,24.68 78.08,22.78 57.21,-1.9 84.32,-20.34 84.32,-20.34l2.17 -162.67c-14.45,20.68 -46.66,30.33 -78.9,31.37 -39.79,1.29 -79.65,-10.51 -86.21,-30.82z"/>
   <line class="fil0 str0" x1="95.69" y1="226.26" x2="95.83" y2= "182.79" />
   <line class="fil0 str0" x1="118.67" y1="180.04" x2="118.61" y2= "244.56" />
   <path class="fil0 str0" d="M89.32 147.5l-0.81 -31.78 -0 -0.22c0,0 -1.19,-0.04 -3.09,-0.31 -7,-0.99 -23.49,-3.91 -27.75,-20.95 -5.42,-21.68 5.5,-33.45 9.08,-39.66 3.57,-6.21 17.7,-13.86 14.11,-23.82 -3.59,-9.96 -7.05,-17.55 -7.59,-19.05 -0.54,-1.49 4.27,-12.27 18.44,0.68 14.17,12.95 24.31,24.57 29.76,38.5 5.45,13.93 4.9,37.6 -1.22,46.17 -5.84,8.19 -15.12,16.93 -22.17,17.6"/>
  </g>
 </g>
</svg>
