<?xml version="1.0" encoding="UTF-8"?>
<!DOCTYPE svg PUBLIC "-//W3C//DTD SVG 1.1//EN" "http://www.w3.org/Graphics/SVG/1.1/DTD/svg11.dtd">
<!-- Creator: CorelDRAW 2020 (64-Bit) -->
<svg xmlns="http://www.w3.org/2000/svg" xml:space="preserve" width="0.22789in" height="0.22789in" version="1.1" style="shape-rendering:geometricPrecision; text-rendering:geometricPrecision; image-rendering:optimizeQuality; fill-rule:evenodd; clip-rule:evenodd"
viewBox="0 0 104.44 104.44"
 xmlns:xlink="http://www.w3.org/1999/xlink"
 xmlns:xodm="http://www.corel.com/coreldraw/odm/2003">
 <defs>
  <style type="text/css">
   <![CDATA[
    .str0 {stroke:#373435;stroke-width:3.18;stroke-miterlimit:2.61313}
    .fil0 {fill:none}
    .fil1 {fill:#1E2337}
    .fil2 {fill:#1E2337;fill-rule:nonzero}
   ]]>
  </style>
 </defs>
 <g id="Layer_x0020_1">
  <metadata id="CorelCorpID_0Corel-Layer"/>
  <g id="_1675150081248">
   <path class="fil0 str0" d="M52.22 102.85c-27.96,0 -50.63,-22.68 -50.63,-50.63 0,-27.95 22.67,-50.63 50.63,-50.63 27.96,0 50.63,22.68 50.63,50.63 0,27.95 -22.67,50.63 -50.63,50.63z"/>
   <g>
    <path class="fil1" d="M66.67 32.48l-2.01 1.01c0.56,0.37 1.12,0.77 1.67,1.21 1.82,1.46 3.36,3.13 4.75,4.99 5.38,7.24 5.25,18.55 -0.15,25.73 -1.4,1.87 -2.97,3.5 -4.8,4.95 -1.88,1.5 -3.85,2.49 -6.12,3.29 -4.41,1.56 -9.07,1.77 -13.58,0.48 -4.45,-1.27 -8.23,-3.73 -11.21,-7.27 -1.61,-1.92 -2.78,-3.84 -3.67,-6.19 -0.82,-2.17 -1.31,-4.4 -1.55,-6.71 -0.51,-4.73 1.08,-10.46 3.92,-14.28 1.61,-2.17 3.45,-4.04 5.61,-5.67 1.11,-0.84 2.31,-1.49 3.56,-2.04l-2.09 -1.14c-0.68,0.35 -1.33,0.74 -1.95,1.18 -0.65,0.47 -1.28,0.96 -1.9,1.47 -1.29,0.31 -2.66,-0.3 -3.74,-1.07 -0.55,-0.39 -1.34,0.39 -0.94,0.94 0.75,1.05 1.39,2.41 1.1,3.72 -1.43,1.74 -2.58,3.52 -3.44,5.63 -0.14,0.33 -0.26,0.67 -0.39,1 -0.98,0.94 -2.48,1.06 -3.78,0.94 -0.67,-0.06 -0.96,1.01 -0.35,1.28 1.21,0.55 2.41,1.37 2.82,2.71 -0.09,0.49 -0.16,0.99 -0.23,1.49 -0.27,2.09 -0.2,4.21 0.16,6.3 -0.44,1.22 -1.6,2.01 -2.75,2.54 -0.61,0.28 -0.32,1.35 0.35,1.28 1.27,-0.12 2.67,-0.02 3.68,0.84 0.95,2.46 2.28,4.78 3.93,6.83 0.24,1.25 -0.35,2.57 -1.1,3.61 -0.39,0.55 0.39,1.34 0.94,0.94 1,-0.71 2.27,-1.32 3.51,-1.14 1.58,1.31 3.32,2.41 5.19,3.22 0.54,0.23 1.09,0.45 1.64,0.65 0.95,0.98 1.07,2.48 0.95,3.79 -0.06,0.67 1,0.96 1.28,0.35 0.55,-1.2 1.37,-2.4 2.7,-2.81 0.27,0.05 0.53,0.09 0.8,0.13 2.34,0.33 4.52,0.25 6.82,-0.12 1.32,0.39 2.16,1.6 2.72,2.81 0.28,0.61 1.35,0.32 1.28,-0.35 -0.12,-1.3 -0.01,-2.74 0.9,-3.75 2.43,-0.91 4.68,-2.21 6.7,-3.85 1.28,-0.27 2.62,0.33 3.68,1.08 0.55,0.39 1.34,-0.39 0.94,-0.94 -0.74,-1.03 -1.36,-2.37 -1.11,-3.65 1.65,-2.03 2.95,-4.28 3.86,-6.71 0.98,-0.93 2.47,-1.04 3.76,-0.92 0.67,0.06 0.96,-1 0.35,-1.28 -1.2,-0.55 -2.39,-1.37 -2.81,-2.69 0.39,-2.41 0.45,-4.67 0.09,-7.1 -0.03,-0.18 -0.06,-0.35 -0.09,-0.52 0.39,-1.32 1.6,-2.17 2.81,-2.72 0.61,-0.28 0.32,-1.35 -0.35,-1.28 -1.32,0.12 -2.77,0.01 -3.79,-0.93 -0.23,-0.63 -0.48,-1.26 -0.76,-1.89 -0.75,-1.71 -1.81,-3.39 -3.09,-4.93 -0.2,-1.23 0.39,-2.51 1.12,-3.53 0.39,-0.55 -0.39,-1.34 -0.94,-0.94 -0.99,0.71 -2.26,1.32 -3.5,1.14 -0.46,-0.38 -0.93,-0.75 -1.41,-1.09zm0 0l-2.01 1.01c-1.37,-0.89 -2.8,-1.57 -4.41,-2.16 -2.18,-0.79 -4.43,-1.21 -6.74,-1.43 -2.27,-0.21 -4.62,0.29 -6.83,0.79 -1.07,0.33 -2.12,0.68 -3.13,1.1l-1.87 -1.27c0.69,-0.32 1.41,-0.61 2.13,-0.87 0.65,-0.73 0.89,-1.67 0.93,-2.62l2.12 0c0.48,0.61 1.08,1.11 1.84,1.33 2.11,-0.34 4.21,-0.47 6.38,-0.18 0.42,0.06 0.83,0.12 1.24,0.19 0.77,-0.24 1.36,-0.73 1.84,-1.34l2.12 0c0.04,0.98 0.3,1.96 0.99,2.67 0.62,0.23 1.25,0.47 1.87,0.75 1.21,0.53 2.41,1.22 3.55,2.03zm-25 -1.95l1.87 1.27c-0.15,0.06 -0.3,0.12 -0.45,0.19l-2.09 -1.14c0.22,-0.11 0.44,-0.22 0.67,-0.32z"/>
    <path class="fil2" d="M39.65 44.66c-0.98,2.08 -3.39,2.69 -5.35,1.63 0.3,-0.87 0.66,-1.71 1.07,-2.51 0.07,0.06 0.14,0.12 0.23,0.16 0.5,0.24 1.11,0.16 1.46,-0.3 0.38,-0.5 0.11,-1.23 -0.36,-1.55 -0.08,-0.06 -0.17,-0.1 -0.26,-0.13 0.16,-0.23 0.32,-0.46 0.48,-0.67 0.39,-0.51 0.8,-1 1.22,-1.47 1.63,1.04 2.36,3.01 1.51,4.83zm1.69 -7.78c0.22,-0.17 0.44,-0.32 0.67,-0.48 0.03,0.09 0.07,0.18 0.13,0.25 0.33,0.46 1.05,0.75 1.55,0.36 0.44,-0.34 0.54,-0.97 0.3,-1.46 -0.04,-0.07 -0.08,-0.14 -0.14,-0.2 0.81,-0.39 1.66,-0.73 2.52,-1.02 1,1.94 0.39,4.31 -1.67,5.27 -1.82,0.85 -3.79,0.12 -4.83,-1.51 0.47,-0.42 0.96,-0.83 1.47,-1.22zm6.87 -0.42c0.9,1.42 2.44,2.37 4.29,2.37 1.85,0 3.39,-0.95 4.29,-2.37 0.07,1.74 0.99,3.4 2.7,4.29 1.56,0.81 3.28,0.74 4.7,0.01 -0.73,1.42 -0.81,3.14 0.01,4.7 0.9,1.71 2.55,2.63 4.29,2.7 -1.42,0.9 -2.37,2.44 -2.37,4.29 0,1.85 0.96,3.39 2.37,4.29 -1.74,0.07 -3.4,0.99 -4.29,2.7 -0.81,1.56 -0.74,3.28 -0.01,4.7 -1.42,-0.73 -3.14,-0.81 -4.7,0.01 -1.71,0.9 -2.63,2.55 -2.7,4.29 -0.9,-1.42 -2.44,-2.37 -4.29,-2.37 -1.85,0 -3.39,0.96 -4.29,2.37 -0.07,-1.75 -0.99,-3.4 -2.7,-4.29 -1.56,-0.81 -3.28,-0.74 -4.7,-0.01 0.74,-1.42 0.81,-3.14 -0.01,-4.7 -0.9,-1.71 -2.55,-2.63 -4.29,-2.7 1.42,-0.9 2.37,-2.44 2.37,-4.29 0,-1.85 -0.96,-3.39 -2.37,-4.29 1.74,-0.07 3.4,-0.99 4.29,-2.7 0.81,-1.56 0.74,-3.28 0.01,-4.7 1.42,0.73 3.14,0.81 4.7,-0.01 1.71,-0.89 2.63,-2.55 2.7,-4.29zm3.23 -3.18c-0.02,0.09 -0.03,0.18 -0.02,0.27 0.02,0.29 0.12,0.54 0.31,0.77 0.17,0.2 0.49,0.38 0.77,0.37 0.57,-0.03 0.99,-0.5 1.06,-1.04 0.02,-0.12 0.01,-0.24 -0.01,-0.36 0.91,0.09 1.82,0.23 2.71,0.41 -0.1,2.04 -1.62,3.75 -3.76,3.75 -2.14,0 -3.66,-1.72 -3.76,-3.77 0.89,-0.18 1.8,-0.33 2.7,-0.4zm7.18 1.05c0.27,0.09 0.53,0.18 0.8,0.28 0.59,0.22 1.16,0.48 1.71,0.75 -0.05,0.06 -0.09,0.12 -0.12,0.19 -0.24,0.5 -0.16,1.11 0.3,1.46 0.5,0.38 1.23,0.11 1.55,-0.36 0.05,-0.07 0.08,-0.14 0.11,-0.22 0.76,0.5 1.47,1.06 2.15,1.66 -1.04,1.63 -3.01,2.36 -4.83,1.51 -2.06,-0.96 -2.67,-3.33 -1.67,-5.27zm8.23 5.49c0.53,0.59 1.02,1.2 1.5,1.85 0.07,0.09 0.13,0.19 0.2,0.29 -0.09,0.03 -0.18,0.07 -0.26,0.13 -0.47,0.33 -0.75,1.05 -0.36,1.55 0.34,0.44 0.97,0.54 1.46,0.3 0.1,-0.05 0.18,-0.11 0.25,-0.18 0.42,0.81 0.78,1.65 1.07,2.52 -1.96,1.07 -4.39,0.47 -5.37,-1.62 -0.85,-1.82 -0.12,-3.79 1.51,-4.83zm4.48 8.86c0.17,0.89 0.27,1.79 0.31,2.7 -0.08,-0.01 -0.16,-0.02 -0.25,-0.02 -0.29,0.02 -0.54,0.12 -0.76,0.31 -0.2,0.17 -0.39,0.49 -0.37,0.77 0.03,0.57 0.5,0.99 1.04,1.07 0.11,0.01 0.22,0.01 0.33,-0.01 -0.05,0.91 -0.17,1.81 -0.35,2.7 -2.06,-0.09 -3.79,-1.61 -3.79,-3.76 0,-2.17 1.76,-3.7 3.84,-3.76zm-1.72 12.41c-0.06,-0.05 -0.14,-0.1 -0.22,-0.14 -0.5,-0.24 -1.11,-0.15 -1.46,0.3 -0.38,0.49 -0.11,1.23 0.36,1.55 0.08,0.05 0.16,0.09 0.24,0.12 -0.23,0.34 -0.46,0.66 -0.71,0.98 -0.32,0.4 -0.64,0.79 -0.98,1.17 -1.63,-1.04 -2.37,-3.01 -1.51,-4.83 0.97,-2.07 3.36,-2.68 5.31,-1.65 -0.29,0.87 -0.64,1.71 -1.04,2.51zm-6.63 7.35c-0.03,-0.07 -0.07,-0.14 -0.11,-0.21 -0.33,-0.46 -1.05,-0.75 -1.55,-0.36 -0.44,0.34 -0.54,0.97 -0.3,1.46 0.03,0.07 0.07,0.13 0.12,0.18 -0.7,0.35 -1.43,0.67 -2.19,0.94 -0.1,0.04 -0.21,0.07 -0.31,0.1 -1,-1.95 -0.39,-4.31 1.67,-5.28 1.82,-0.85 3.79,-0.12 4.83,1.51 -0.68,0.6 -1.4,1.15 -2.15,1.65zm-9.41 3.11c0.01,-0.07 0.02,-0.15 0.01,-0.22 -0.02,-0.29 -0.12,-0.54 -0.31,-0.76 -0.17,-0.2 -0.49,-0.38 -0.77,-0.37 -0.57,0.03 -0.99,0.5 -1.06,1.04 -0.01,0.11 -0.01,0.22 0.01,0.32 -0.9,-0.05 -1.8,-0.17 -2.7,-0.35 0.09,-2.05 1.61,-3.78 3.76,-3.78 2.14,0 3.66,1.72 3.76,3.77 -0.89,0.18 -1.79,0.3 -2.69,0.36zm-7.19 -0.99c-0.87,-0.3 -1.7,-0.65 -2.5,-1.05 0.05,-0.06 0.08,-0.12 0.12,-0.19 0.24,-0.5 0.16,-1.11 -0.3,-1.46 -0.5,-0.38 -1.23,-0.11 -1.55,0.36 -0.05,0.07 -0.08,0.14 -0.11,0.22 -0.75,-0.5 -1.47,-1.05 -2.16,-1.65 1.04,-1.63 3.01,-2.37 4.84,-1.52 2.06,0.97 2.68,3.34 1.67,5.28zm-8.23 -5.5c-0.15,-0.17 -0.29,-0.33 -0.43,-0.51 -0.44,-0.53 -0.85,-1.08 -1.22,-1.65 0.08,-0.03 0.15,-0.07 0.22,-0.12 0.47,-0.33 0.75,-1.05 0.36,-1.55 -0.34,-0.45 -0.97,-0.54 -1.46,-0.3 -0.06,0.03 -0.13,0.07 -0.18,0.12 -0.4,-0.81 -0.75,-1.65 -1.03,-2.51 1.94,-0.99 4.3,-0.38 5.26,1.68 0.85,1.82 0.12,3.79 -1.52,4.84zm-4.79 -11.57c0.08,0.02 0.17,0.03 0.26,0.02 0.29,-0.02 0.54,-0.12 0.76,-0.31 0.2,-0.17 0.39,-0.49 0.37,-0.77 -0.03,-0.57 -0.5,-0.99 -1.04,-1.06 -0.14,-0.02 -0.27,-0.01 -0.4,0.02 0.04,-0.9 0.16,-1.81 0.35,-2.72 2.09,0.05 3.86,1.59 3.86,3.76 0,2.13 -1.71,3.65 -3.75,3.76 -0.19,-0.88 -0.33,-1.78 -0.42,-2.7zm3.54 -14.34c-1.32,1.56 -2.39,3.13 -3.17,5.03 -0.82,2.01 -1.36,4.03 -1.63,6.19 -1.05,8.19 3.89,17.26 11.52,20.58 4,1.74 8.12,2.44 12.44,1.68 4.18,-0.73 7.97,-2.67 10.98,-5.68 3,-3 4.95,-6.8 5.68,-10.98 0.76,-4.31 0.06,-8.43 -1.68,-12.43 -1.75,-4.03 -5.59,-7.86 -9.61,-9.61 -2.18,-0.95 -4.38,-1.58 -6.74,-1.89 -2.55,-0.34 -4.98,0.01 -7.48,0.58 -2.06,0.64 -4.21,1.37 -5.97,2.65 -1.59,1.15 -3.07,2.4 -4.33,3.9z"/>
    <path class="fil2" d="M86.73 29.66c1.22,-0.7 2.88,-0.25 3.58,0.97 0.7,1.22 0.26,2.88 -0.97,3.58 -1.31,0.76 -2.75,0.18 -3.58,-0.96 -0.57,-1.29 -0.35,-2.83 0.97,-3.58zm-2.16 4.28c0.05,0.12 0.12,0.2 0.2,0.26 1.29,1.56 3.36,2.3 5.27,1.2 1.86,-1.08 2.54,-3.61 1.46,-5.47 -1.05,-1.81 -3.42,-2.48 -5.27,-1.55 -2.04,1.03 -2.52,3.27 -1.78,5.25 0.01,0.1 0.05,0.2 0.12,0.31z"/>
    <path class="fil2" d="M96.16 52.45c0,1.41 -1.21,2.63 -2.62,2.63 -1.51,0 -2.47,-1.22 -2.62,-2.63 0.15,-1.4 1.11,-2.62 2.62,-2.62 1.41,0 2.62,1.22 2.62,2.62zm-6.58 -0.33c-0.04,0.09 -0.06,0.2 -0.05,0.33 -0.01,0.13 0.01,0.23 0.05,0.33 0.34,2 1.76,3.67 3.96,3.67 2.15,0 4,-1.85 4,-4 0,-2.09 -1.72,-3.86 -3.79,-3.98 -2.28,-0.13 -3.82,1.57 -4.17,3.65z"/>
    <path class="fil2" d="M90.31 74.28c-0.7,1.22 -2.36,1.67 -3.58,0.97 -1.31,-0.75 -1.54,-2.29 -0.97,-3.58 0.83,-1.14 2.27,-1.72 3.58,-0.97 1.22,0.7 1.67,2.37 0.97,3.58zm-5.53 -3.57c-0.08,0.06 -0.15,0.14 -0.21,0.26 -0.08,0.1 -0.11,0.21 -0.12,0.31 -0.71,1.9 -0.32,4.06 1.58,5.16 1.86,1.08 4.39,0.4 5.47,-1.46 1.05,-1.81 0.44,-4.21 -1.28,-5.34 -1.91,-1.26 -4.09,-0.55 -5.44,1.07z"/>
    <path class="fil2" d="M75.29 86.69c0.7,1.22 0.25,2.88 -0.97,3.58 -1.22,0.7 -2.88,0.26 -3.58,-0.97 -0.75,-1.31 -0.18,-2.75 0.97,-3.58 1.29,-0.57 2.83,-0.35 3.58,0.97zm-4.28 -2.15c-0.12,0.05 -0.2,0.12 -0.26,0.2 -1.56,1.29 -2.3,3.36 -1.2,5.27 1.08,1.86 3.61,2.54 5.47,1.46 1.81,-1.05 2.48,-3.42 1.55,-5.27 -1.03,-2.04 -3.27,-2.52 -5.25,-1.78 -0.1,0.01 -0.2,0.05 -0.31,0.12z"/>
    <path class="fil2" d="M52.49 90.87c1.4,0.15 2.62,1.11 2.62,2.63 0,1.4 -1.22,2.62 -2.62,2.62 -1.41,0 -2.62,-1.22 -2.62,-2.62 0,-1.51 1.22,-2.48 2.62,-2.63zm0 6.63c2.09,0 3.86,-1.72 3.98,-3.79 0.13,-2.28 -1.57,-3.82 -3.65,-4.17 -0.09,-0.04 -0.2,-0.06 -0.33,-0.05 -0.13,-0.01 -0.23,0.01 -0.32,0.05 -2,0.33 -3.68,1.76 -3.68,3.96 0,2.15 1.85,4 4,4z"/>
    <path class="fil2" d="M29.7 86.69c0.75,-1.31 2.29,-1.54 3.58,-0.97 1.14,0.83 1.72,2.27 0.97,3.58 -0.7,1.22 -2.37,1.67 -3.58,0.97 -1.22,-0.7 -1.67,-2.36 -0.97,-3.58zm-1.19 -0.69c-1.08,1.86 -0.4,4.39 1.46,5.47 1.81,1.05 4.21,0.44 5.34,-1.28 1.26,-1.91 0.55,-4.09 -1.07,-5.44 -0.06,-0.08 -0.14,-0.15 -0.26,-0.2 -0.1,-0.08 -0.21,-0.11 -0.3,-0.12 -1.9,-0.71 -4.06,-0.32 -5.16,1.58z"/>
    <path class="fil2" d="M15.64 70.7c1.31,-0.75 2.75,-0.18 3.58,0.97 0.57,1.29 0.35,2.83 -0.97,3.58 -1.22,0.7 -2.88,0.25 -3.58,-0.97 -0.7,-1.22 -0.26,-2.88 0.97,-3.58zm3.11 5.83c2.04,-1.03 2.52,-3.27 1.78,-5.25 -0.01,-0.1 -0.05,-0.2 -0.12,-0.31 -0.05,-0.12 -0.12,-0.2 -0.2,-0.26 -1.29,-1.56 -3.36,-2.3 -5.27,-1.2 -1.86,1.08 -2.54,3.61 -1.46,5.47 1.05,1.81 3.42,2.48 5.27,1.55z"/>
    <path class="fil2" d="M11.45 49.83c1.51,0 2.47,1.22 2.62,2.62 -0.15,1.4 -1.11,2.63 -2.62,2.63 -1.41,0 -2.63,-1.22 -2.63,-2.63 0,-1.41 1.22,-2.62 2.63,-2.62zm-0.22 6.6c2.28,0.13 3.82,-1.57 4.17,-3.65 0.04,-0.09 0.06,-0.2 0.05,-0.33 0.01,-0.13 -0.01,-0.23 -0.05,-0.33 -0.33,-1.99 -1.76,-3.67 -3.95,-3.67 -2.15,0 -4,1.85 -4,4 0,2.09 1.72,3.86 3.79,3.98z"/>
    <path class="fil2" d="M14.68 30.62c0.7,-1.22 2.36,-1.67 3.58,-0.97 1.31,0.75 1.54,2.29 0.97,3.58 -0.83,1.14 -2.27,1.72 -3.58,0.96 -1.22,-0.7 -1.67,-2.36 -0.97,-3.58zm0.1 4.64c1.91,1.26 4.09,0.55 5.44,-1.07 0.08,-0.06 0.15,-0.14 0.21,-0.26 0.08,-0.1 0.11,-0.21 0.12,-0.31 0.71,-1.9 0.32,-4.06 -1.58,-5.16 -1.86,-1.08 -4.39,-0.4 -5.47,1.46 -1.05,1.81 -0.44,4.21 1.29,5.34z"/>
    <path class="fil2" d="M80.2 36.45c-0.67,-1.5 1.42,-2.79 2.27,-1.3 0.85,1.48 -1.3,2.64 -2.27,1.3zm2.48 1.67c1.25,-0.73 1.71,-2.42 0.98,-3.67 -0.7,-1.21 -2.31,-1.67 -3.55,-1.03 -1.32,0.68 -1.65,2.1 -1.22,3.4 0.01,0.1 0.04,0.21 0.12,0.32 0.05,0.13 0.13,0.21 0.22,0.27 0.87,0.98 2.22,1.43 3.45,0.71z"/>
    <path class="fil2" d="M87.11 52.45c0,1.71 -2.44,1.64 -2.62,0 0.18,-1.63 2.62,-1.71 2.62,0zm-3.94 0.34c0.26,1.28 1.2,2.35 2.63,2.35 1.44,-0.01 2.69,-1.24 2.69,-2.69 0,-1.4 -1.16,-2.61 -2.56,-2.67 -1.48,-0.07 -2.49,0.99 -2.76,2.33 -0.05,0.1 -0.07,0.21 -0.05,0.34 -0.01,0.14 0.01,0.25 0.05,0.34z"/>
    <path class="fil2" d="M80.2 68.45c0.97,-1.33 3.12,-0.18 2.27,1.3 -0.85,1.48 -2.94,0.21 -2.27,-1.3zm-0.21 2.98c1.25,0.71 2.94,0.27 3.67,-0.98 0.7,-1.22 0.3,-2.84 -0.87,-3.6 -1.25,-0.8 -2.65,-0.39 -3.56,0.63 -0.08,0.06 -0.16,0.14 -0.22,0.27 -0.08,0.11 -0.12,0.22 -0.12,0.33 -0.42,1.24 -0.14,2.64 1.1,3.35z"/>
    <path class="fil2" d="M68.5 80.16c1.5,-0.67 2.79,1.42 1.3,2.27 -1.48,0.85 -2.64,-1.3 -1.3,-2.27zm2 3.46c1.22,-0.7 1.67,-2.31 1.03,-3.55 -0.68,-1.32 -2.11,-1.65 -3.4,-1.22 -0.1,0.01 -0.21,0.04 -0.32,0.12 -0.13,0.05 -0.21,0.13 -0.27,0.22 -0.98,0.87 -1.43,2.22 -0.71,3.45 0.73,1.24 2.42,1.71 3.67,0.98z"/>
    <path class="fil2" d="M52.49 84.45c1.63,0.17 1.71,2.62 0,2.62 -1.71,0 -1.64,-2.44 0,-2.62zm0 3.99c1.4,0 2.61,-1.16 2.67,-2.56 0.07,-1.48 -0.99,-2.49 -2.33,-2.76 -0.09,-0.05 -0.21,-0.07 -0.34,-0.06 -0.14,-0.01 -0.25,0.01 -0.34,0.06 -1.28,0.26 -2.35,1.2 -2.34,2.63 0.01,1.44 1.24,2.69 2.69,2.69z"/>
    <path class="fil2" d="M35.19 82.43c-1.48,-0.85 -0.21,-2.94 1.3,-2.27 1.33,0.97 0.18,3.12 -1.3,2.27zm2.27 -3.24c-0.06,-0.09 -0.14,-0.16 -0.27,-0.22 -0.11,-0.08 -0.22,-0.12 -0.32,-0.12 -1.24,-0.42 -2.64,-0.14 -3.35,1.1 -0.71,1.25 -0.27,2.94 0.98,3.67 1.21,0.7 2.84,0.3 3.59,-0.87 0.8,-1.25 0.39,-2.65 -0.63,-3.56z"/>
    <path class="fil2" d="M24.79 68.45c0.67,1.5 -1.42,2.79 -2.27,1.3 -0.85,-1.48 1.3,-2.64 2.27,-1.3zm-2.48 -1.67c-1.25,0.73 -1.71,2.42 -0.98,3.67 0.7,1.21 2.31,1.67 3.55,1.03 1.32,-0.68 1.65,-2.11 1.22,-3.4 -0.01,-0.11 -0.04,-0.22 -0.12,-0.33 -0.05,-0.12 -0.13,-0.21 -0.22,-0.27 -0.87,-0.98 -2.22,-1.43 -3.45,-0.71z"/>
    <path class="fil2" d="M17.88 52.45c0,-1.71 2.44,-1.64 2.62,0 -0.17,1.63 -2.62,1.71 -2.62,0zm3.94 -0.34c-0.26,-1.28 -1.2,-2.35 -2.63,-2.34 -1.44,0.01 -2.69,1.24 -2.69,2.69 0,1.4 1.16,2.61 2.56,2.67 1.48,0.07 2.49,-0.99 2.76,-2.33 0.05,-0.09 0.07,-0.21 0.06,-0.34 0.01,-0.14 -0.01,-0.25 -0.06,-0.34z"/>
    <path class="fil2" d="M22.52 35.15c0.85,-1.48 2.94,-0.21 2.27,1.3 -0.97,1.33 -3.12,0.18 -2.27,-1.3zm-0.32 2.9c1.25,0.8 2.65,0.39 3.56,-0.63 0.08,-0.06 0.16,-0.14 0.22,-0.27 0.08,-0.11 0.12,-0.22 0.12,-0.32 0.42,-1.24 0.14,-2.64 -1.1,-3.35 -1.25,-0.72 -2.94,-0.27 -3.67,0.98 -0.7,1.21 -0.3,2.84 0.87,3.59z"/>
    <path class="fil2" d="M76.01 38.87c-0.27,-0.6 0.56,-1.1 0.91,-0.51 0.34,0.59 -0.52,1.04 -0.91,0.51zm-0.43 -1.93c-0.89,0.47 -1.13,1.4 -0.89,2.28 0,0.11 0.04,0.23 0.13,0.35 0.04,0.09 0.1,0.16 0.17,0.21 0.61,0.68 1.56,0.99 2.43,0.48 0.88,-0.52 1.21,-1.71 0.69,-2.6 -0.5,-0.86 -1.65,-1.18 -2.52,-0.72z"/>
    <path class="fil2" d="M79.65 52.45c0.07,-0.65 1.03,-0.68 1.04,0 0.01,0.68 -0.98,0.65 -1.04,0zm2.42 0c0,-1 -0.83,-1.85 -1.82,-1.89 -1.04,-0.04 -1.74,0.69 -1.93,1.62 -0.04,0.08 -0.05,0.18 -0.05,0.27 -0.01,0.1 0.01,0.18 0.05,0.27 0.19,0.9 0.85,1.64 1.86,1.63 1.02,-0.01 1.9,-0.87 1.9,-1.9z"/>
    <path class="fil2" d="M76.01 66.04c0.39,-0.53 1.24,-0.08 0.91,0.51 -0.33,0.6 -1.18,0.09 -0.91,-0.51zm-0.5 1.9c0.89,0.5 2.08,0.2 2.6,-0.69 0.5,-0.86 0.21,-2.02 -0.63,-2.55 -0.88,-0.56 -1.86,-0.27 -2.49,0.44 -0.07,0.05 -0.13,0.12 -0.17,0.2 -0.09,0.12 -0.12,0.24 -0.13,0.35 -0.24,0.85 -0.02,1.77 0.82,2.25z"/>
    <path class="fil2" d="M66.59 76.88c-0.59,0.35 -1.05,-0.52 -0.52,-0.91 0.6,-0.27 1.1,0.56 0.52,0.91zm1.42 -1.34c-0.47,-0.88 -1.4,-1.13 -2.28,-0.89 -0.11,0 -0.23,0.04 -0.35,0.12 -0.09,0.04 -0.16,0.1 -0.21,0.17 -0.68,0.61 -0.99,1.56 -0.48,2.43 0.52,0.88 1.71,1.21 2.6,0.69 0.86,-0.5 1.19,-1.65 0.72,-2.53z"/>
    <path class="fil2" d="M52.49 79.61c0.65,0.07 0.68,1.04 0,1.04 -0.68,0.01 -0.65,-0.97 0,-1.04zm0 2.42c1,0 1.85,-0.83 1.89,-1.82 0.04,-1.04 -0.69,-1.74 -1.63,-1.93 -0.08,-0.04 -0.17,-0.05 -0.27,-0.04 -0.1,-0.01 -0.19,0.01 -0.27,0.04 -0.89,0.19 -1.64,0.85 -1.63,1.86 0.01,1.02 0.87,1.9 1.9,1.9z"/>
    <path class="fil2" d="M38.4 76.88c-0.6,-0.33 -0.09,-1.17 0.52,-0.91 0.53,0.38 0.08,1.24 -0.52,0.91zm1.85 0.56c0.56,-0.88 0.27,-1.85 -0.44,-2.49 -0.05,-0.07 -0.12,-0.13 -0.21,-0.17 -0.12,-0.09 -0.24,-0.12 -0.35,-0.12 -0.84,-0.24 -1.77,-0.03 -2.25,0.82 -0.51,0.89 -0.2,2.08 0.69,2.6 0.86,0.5 2.02,0.21 2.55,-0.63z"/>
    <path class="fil2" d="M28.98 66.04c0.27,0.6 -0.56,1.1 -0.91,0.51 -0.34,-0.59 0.52,-1.05 0.91,-0.51zm0.43 1.93c0.88,-0.47 1.13,-1.4 0.89,-2.28 -0,-0.11 -0.04,-0.23 -0.13,-0.35 -0.04,-0.08 -0.1,-0.15 -0.17,-0.21 -0.61,-0.68 -1.56,-0.99 -2.43,-0.48 -0.88,0.52 -1.21,1.71 -0.69,2.6 0.5,0.86 1.65,1.18 2.52,0.72z"/>
    <path class="fil2" d="M25.34 52.45c-0.07,0.65 -1.03,0.68 -1.04,0 -0.01,-0.68 0.98,-0.65 1.04,0zm-2.42 0c0,1 0.83,1.85 1.82,1.89 1.04,0.04 1.74,-0.69 1.93,-1.62 0.04,-0.08 0.05,-0.17 0.05,-0.27 0.01,-0.1 -0.01,-0.19 -0.05,-0.27 -0.19,-0.89 -0.85,-1.64 -1.86,-1.63 -1.02,0.01 -1.9,0.87 -1.9,1.9z"/>
    <path class="fil2" d="M28.07 38.36c0.33,-0.6 1.17,-0.09 0.91,0.51 -0.39,0.53 -1.24,0.08 -0.91,-0.51zm-0.56 1.85c0.88,0.55 1.85,0.27 2.49,-0.44 0.07,-0.05 0.13,-0.12 0.17,-0.21 0.09,-0.12 0.12,-0.24 0.12,-0.35 0.24,-0.84 0.03,-1.77 -0.82,-2.25 -0.89,-0.51 -2.08,-0.2 -2.6,0.69 -0.5,0.86 -0.21,2.02 0.63,2.55z"/>
    <path class="fil2" d="M52.3 51.73c0.94,-0.19 1.32,1.2 0.38,1.45 -0.94,0.26 -1.29,-1.14 -0.38,-1.45zm0.75 2.78c1.08,-0.29 1.76,-1.43 1.52,-2.52 -0.25,-1.12 -1.28,-1.72 -2.35,-1.63 -0.08,-0.01 -0.18,0 -0.27,0.03 -0.1,0.02 -0.19,0.06 -0.25,0.11 -0.94,0.44 -1.54,1.43 -1.25,2.51 0.31,1.11 1.49,1.8 2.61,1.5z"/>
    <path class="fil2" d="M51.88 44.56c0,0.01 0.01,0.01 0.01,0.02 0.01,0.01 0.01,0.02 0.02,0.03 0.13,0.22 0.35,0.31 0.58,0.3 0.23,0.01 0.45,-0.08 0.58,-0.3 0.01,-0.01 0.01,-0.02 0.02,-0.03 0,-0.01 0.01,-0.01 0.01,-0.02 0.03,-0.06 0.06,-0.12 0.07,-0.19 0.22,-0.72 0.66,-1.36 0.62,-2.15 -0.03,-0.67 -0.53,-1.57 -1.3,-1.56 -0.73,0.01 -1.24,0.81 -1.3,1.46 -0.07,0.82 0.39,1.49 0.62,2.25 0.01,0.07 0.04,0.13 0.07,0.19z"/>
    <path class="fil2" d="M56.22 45.89c0.18,0.13 0.42,0.18 0.65,0.08 0.11,-0.04 0.2,-0.1 0.28,-0.2 0.52,-0.49 1.18,-0.81 1.55,-1.45 0.36,-0.62 0.38,-1.55 -0.24,-2.03 -0.6,-0.47 -1.52,0.01 -1.9,0.52 -0.5,0.68 -0.43,1.49 -0.61,2.27 -0.05,0.11 -0.05,0.22 -0.03,0.32 0.02,0.21 0.14,0.37 0.3,0.47z"/>
    <path class="fil2" d="M59.05 48.73c0.1,0.16 0.26,0.28 0.47,0.3 0.11,0.02 0.22,0.01 0.33,-0.03 0.75,-0.17 1.53,-0.11 2.2,-0.56 0.55,-0.37 1.08,-1.33 0.59,-1.95 -0.47,-0.6 -1.35,-0.6 -1.97,-0.27 -0.68,0.36 -1.01,1.05 -1.51,1.59 -0.1,0.07 -0.16,0.17 -0.2,0.28 -0.1,0.22 -0.05,0.46 0.08,0.65z"/>
    <path class="fil2" d="M60.57 51.77c-0.07,0.01 -0.13,0.04 -0.19,0.07 -0.01,0 -0.02,0.01 -0.02,0.01 -0.01,0.01 -0.02,0.01 -0.03,0.02 -0.21,0.13 -0.31,0.35 -0.3,0.58 -0.01,0.23 0.08,0.45 0.3,0.58 0.01,0.01 0.02,0.01 0.03,0.02 0.01,0 0.01,0.01 0.02,0.01 0.06,0.03 0.12,0.06 0.19,0.07 0.72,0.22 1.36,0.66 2.15,0.62 0.66,-0.03 1.56,-0.53 1.55,-1.3 -0.01,-0.73 -0.81,-1.24 -1.46,-1.3 -0.82,-0.07 -1.49,0.39 -2.25,0.62z"/>
    <path class="fil2" d="M62.12 56.52c-0.68,-0.5 -1.49,-0.43 -2.27,-0.61 -0.11,-0.05 -0.22,-0.05 -0.33,-0.03 -0.2,0.02 -0.37,0.14 -0.47,0.3 -0.13,0.18 -0.18,0.42 -0.09,0.65 0.04,0.11 0.1,0.2 0.2,0.28 0.49,0.52 0.81,1.18 1.45,1.56 0.62,0.36 1.55,0.38 2.03,-0.24 0.47,-0.6 -0.01,-1.52 -0.52,-1.9z"/>
    <path class="fil2" d="M57.14 59.13c-0.07,-0.1 -0.17,-0.16 -0.28,-0.2 -0.23,-0.09 -0.46,-0.05 -0.65,0.08 -0.16,0.1 -0.28,0.26 -0.3,0.47 -0.02,0.11 -0.01,0.22 0.03,0.33 0.18,0.75 0.11,1.54 0.56,2.2 0.37,0.56 1.33,1.08 1.95,0.59 0.59,-0.46 0.59,-1.35 0.27,-1.97 -0.36,-0.68 -1.05,-1.01 -1.59,-1.51z"/>
    <path class="fil2" d="M53.11 60.34c-0,-0.01 -0.01,-0.02 -0.01,-0.02 -0.01,-0.01 -0.01,-0.02 -0.02,-0.03 -0.13,-0.22 -0.35,-0.31 -0.58,-0.3 -0.23,-0.01 -0.45,0.08 -0.58,0.3 -0.01,0.01 -0.01,0.02 -0.02,0.03 -0,0.01 -0.01,0.01 -0.01,0.02 -0.03,0.06 -0.06,0.13 -0.07,0.19 -0.22,0.72 -0.66,1.36 -0.62,2.15 0.03,0.66 0.53,1.56 1.3,1.55 0.73,-0.01 1.24,-0.81 1.3,-1.46 0.07,-0.82 -0.39,-1.49 -0.62,-2.25 -0.01,-0.07 -0.04,-0.13 -0.07,-0.19z"/>
    <path class="fil2" d="M48.77 59.01c-0.18,-0.13 -0.42,-0.18 -0.65,-0.08 -0.11,0.04 -0.2,0.1 -0.28,0.2 -0.52,0.49 -1.18,0.81 -1.55,1.45 -0.36,0.62 -0.38,1.55 0.24,2.03 0.6,0.47 1.52,-0.01 1.9,-0.52 0.5,-0.68 0.43,-1.49 0.61,-2.27 0.05,-0.11 0.05,-0.22 0.03,-0.33 -0.02,-0.21 -0.14,-0.37 -0.3,-0.47z"/>
    <path class="fil2" d="M45.94 56.18c-0.1,-0.16 -0.26,-0.28 -0.47,-0.3 -0.11,-0.02 -0.22,-0.01 -0.33,0.03 -0.75,0.17 -1.53,0.11 -2.2,0.56 -0.55,0.37 -1.08,1.33 -0.59,1.95 0.46,0.59 1.35,0.59 1.97,0.27 0.68,-0.36 1.01,-1.05 1.51,-1.59 0.1,-0.07 0.16,-0.17 0.2,-0.27 0.1,-0.23 0.05,-0.46 -0.08,-0.65z"/>
    <path class="fil2" d="M44.42 53.13c0.07,-0.01 0.13,-0.04 0.19,-0.07 0.01,-0 0.02,-0.01 0.02,-0.01 0.01,-0.01 0.02,-0.01 0.03,-0.02 0.21,-0.13 0.3,-0.36 0.3,-0.58 0.01,-0.23 -0.08,-0.45 -0.3,-0.58 -0.01,-0.01 -0.02,-0.02 -0.03,-0.02 -0.01,-0 -0.01,-0.01 -0.02,-0.01 -0.06,-0.03 -0.12,-0.06 -0.19,-0.07 -0.72,-0.22 -1.36,-0.66 -2.15,-0.62 -0.66,0.03 -1.56,0.53 -1.55,1.3 0.01,0.73 0.81,1.24 1.46,1.3 0.82,0.07 1.49,-0.39 2.25,-0.62z"/>
    <path class="fil2" d="M42.87 48.39c0.68,0.5 1.49,0.43 2.27,0.61 0.11,0.04 0.22,0.05 0.33,0.03 0.2,-0.02 0.37,-0.14 0.47,-0.3 0.13,-0.18 0.18,-0.42 0.09,-0.65 -0.04,-0.11 -0.1,-0.2 -0.2,-0.28 -0.49,-0.52 -0.81,-1.18 -1.45,-1.56 -0.62,-0.36 -1.55,-0.38 -2.03,0.24 -0.47,0.6 0.01,1.52 0.52,1.9z"/>
    <path class="fil2" d="M46.26 44.27c0.36,0.68 1.05,1.01 1.59,1.51 0.07,0.1 0.17,0.16 0.28,0.2 0.23,0.1 0.46,0.05 0.65,-0.08 0.16,-0.1 0.28,-0.26 0.3,-0.47 0.02,-0.1 0.01,-0.22 -0.03,-0.32 -0.18,-0.75 -0.11,-1.54 -0.56,-2.2 -0.37,-0.55 -1.33,-1.08 -1.95,-0.59 -0.59,0.47 -0.59,1.36 -0.27,1.97z"/>
    <path class="fil2" d="M51.49 48.69c2.08,-0.43 4.19,0.62 4.77,2.76 0.55,2.07 -0.71,4.2 -2.76,4.77 -2.05,0.57 -4.22,-0.72 -4.77,-2.76 -0.57,-2.15 0.74,-4.1 2.76,-4.77zm-2.7 -1.33c0.12,0.45 0.16,0.9 0.06,1.36 0,0 0,0 0,0 -0.03,0.03 -0.05,0.06 -0.08,0.09 -0,0 -0,0 -0.01,0 -0.46,0.09 -0.91,0.06 -1.36,-0.06 -0.66,-0.18 -1.16,0.67 -0.67,1.15 0.32,0.31 0.56,0.67 0.71,1.09 -0.02,0.08 -0.05,0.15 -0.07,0.23 -0.34,0.28 -0.73,0.46 -1.15,0.57 -0.65,0.17 -0.66,1.16 0,1.33 0.42,0.11 0.81,0.29 1.15,0.57 0.01,0.04 0.02,0.09 0.03,0.13 0.01,0.04 0.03,0.08 0.04,0.12 -0.15,0.41 -0.39,0.76 -0.71,1.07 -0.49,0.49 0.01,1.33 0.67,1.15 0.42,-0.11 0.85,-0.15 1.29,-0.08 0.05,0.06 0.11,0.11 0.17,0.16 0.08,0.44 0.04,0.87 -0.07,1.3 -0.18,0.66 0.66,1.16 1.15,0.67 0.32,-0.32 0.68,-0.57 1.1,-0.72 0.07,0.02 0.13,0.04 0.2,0.06 0.29,0.34 0.47,0.74 0.59,1.17 0.17,0.65 1.16,0.65 1.33,0 0.11,-0.43 0.29,-0.81 0.57,-1.15 0.05,-0.01 0.09,-0.01 0.13,-0.03 0.04,-0.01 0.08,-0.03 0.12,-0.04 0.41,0.15 0.76,0.39 1.07,0.71 0.49,0.49 1.33,-0.01 1.15,-0.67 -0.12,-0.42 -0.15,-0.85 -0.08,-1.28 0.06,-0.05 0.11,-0.11 0.16,-0.17 0.44,-0.08 0.87,-0.04 1.3,0.07 0.66,0.18 1.16,-0.66 0.67,-1.15 -0.32,-0.32 -0.57,-0.67 -0.72,-1.1 0.02,-0.07 0.04,-0.14 0.06,-0.21 0.34,-0.29 0.74,-0.47 1.17,-0.58 0.65,-0.17 0.66,-1.16 0,-1.33 -0.42,-0.11 -0.81,-0.29 -1.15,-0.57 -0.01,-0.04 -0.02,-0.09 -0.03,-0.13 -0.01,-0.04 -0.03,-0.08 -0.04,-0.12 0.15,-0.41 0.4,-0.76 0.71,-1.07 0.49,-0.48 -0.01,-1.33 -0.67,-1.15 -0.42,0.11 -0.84,0.15 -1.27,0.08 -0.06,-0.06 -0.12,-0.11 -0.18,-0.17 -0.07,-0.43 -0.04,-0.86 0.08,-1.29 0.18,-0.66 -0.66,-1.16 -1.15,-0.67 -0.33,0.33 -0.71,0.59 -1.15,0.74 0,0 0,0 0,0 -0.04,-0.01 -0.07,-0.02 -0.11,-0.03 0,0 0,-0 -0,-0 -0.31,-0.35 -0.51,-0.77 -0.63,-1.22 -0.17,-0.65 -1.16,-0.65 -1.33,0 -0.11,0.43 -0.29,0.81 -0.57,1.15 -0.04,0.01 -0.09,0.01 -0.14,0.03 -0.04,0.01 -0.08,0.02 -0.12,0.04 -0.41,-0.16 -0.76,-0.4 -1.06,-0.71 -0.49,-0.49 -1.33,0.01 -1.15,0.67z"/>
    <path class="fil2" d="M92.06 42.27c-0.02,3.12 -5.3,2.35 -8.19,1.79 1.05,-0.87 2.14,-1.7 3.29,-2.43 0.73,-0.47 1.5,-0.89 2.36,-1.03 1.15,-0.18 2.55,0.28 2.54,1.66zm-2.47 -3.53c-2.91,0.65 -5.61,3.18 -7.8,5.1 -0.23,0.21 -0.25,0.55 -0.12,0.81 0.02,0.29 0.19,0.57 0.5,0.63 2.8,0.55 6.31,1.36 9.12,0.57 2.09,-0.59 3.63,-2.37 3.03,-4.6 -0.58,-2.15 -2.68,-2.96 -4.74,-2.5z"/>
    <path class="fil2" d="M87.16 63.27c-1.15,-0.73 -2.24,-1.55 -3.28,-2.42 2.88,-0.55 8.3,-1.32 8.19,1.79 -0.1,2.79 -3.57,1.48 -4.9,0.64zm7.17 0.4c0.58,-2.15 -0.83,-3.9 -2.84,-4.54 -2.84,-0.91 -6.48,-0.05 -9.32,0.51 -0.3,0.06 -0.48,0.34 -0.5,0.63 -0.13,0.26 -0.12,0.6 0.12,0.81 2.15,1.88 4.77,4.33 7.6,5.05 2.1,0.54 4.34,-0.23 4.93,-2.46z"/>
    <path class="fil2" d="M79.13 77.03c1.34,0.69 4.05,2.67 2.33,4.39 -1.64,1.64 -3.6,-0.83 -4.29,-2.14 -0.65,-1.23 -1.2,-2.52 -1.68,-3.83 1.24,0.46 2.47,0.98 3.65,1.59zm-1.51 5.72c1.55,1.52 3.87,1.96 5.5,0.33 1.57,-1.57 1.23,-3.8 -0.19,-5.35 -2.02,-2.2 -5.57,-3.27 -8.31,-4.21 -0.3,-0.1 -0.6,0.05 -0.76,0.3 -0.25,0.16 -0.4,0.46 -0.3,0.76 0.92,2.69 1.97,6.14 4.06,8.17z"/>
    <path class="fil2" d="M62.68 92.02c-3.12,-0.02 -2.35,-5.31 -1.79,-8.19 0.87,1.05 1.7,2.14 2.43,3.29 0.47,0.73 0.89,1.49 1.03,2.36 0.18,1.15 -0.28,2.55 -1.66,2.54zm-1.56 -10.27c-0.2,-0.23 -0.55,-0.25 -0.81,-0.12 -0.29,0.02 -0.57,0.19 -0.63,0.5 -0.55,2.8 -1.36,6.31 -0.57,9.12 0.59,2.09 2.37,3.63 4.6,3.03 2.15,-0.58 2.96,-2.68 2.5,-4.74 -0.65,-2.91 -3.18,-5.61 -5.1,-7.8z"/>
    <path class="fil2" d="M41.67 87.12c0.73,-1.15 1.55,-2.24 2.42,-3.29 0.55,2.89 1.32,8.3 -1.79,8.19 -2.79,-0.1 -1.48,-3.57 -0.64,-4.9zm-0.4 7.17c2.15,0.58 3.9,-0.83 4.54,-2.84 0.91,-2.84 0.05,-6.48 -0.51,-9.32 -0.06,-0.3 -0.34,-0.48 -0.63,-0.5 -0.26,-0.13 -0.6,-0.12 -0.81,0.12 -1.87,2.15 -4.33,4.77 -5.05,7.6 -0.53,2.1 0.23,4.34 2.46,4.93z"/>
    <path class="fil2" d="M27.92 79.09c-0.69,1.34 -2.67,4.05 -4.39,2.33 -1.64,-1.64 0.83,-3.6 2.14,-4.29 1.23,-0.65 2.52,-1.2 3.83,-1.69 -0.46,1.25 -0.98,2.47 -1.59,3.65zm-5.72 -1.51c-1.52,1.56 -1.96,3.87 -0.33,5.5 1.57,1.57 3.8,1.23 5.35,-0.19 2.2,-2.02 3.27,-5.57 4.21,-8.31 0.1,-0.3 -0.05,-0.6 -0.3,-0.76 -0.16,-0.25 -0.46,-0.4 -0.76,-0.3 -2.69,0.92 -6.14,1.97 -8.17,4.06z"/>
    <path class="fil2" d="M21.11 60.85c-1.05,0.87 -2.14,1.7 -3.29,2.43 -0.73,0.47 -1.5,0.89 -2.36,1.03 -1.15,0.18 -2.55,-0.28 -2.54,-1.66 0.02,-3.12 5.3,-2.35 8.19,-1.79zm-7.43 -1.78c-2.09,0.59 -3.63,2.37 -3.03,4.6 0.58,2.15 2.68,2.96 4.74,2.5 2.91,-0.65 5.61,-3.19 7.8,-5.1 0.23,-0.21 0.25,-0.55 0.12,-0.81 -0.02,-0.29 -0.19,-0.57 -0.5,-0.63 -2.8,-0.55 -6.31,-1.36 -9.12,-0.57z"/>
    <path class="fil2" d="M17.83 41.63c1.15,0.73 2.24,1.55 3.28,2.42 -2.88,0.56 -8.3,1.32 -8.19,-1.79 0.1,-2.79 3.57,-1.48 4.9,-0.64zm-4.33 4.15c2.84,0.91 6.48,0.05 9.32,-0.51 0.3,-0.06 0.48,-0.34 0.5,-0.63 0.13,-0.26 0.12,-0.6 -0.12,-0.81 -2.15,-1.88 -4.77,-4.33 -7.6,-5.05 -2.1,-0.54 -4.34,0.23 -4.93,2.46 -0.58,2.15 0.83,3.9 2.84,4.54z"/>
    <path class="fil1" d="M73.69 40.36l-2.18 -0.05c-0.19,-0.29 -0.39,-0.57 -0.6,-0.85 -1.4,-1.87 -2.97,-3.5 -4.8,-4.95 -1.88,-1.5 -3.85,-2.49 -6.12,-3.29 -4.41,-1.56 -9.07,-1.77 -13.58,-0.48 -4.45,1.27 -8.23,3.73 -11.21,7.27 -0.41,0.48 -0.78,0.97 -1.14,1.46l-2.26 -0.05c0.53,-0.86 1.12,-1.68 1.75,-2.46 0.24,-1.25 -0.35,-2.57 -1.1,-3.61 -0.39,-0.55 0.39,-1.34 0.94,-0.94 1,0.71 2.27,1.32 3.51,1.14 1.58,-1.31 3.32,-2.41 5.19,-3.22 0.54,-0.23 1.09,-0.45 1.64,-0.65 0.95,-0.98 1.07,-2.48 0.95,-3.79 -0.06,-0.67 1,-0.96 1.28,-0.35 0.55,1.2 1.37,2.4 2.7,2.81 0.27,-0.05 0.53,-0.09 0.8,-0.13 2.34,-0.33 4.52,-0.25 6.82,0.12 1.32,-0.39 2.16,-1.6 2.72,-2.81 0.28,-0.61 1.35,-0.32 1.28,0.35 -0.12,1.3 -0.01,2.74 0.9,3.75 2.43,0.91 4.68,2.21 6.7,3.85 1.28,0.27 2.62,-0.33 3.68,-1.08 0.55,-0.39 1.34,0.39 0.94,0.94 -0.74,1.03 -1.36,2.37 -1.11,3.65 0.86,1.06 1.63,2.18 2.3,3.36z"/>
    <path class="fil2" d="M90.11 30.57c-0.7,-1.22 -2.36,-1.67 -3.58,-0.97 -1.31,0.75 -1.54,2.29 -0.97,3.58 0.83,1.14 2.27,1.72 3.58,0.97 1.22,-0.7 1.67,-2.36 0.97,-3.58zm-5.53 3.57c-0.08,-0.06 -0.15,-0.14 -0.2,-0.26 -0.08,-0.1 -0.11,-0.21 -0.12,-0.31 -0.71,-1.9 -0.32,-4.06 1.58,-5.16 1.86,-1.08 4.39,-0.4 5.47,1.46 1.05,1.81 0.44,4.21 -1.28,5.34 -1.91,1.26 -4.09,0.55 -5.44,-1.07z"/>
    <path class="fil2" d="M75.09 18.17c0.7,-1.22 0.25,-2.88 -0.97,-3.58 -1.22,-0.7 -2.88,-0.26 -3.58,0.97 -0.76,1.31 -0.18,2.75 0.96,3.58 1.29,0.57 2.83,0.35 3.58,-0.97zm-4.28 2.15c-0.12,-0.05 -0.2,-0.12 -0.26,-0.2 -1.56,-1.29 -2.3,-3.37 -1.2,-5.27 1.08,-1.86 3.61,-2.54 5.47,-1.46 1.81,1.05 2.48,3.42 1.55,5.27 -1.03,2.04 -3.27,2.52 -5.25,1.78 -0.1,-0.01 -0.2,-0.05 -0.31,-0.12z"/>
    <path class="fil2" d="M52.29 13.98c1.4,-0.15 2.62,-1.11 2.62,-2.62 0,-1.41 -1.22,-2.62 -2.62,-2.62 -1.41,0 -2.63,1.21 -2.63,2.62 0,1.51 1.22,2.47 2.63,2.62zm0 -6.63c2.09,0 3.86,1.72 3.98,3.79 0.13,2.28 -1.57,3.82 -3.65,4.17 -0.09,0.04 -0.2,0.06 -0.33,0.05 -0.13,0.01 -0.24,-0.01 -0.33,-0.05 -2,-0.34 -3.68,-1.76 -3.68,-3.96 0,-2.15 1.85,-4 4,-4z"/>
    <path class="fil2" d="M29.5 18.17c0.75,1.31 2.29,1.54 3.58,0.97 1.14,-0.83 1.72,-2.27 0.97,-3.58 -0.7,-1.22 -2.37,-1.67 -3.58,-0.97 -1.22,0.7 -1.67,2.36 -0.97,3.58zm-1.19 0.69c-1.08,-1.86 -0.4,-4.39 1.46,-5.47 1.81,-1.05 4.2,-0.44 5.34,1.28 1.25,1.91 0.55,4.09 -1.07,5.44 -0.06,0.08 -0.14,0.15 -0.26,0.2 -0.1,0.08 -0.21,0.11 -0.31,0.12 -1.9,0.71 -4.06,0.32 -5.16,-1.58z"/>
    <path class="fil2" d="M15.44 34.15c1.31,0.76 2.75,0.18 3.58,-0.97 0.57,-1.29 0.35,-2.83 -0.97,-3.58 -1.22,-0.7 -2.88,-0.25 -3.58,0.97 -0.7,1.22 -0.26,2.88 0.97,3.58zm3.12 -5.82c2.04,1.03 2.52,3.27 1.78,5.25 -0.01,0.1 -0.05,0.2 -0.12,0.31 -0.05,0.12 -0.12,0.2 -0.2,0.26 -1.29,1.56 -3.36,2.3 -5.27,1.2 -1.86,-1.08 -2.54,-3.61 -1.46,-5.47 1.05,-1.81 3.42,-2.48 5.27,-1.55z"/>
    <path class="fil2" d="M80 36.4c0.97,1.33 3.12,0.18 2.27,-1.3 -0.85,-1.48 -2.94,-0.21 -2.27,1.3zm-0.21 -2.98c1.25,-0.72 2.95,-0.28 3.67,0.98 0.7,1.21 0.3,2.84 -0.87,3.59 -1.25,0.8 -2.65,0.39 -3.56,-0.63 -0.09,-0.06 -0.16,-0.14 -0.22,-0.27 -0.08,-0.11 -0.12,-0.22 -0.12,-0.32 -0.41,-1.24 -0.14,-2.64 1.1,-3.35z"/>
    <path class="fil2" d="M68.29 24.69c1.5,0.67 2.79,-1.42 1.3,-2.27 -1.48,-0.85 -2.64,1.3 -1.3,2.27zm2 -3.46c1.21,0.7 1.67,2.31 1.03,3.55 -0.68,1.32 -2.1,1.66 -3.4,1.22 -0.1,-0.01 -0.21,-0.04 -0.33,-0.12 -0.12,-0.06 -0.21,-0.13 -0.27,-0.22 -0.98,-0.87 -1.43,-2.22 -0.71,-3.45 0.73,-1.25 2.42,-1.71 3.67,-0.98z"/>
    <path class="fil2" d="M52.29 20.41c1.63,-0.18 1.71,-2.62 0,-2.62 -1.71,0 -1.64,2.44 0,2.62zm0 -4c1.4,0 2.61,1.16 2.67,2.56 0.07,1.48 -0.99,2.49 -2.33,2.76 -0.09,0.05 -0.21,0.07 -0.34,0.05 -0.14,0.01 -0.25,-0.01 -0.34,-0.05 -1.28,-0.26 -2.35,-1.2 -2.34,-2.63 0.01,-1.44 1.24,-2.69 2.69,-2.69z"/>
    <path class="fil2" d="M34.99 22.42c-1.48,0.85 -0.21,2.94 1.3,2.27 1.33,-0.97 0.18,-3.12 -1.3,-2.27zm2.27 3.24c-0.06,0.09 -0.14,0.16 -0.27,0.22 -0.11,0.08 -0.22,0.12 -0.33,0.12 -1.24,0.42 -2.64,0.14 -3.35,-1.1 -0.72,-1.25 -0.28,-2.94 0.98,-3.67 1.21,-0.7 2.84,-0.3 3.6,0.87 0.8,1.25 0.39,2.65 -0.63,3.56z"/>
    <path class="fil2" d="M24.58 36.4c0.67,-1.5 -1.42,-2.79 -2.27,-1.3 -0.85,1.48 1.3,2.64 2.27,1.3zm-2.48 1.67c-1.24,-0.73 -1.71,-2.42 -0.98,-3.67 0.7,-1.21 2.31,-1.67 3.55,-1.03 1.32,0.68 1.65,2.11 1.22,3.4 -0.01,0.1 -0.04,0.21 -0.12,0.32 -0.06,0.13 -0.13,0.21 -0.22,0.27 -0.87,0.98 -2.22,1.43 -3.45,0.71z"/>
    <path class="fil2" d="M75.81 38.82c0.39,0.53 1.24,0.08 0.91,-0.51 -0.33,-0.6 -1.18,-0.09 -0.91,0.51zm-0.5 -1.9c0.89,-0.51 2.08,-0.2 2.6,0.69 0.5,0.86 0.21,2.02 -0.63,2.55 -0.88,0.55 -1.86,0.27 -2.49,-0.44 -0.07,-0.05 -0.13,-0.12 -0.17,-0.2 -0.09,-0.12 -0.12,-0.24 -0.13,-0.35 -0.24,-0.84 -0.02,-1.77 0.82,-2.25z"/>
    <path class="fil2" d="M66.39 27.98c-0.59,-0.34 -1.05,0.52 -0.52,0.91 0.6,0.27 1.1,-0.56 0.52,-0.91zm1.42 1.34c-0.47,0.89 -1.4,1.13 -2.28,0.89 -0.11,-0 -0.23,-0.04 -0.35,-0.13 -0.08,-0.04 -0.15,-0.1 -0.21,-0.17 -0.68,-0.61 -0.99,-1.56 -0.48,-2.43 0.52,-0.88 1.71,-1.21 2.6,-0.69 0.86,0.5 1.19,1.65 0.72,2.52z"/>
    <path class="fil2" d="M52.29 25.24c0.65,-0.07 0.68,-1.03 0,-1.04 -0.68,-0.01 -0.65,0.98 0,1.04zm0 -2.42c1,0 1.85,0.83 1.89,1.82 0.04,1.04 -0.69,1.74 -1.63,1.93 -0.08,0.04 -0.17,0.05 -0.27,0.05 -0.1,0.01 -0.19,-0.01 -0.27,-0.05 -0.89,-0.19 -1.64,-0.85 -1.63,-1.85 0.01,-1.02 0.87,-1.9 1.9,-1.9z"/>
    <path class="fil2" d="M38.19 27.98c-0.6,0.33 -0.08,1.18 0.52,0.91 0.53,-0.39 0.08,-1.24 -0.52,-0.91zm1.86 -0.56c0.56,0.88 0.27,1.86 -0.44,2.49 -0.05,0.07 -0.12,0.13 -0.2,0.17 -0.12,0.09 -0.24,0.12 -0.35,0.13 -0.84,0.24 -1.77,0.02 -2.25,-0.82 -0.5,-0.89 -0.2,-2.08 0.69,-2.6 0.86,-0.5 2.02,-0.21 2.55,0.63z"/>
    <path class="fil2" d="M28.77 38.82c0.27,-0.6 -0.56,-1.1 -0.91,-0.51 -0.35,0.59 0.52,1.04 0.91,0.51zm0.43 -1.93c0.88,0.47 1.13,1.4 0.89,2.28 -0,0.11 -0.04,0.23 -0.13,0.35 -0.04,0.08 -0.1,0.16 -0.17,0.21 -0.61,0.68 -1.56,0.99 -2.43,0.48 -0.88,-0.52 -1.21,-1.71 -0.69,-2.6 0.5,-0.86 1.65,-1.18 2.53,-0.72z"/>
    <path class="fil2" d="M78.93 27.83c1.34,-0.69 4.05,-2.67 2.33,-4.39 -1.64,-1.64 -3.6,0.83 -4.29,2.14 -0.65,1.23 -1.2,2.52 -1.69,3.83 1.25,-0.46 2.47,-0.98 3.65,-1.59zm-1.51 -5.72c1.55,-1.52 3.87,-1.96 5.5,-0.33 1.57,1.57 1.23,3.8 -0.19,5.35 -2.02,2.2 -5.57,3.27 -8.31,4.21 -0.3,0.1 -0.6,-0.05 -0.76,-0.3 -0.24,-0.16 -0.4,-0.46 -0.3,-0.76 0.92,-2.7 1.97,-6.14 4.06,-8.18z"/>
    <path class="fil2" d="M62.48 12.83c-3.12,0.02 -2.35,5.31 -1.79,8.19 0.87,-1.05 1.7,-2.14 2.43,-3.29 0.46,-0.73 0.89,-1.5 1.03,-2.36 0.18,-1.15 -0.28,-2.55 -1.66,-2.54zm-1.56 10.27c-0.2,0.23 -0.55,0.25 -0.81,0.12 -0.29,-0.02 -0.57,-0.19 -0.63,-0.5 -0.55,-2.8 -1.36,-6.31 -0.57,-9.12 0.59,-2.09 2.37,-3.63 4.6,-3.03 2.15,0.58 2.96,2.68 2.5,4.74 -0.65,2.91 -3.18,5.61 -5.1,7.8z"/>
    <path class="fil2" d="M41.47 17.74c0.73,1.15 1.55,2.24 2.43,3.28 0.55,-2.88 1.32,-8.3 -1.79,-8.19 -2.79,0.1 -1.48,3.57 -0.64,4.9zm-0.39 -7.17c2.15,-0.58 3.9,0.83 4.54,2.84 0.91,2.84 0.05,6.48 -0.51,9.32 -0.06,0.3 -0.34,0.48 -0.63,0.5 -0.26,0.13 -0.6,0.12 -0.81,-0.12 -1.88,-2.15 -4.33,-4.77 -5.05,-7.6 -0.53,-2.1 0.23,-4.34 2.46,-4.93z"/>
    <path class="fil2" d="M27.72 25.77c-0.69,-1.34 -2.67,-4.05 -4.39,-2.33 -1.64,1.64 0.83,3.6 2.15,4.29 1.23,0.65 2.52,1.2 3.83,1.68 -0.46,-1.24 -0.98,-2.47 -1.59,-3.65zm-5.72 1.51c-1.51,-1.55 -1.96,-3.87 -0.33,-5.5 1.57,-1.57 3.8,-1.23 5.35,0.19 2.2,2.02 3.27,5.57 4.21,8.31 0.1,0.3 -0.05,0.6 -0.3,0.76 -0.16,0.25 -0.46,0.4 -0.76,0.3 -2.7,-0.92 -6.14,-1.97 -8.18,-4.06z"/>
   </g>
  </g>
 </g>
</svg>
