<svg width="25" height="29" viewBox="0 0 25 29" fill="none" xmlns="http://www.w3.org/2000/svg">
<g clip-path="url(#clip0_2404_30517)">
<path d="M16.5488 13.6138C14.7755 13.5938 13.0502 14.196 11.6675 15.3177C10.2849 16.4393 9.33042 18.0109 8.96712 19.7642C8.60382 21.5175 8.85419 23.3437 9.67548 24.9313C10.4968 26.5189 11.8381 27.7694 13.4705 28.4694C15.1029 29.1694 16.9252 29.2755 18.6265 28.7695C20.3277 28.2636 21.8023 27.177 22.7987 25.6952C23.7951 24.2134 24.2515 22.4282 24.09 20.6444C23.9285 18.8606 23.1591 17.1887 21.9131 15.914C21.2136 15.1918 20.3795 14.6167 19.4587 14.2219C18.538 13.8271 17.549 13.6204 16.5488 13.6138ZM16.5488 28.3012C15.1727 28.3046 13.8267 27.8953 12.6812 27.1252C11.5357 26.3551 10.6422 25.2589 10.1141 23.9755C9.58599 22.6921 9.44694 21.2792 9.71457 19.9159C9.9822 18.5526 10.6445 17.3001 11.6175 16.3174C12.5905 15.3346 13.8304 14.6656 15.1802 14.3953C16.5299 14.125 17.9287 14.2654 19.1994 14.7989C20.47 15.3323 21.5553 16.2347 22.3177 17.3918C23.0801 18.5488 23.4853 19.9084 23.482 21.2983C23.4842 22.2185 23.3064 23.1302 22.9587 23.9808C22.6111 24.8315 22.1005 25.6044 21.4562 26.2551C20.812 26.9058 20.0468 27.4216 19.2046 27.7727C18.3624 28.1238 17.4599 28.3034 16.5488 28.3012Z" fill="black"/>
<path d="M16.5481 15.9336C15.1373 15.9381 13.7858 16.5074 12.7897 17.5166C11.7937 18.5259 11.2344 19.8928 11.2344 21.3179C11.2344 21.3992 11.2664 21.4772 11.3233 21.5347C11.3803 21.5922 11.4575 21.6245 11.538 21.6245C11.6095 21.6124 11.6743 21.5747 11.7207 21.5185C11.7671 21.4622 11.7921 21.3911 11.7911 21.3179C11.791 20.6923 11.9141 20.0729 12.1531 19.4958C12.3921 18.9187 12.7424 18.3953 13.1834 17.9562C13.6245 17.517 14.1476 17.1708 14.7224 16.9376C15.2971 16.7045 15.912 16.5891 16.5313 16.5981C16.574 16.6006 16.6168 16.5939 16.6568 16.5785C16.6968 16.5631 16.7331 16.5393 16.7633 16.5088C16.7936 16.4782 16.8171 16.4415 16.8324 16.4011C16.8476 16.3607 16.8542 16.3175 16.8518 16.2744C16.8518 16.193 16.8198 16.115 16.7628 16.0575C16.7059 16 16.6287 15.9677 16.5481 15.9677V15.9336Z" fill="black"/>
<path d="M11.5391 8.35028C11.5404 9.46175 11.9771 10.5275 12.7536 11.315C13.139 11.7045 13.5966 12.0135 14.1002 12.2243C14.6039 12.4351 15.1437 12.5436 15.6889 12.5436C16.234 12.5436 16.7739 12.4351 17.2775 12.2243C17.7811 12.0135 18.2387 11.7045 18.6241 11.315C19.199 10.728 19.5895 9.98242 19.7465 9.172C19.9034 8.36158 19.8199 7.52239 19.5063 6.75976C19.1928 5.99712 18.6632 5.34503 17.984 4.88532C17.3049 4.42561 16.5064 4.17877 15.6889 4.17578C14.5912 4.17577 13.5382 4.61504 12.7605 5.39742C11.9827 6.17981 11.5435 7.24157 11.5391 8.35028ZM15.6889 4.82325C16.3778 4.82098 17.0519 5.0256 17.6254 5.41113C18.199 5.79665 18.6462 6.34568 18.9101 6.98846C19.1741 7.63124 19.2429 8.33877 19.1079 9.02115C18.9728 9.70354 18.64 10.33 18.1517 10.8209C17.8372 11.1635 17.4562 11.4371 17.0325 11.6247C16.6088 11.8123 16.1515 11.9099 15.6889 11.9114C14.7664 11.9126 13.881 11.545 13.226 10.8891C12.8875 10.559 12.6211 10.1612 12.4439 9.72104C12.2667 9.28089 12.1826 8.80818 12.197 8.33324C12.2057 7.40022 12.575 6.50757 13.226 5.84558C13.5464 5.51532 13.9299 5.25437 14.3533 5.07862C14.7768 4.90286 15.2311 4.81598 15.6889 4.82325Z" fill="black"/>
<path d="M13.2444 8.00895C13.3255 8.0421 13.4163 8.0421 13.4974 8.00895C13.5353 7.99163 13.5687 7.96571 13.5951 7.93319C13.6214 7.90068 13.6399 7.86246 13.6492 7.82152C13.7262 7.54707 13.8569 7.29103 14.0337 7.06859C14.2104 6.84614 14.4296 6.66182 14.6782 6.52657C14.932 6.38093 15.2125 6.28918 15.5025 6.25695C15.7926 6.22472 16.0862 6.25269 16.3652 6.33915C16.4074 6.36 16.4537 6.37119 16.5008 6.37194C16.5478 6.37269 16.5944 6.36297 16.6373 6.34348C16.6802 6.32398 16.7183 6.29519 16.749 6.25914C16.7796 6.22309 16.802 6.18067 16.8146 6.13489C16.8272 6.08911 16.8297 6.04109 16.8218 5.99424C16.814 5.9474 16.796 5.90287 16.7692 5.86382C16.7424 5.82477 16.7074 5.79215 16.6668 5.76829C16.6261 5.74443 16.5807 5.72991 16.5338 5.72575C16.1834 5.62309 15.8161 5.59282 15.4538 5.63673C15.0915 5.68064 14.7417 5.79784 14.4252 5.98133C13.7806 6.35101 13.3075 6.96374 13.1094 7.68521C13.0917 7.76858 13.1041 7.8556 13.1443 7.93057C13.1845 8.00554 13.2499 8.06355 13.3287 8.09414L13.2444 8.00895Z" fill="black"/>
<path d="M22.623 13.9379C23.2541 13.9369 23.8597 13.6861 24.3099 13.2393C24.76 12.7884 25.0148 12.1757 25.0184 11.5354C25.0185 11.2181 24.9558 10.9039 24.8342 10.6113C24.7125 10.3188 24.5343 10.0537 24.3099 9.83153C23.8578 9.38778 23.2534 9.13752 22.623 9.13294C22.3099 9.12971 21.9993 9.18986 21.7096 9.30985C21.4199 9.42983 21.1569 9.60721 20.9361 9.83153C20.6014 10.1676 20.3733 10.5965 20.2806 11.0639C20.188 11.5313 20.2351 12.0159 20.416 12.4562C20.5969 12.8964 20.9033 13.2724 21.2963 13.5362C21.6893 13.8001 22.1511 13.9399 22.623 13.9379ZM22.623 9.76337C22.8519 9.75973 23.0791 9.80317 23.2908 9.89105C23.5025 9.97893 23.6943 10.1094 23.8545 10.2745C24.0179 10.4363 24.1471 10.6301 24.2341 10.8439C24.3211 11.0577 24.3641 11.2872 24.3605 11.5184C24.3605 11.9838 24.1775 12.4302 23.8516 12.7593C23.5258 13.0885 23.0838 13.2734 22.623 13.2734C22.1622 13.2734 21.7202 13.0885 21.3944 12.7593C21.0685 12.4302 20.8855 11.9838 20.8855 11.5184C20.8819 11.2872 20.9249 11.0577 21.0119 10.8439C21.0989 10.6301 21.2281 10.4363 21.3916 10.2745C21.5518 10.1094 21.7435 9.97893 21.9552 9.89105C22.167 9.80317 22.3942 9.75973 22.623 9.76337Z" fill="black"/>
<path d="M2.4979 26.3093C3.40026 26.9225 4.46365 27.2489 5.5512 27.2464H9.9203C10.0042 27.2469 10.0853 27.2157 10.1477 27.159C10.2101 27.1023 10.2493 27.0241 10.2577 26.9397C10.2577 26.8958 10.2489 26.8522 10.2318 26.8118C10.2146 26.7714 10.1895 26.7349 10.1579 26.7046C10.1263 26.6743 10.089 26.6508 10.0481 26.6356C10.0073 26.6204 9.96379 26.6137 9.9203 26.616H5.5512C4.90443 26.6186 4.26371 26.4903 3.66686 26.2386C3.07001 25.9869 2.52913 25.617 2.07617 25.1507C1.61627 24.6883 1.25135 24.1386 1.00238 23.5334C0.75342 22.9281 0.625314 22.2791 0.625426 21.6236V5.6072C0.625686 4.95435 0.754027 4.30802 1.00303 3.70556C1.25204 3.1031 1.61678 2.55646 2.07617 2.09721C3.00477 1.17544 4.24937 0.65063 5.5512 0.631875H10.6119C11.4708 0.644538 12.3102 0.89183 13.0411 1.3475C13.8091 1.80412 14.4391 2.46399 14.8629 3.25585C14.8825 3.29427 14.9094 3.32835 14.9422 3.3561C14.975 3.38384 15.0129 3.40467 15.0538 3.41737C15.0947 3.43008 15.1376 3.43439 15.1802 3.43006C15.2227 3.42573 15.264 3.41284 15.3015 3.39216C15.374 3.35233 15.4284 3.28583 15.4535 3.20649C15.4787 3.12716 15.4726 3.04109 15.4365 2.96619C14.9518 2.07387 14.2417 1.32722 13.3785 0.802262C12.5202 0.271269 11.5341 -0.0116247 10.5276 -0.015599H5.5512C4.81953 -0.0178487 4.09465 0.126054 3.41825 0.407829C2.74185 0.689604 2.12728 1.10369 1.60991 1.62626C1.09254 2.14884 0.682581 2.76958 0.403612 3.45279C0.124643 4.13599 -0.0178266 4.86817 -0.0155993 5.6072V21.6236C-0.0139544 22.5582 0.218266 23.4775 0.660065 24.2986C1.10186 25.1197 1.73931 25.8166 2.51477 26.3264L2.4979 26.3093Z" fill="black"/>
<path d="M5.24632 4.07266H10.83C11.25 4.07416 11.6561 4.22497 11.9771 4.49863C12.0375 4.55512 12.1176 4.58506 12.1999 4.58186C12.2821 4.57867 12.3598 4.5426 12.4157 4.4816C12.4716 4.42059 12.5013 4.33964 12.4981 4.25656C12.4949 4.17348 12.4592 4.09507 12.3988 4.03859C11.9808 3.62234 11.417 3.38964 10.83 3.39111H5.24632C4.93426 3.38469 4.62411 3.44172 4.33432 3.5588C4.04452 3.67589 3.78099 3.85064 3.55941 4.07266C3.33809 4.29621 3.16298 4.56196 3.04425 4.85447C2.92551 5.14698 2.86553 5.46041 2.86778 5.77654V21.4522C2.86064 21.769 2.9184 22.0839 3.03741 22.3771C3.15643 22.6703 3.33414 22.9355 3.55941 23.1561C3.77839 23.3828 4.04107 23.5618 4.33121 23.6819C4.62135 23.8021 4.9328 23.8609 5.24632 23.8547H8.16467C8.24707 23.8382 8.31975 23.7896 8.36708 23.7195C8.4144 23.6494 8.43258 23.5633 8.41771 23.4798C8.41777 23.4381 8.4094 23.3968 8.39309 23.3584C8.37679 23.32 8.3529 23.2854 8.3229 23.2567C8.29289 23.228 8.25739 23.2058 8.21858 23.1914C8.17977 23.177 8.13847 23.1708 8.0972 23.1731H5.24632C4.79892 23.1731 4.36985 22.9936 4.05349 22.6741C3.73714 22.3545 3.55941 21.9212 3.55941 21.4693V5.79358C3.55813 5.56934 3.60068 5.34705 3.68463 5.13945C3.76857 4.93185 3.89227 4.74304 4.04861 4.58383C4.20624 4.42591 4.39317 4.30097 4.5987 4.21618C4.80423 4.13139 5.02431 4.08841 5.24632 4.0897V4.07266Z" fill="black"/>
</g>
<defs>
<clipPath id="clip0_2404_30517">
<rect width="25" height="29" fill="white"/>
</clipPath>
</defs>
</svg>
