<?xml version="1.0" encoding="utf-8"?>
<!-- Generator: Adobe Illustrator 22.0.0, SVG Export Plug-In . SVG Version: 6.00 Build 0)  -->
<svg version="1.1" id="Layer_1" xmlns="http://www.w3.org/2000/svg" xmlns:xlink="http://www.w3.org/1999/xlink" x="0px" y="0px"
	 width="32px" height="32px" viewBox="0 0 32 32" style="enable-background:new 0 0 32 32;" xml:space="preserve">
<style type="text/css">
	.st0{fill:#16BDC9;}
	.st1{fill:#01959F;}
	.st2{fill:#FFFFFF;}
	.st3{fill:#F15F59;}
	.st4{fill:#00BAC6;}
	.st5{fill:none;stroke:#000000;stroke-linecap:round;stroke-linejoin:round;stroke-miterlimit:10;}
	.st6{fill:none;stroke:#01959F;stroke-linecap:round;stroke-miterlimit:10;}
	.st7{fill:none;stroke:#000000;stroke-linecap:round;stroke-miterlimit:10;}
	.st8{fill:none;stroke:#FFFFFF;stroke-linecap:round;stroke-miterlimit:10;}
	.st9{fill:none;stroke:#00BAC6;stroke-linecap:round;stroke-linejoin:round;stroke-miterlimit:10;}
	.st10{fill:none;stroke:#00BAC6;stroke-linecap:round;stroke-miterlimit:10;}
	.st11{fill:none;stroke:#F15F59;stroke-linecap:round;stroke-miterlimit:10;}
	.st12{fill:none;stroke:#000000;stroke-width:0.5;stroke-linecap:round;stroke-linejoin:round;}
	.st13{fill:none;stroke:#000000;stroke-width:0.5;stroke-linecap:round;stroke-linejoin:round;stroke-dasharray:1.832,0.916;}
	.st14{fill:none;stroke:#000000;stroke-width:0.5;stroke-linecap:round;stroke-linejoin:round;stroke-dasharray:1.8563,0.9281;}
	.st15{fill:none;stroke:#000000;stroke-width:0.5;stroke-linecap:round;stroke-linejoin:round;stroke-dasharray:1.6782,0.8391;}
	.st16{fill:none;stroke:#000000;stroke-width:0.5;stroke-linecap:round;stroke-linejoin:round;stroke-dasharray:1.1219,0.5609;}
	
		.st17{fill:none;stroke:#000000;stroke-width:0.5;stroke-linecap:round;stroke-linejoin:round;stroke-miterlimit:10;stroke-dasharray:2,1;}
	
		.st18{fill:none;stroke:#000000;stroke-width:0.5;stroke-linecap:round;stroke-linejoin:round;stroke-miterlimit:10;stroke-dasharray:1,1;}
	.st19{fill:none;stroke:#000000;stroke-width:0.5;stroke-linecap:round;stroke-linejoin:round;stroke-dasharray:0.9564,0.9564;}
	.st20{fill:none;stroke:#000000;stroke-width:0.5;stroke-linecap:round;stroke-linejoin:round;stroke-dasharray:1.0454,1.0454;}
	.st21{fill:none;stroke:#000000;stroke-width:0.5;stroke-linecap:round;stroke-linejoin:round;stroke-dasharray:1.0251,1.0251;}
	.st22{fill:none;stroke:#000000;stroke-width:0.5;stroke-linecap:round;stroke-linejoin:round;stroke-dasharray:1.1555,1.1555;}
</style>
<g>
	<path d="M21.1,21.1c0-0.1,0.1-0.1,0.1-0.2c0-0.1-0.1-0.2-0.2-0.2c-0.6-1.4-1-3.4-0.1-5.9c0.8-2.3,0.8-4.1,0.5-5.4l0.3-0.2
		c0.2-0.1,0.3-0.2,0.4-0.4c0.1-0.1,0.3-0.3,0.4-0.4c0.1-0.2,0.2-0.3,0.3-0.5c0.1-0.2,0.1-0.4,0.2-0.6c0-0.2,0.1-0.4,0.1-0.6
		c0-0.2,0-0.4-0.1-0.6c0-0.2-0.1-0.4-0.2-0.6c-0.1-0.2-0.2-0.3-0.3-0.5c-0.1-0.2-0.2-0.3-0.4-0.4c-0.1-0.1-0.3-0.3-0.4-0.4
		c-0.2-0.1-0.3-0.2-0.5-0.3c-0.2-0.1-0.4-0.1-0.6-0.2c-0.4-0.1-0.8-0.1-1.2,0c-0.2,0-0.4,0.1-0.6,0.2c-0.2,0.1-0.3,0.2-0.5,0.3
		c-0.2,0.1-0.3,0.2-0.4,0.4c-0.1,0.1-0.2,0.3-0.3,0.4L3.7,22.2c-0.1,0.1-0.1,0.3-0.1,0.4l-1.1,1.1c-0.1,0.1-0.1,0.3,0,0.4
		c0,0,0.1,0.1,0.2,0.1c0.1,0,0.1,0,0.2-0.1L4,23c0,0,0.1,0,0.1,0c0.1,0,0.2,0,0.3-0.1l16.1-12.8c0.2,1.1,0.1,2.5-0.5,4.3
		c-1,2.7-0.6,4.9,0,6.4c-0.3,0.1-0.7,0.2-1,0.3c-0.1,0-0.2,0.2-0.2,0.3c0,0.1,0.1,0.2,0.2,0.2c0,0,0,0,0.1,0
		c0.3-0.1,0.7-0.2,1.1-0.3c0.6,1.2,1.3,1.9,1.3,2c0.1,0.1,0.2,0.1,0.4,0.1s0.3,0,0.4-0.1c0.2-0.2,0.2-0.5,0-0.7
		C22.2,22.6,21.6,22.1,21.1,21.1z M7.3,19.3l11-13.7c0,0,0,0,0,0c0.1-0.1,0.1-0.2,0.2-0.3c0.1-0.1,0.2-0.2,0.3-0.2
		C19,5,19.1,5,19.2,4.9c0.1,0,0.2-0.1,0.4-0.1s0.3,0,0.4,0c0.1,0,0.3,0,0.4,0c0.1,0,0.3,0.1,0.4,0.1C20.9,5,21,5,21.1,5.1
		c0.1,0.1,0.2,0.2,0.3,0.2c0.1,0.1,0.2,0.2,0.2,0.3c0.1,0.1,0.1,0.2,0.2,0.3c0,0.1,0.1,0.2,0.1,0.4c0,0.1,0,0.3,0,0.4s0,0.3,0,0.4
		c0,0.1-0.1,0.3-0.1,0.4c0,0.1-0.1,0.2-0.2,0.3c-0.1,0.1-0.1,0.2-0.2,0.3c-0.1,0.1-0.2,0.2-0.3,0.3l-0.1,0c-0.2-0.6-0.5-1-0.7-1.3
		L21,6.5c0.2-0.2,0.2-0.5,0-0.7s-0.5-0.2-0.7,0l-0.9,0.9c-0.1,0-0.1,0.1-0.2,0.1c0,0-0.1,0.1-0.1,0.2l-0.9,0.9C18,8,18,8.3,18.2,8.5
		c0.1,0.1,0.2,0.1,0.4,0.1s0.3,0,0.4-0.1l0.6-0.6c0.2,0.3,0.4,0.7,0.6,1.2L7.3,19.3z"/>
	<path d="M10.6,26.5c-0.6,0.3-1.2,0.5-1.8,0.7c-0.1,0-0.2,0.2-0.2,0.3c0,0.1,0.1,0.2,0.2,0.2c0,0,0,0,0.1,0c0.7-0.2,1.3-0.4,1.9-0.7
		c0.1-0.1,0.2-0.2,0.1-0.3C10.8,26.5,10.7,26.5,10.6,26.5z"/>
	<path d="M2.3,25.6c0-0.2,0-0.5,0.1-0.7c0-0.1,0-0.3-0.2-0.3c-0.1,0-0.3,0-0.3,0.2c-0.1,0.3-0.1,0.6-0.1,0.8c0,0.4,0.1,0.9,0.3,1.3
		c0,0.1,0.1,0.1,0.2,0.1c0,0,0.1,0,0.1,0c0.1-0.1,0.2-0.2,0.1-0.3C2.4,26.3,2.3,25.9,2.3,25.6z"/>
	<path d="M4.9,27.7H4.5c-0.5,0-0.9-0.2-1.3-0.4c-0.1-0.1-0.3-0.1-0.4,0c-0.1,0.1-0.1,0.3,0,0.4c0.5,0.4,1,0.5,1.6,0.5h0.4
		c0.1,0,0.3-0.1,0.3-0.3S5,27.7,4.9,27.7z"/>
	<path d="M7.8,27.5c-0.6,0.1-1.3,0.2-1.9,0.2c-0.1,0-0.2,0.1-0.2,0.3c0,0.1,0.1,0.2,0.3,0.2c0,0,0,0,0,0c0.7,0,1.4-0.1,2-0.3
		c0.1,0,0.2-0.2,0.2-0.3S7.9,27.5,7.8,27.5z"/>
	<path d="M13,24.9c-0.5,0.4-1,0.8-1.6,1.1c-0.1,0.1-0.2,0.2-0.1,0.3c0,0.1,0.1,0.1,0.2,0.1c0,0,0.1,0,0.1,0c0.6-0.4,1.1-0.8,1.7-1.2
		c0.1-0.1,0.1-0.2,0-0.4C13.3,24.8,13.1,24.8,13,24.9z"/>
	<path d="M30,20.6h-2c-0.1,0-0.3,0.1-0.3,0.3s0.1,0.3,0.3,0.3h2c0.1,0,0.3-0.1,0.3-0.3S30.1,20.6,30,20.6z"/>
	<path d="M27,20.6h-2c-0.1,0-0.3,0.1-0.3,0.3s0.1,0.3,0.3,0.3h2c0.1,0,0.3-0.1,0.3-0.3S27.1,20.6,27,20.6z"/>
	<path d="M15.3,22.9c-0.6,0.4-1.1,0.8-1.6,1.3c-0.1,0.1-0.1,0.3,0,0.4c0,0,0.1,0.1,0.2,0.1c0.1,0,0.1,0,0.2-0.1
		c0.5-0.5,1-0.9,1.5-1.3c0.1-0.1,0.1-0.2,0.1-0.3C15.6,22.9,15.4,22.9,15.3,22.9z"/>
	<path d="M24,20.6h-1.3c-0.3,0-0.5,0-0.8,0c-0.1,0-0.2,0.1-0.2,0.3c0,0.1,0.1,0.2,0.2,0.2c0,0,0,0,0,0c0.2,0,0.5,0,0.7,0H24
		c0.1,0,0.3-0.1,0.3-0.3S24.1,20.6,24,20.6z"/>
	<path d="M18,21.5c-0.6,0.3-1.2,0.6-1.8,0.9c-0.1,0.1-0.2,0.2-0.1,0.3c0,0.1,0.1,0.1,0.2,0.1c0,0,0.1,0,0.1,0
		c0.6-0.3,1.1-0.6,1.8-0.9c0.1-0.1,0.2-0.2,0.1-0.3C18.3,21.5,18.1,21.4,18,21.5z"/>
</g>
</svg>
