<?xml version="1.0" encoding="utf-8"?>
<!-- Generator: Adobe Illustrator 22.0.0, SVG Export Plug-In . SVG Version: 6.00 Build 0)  -->
<svg version="1.1" id="Layer_1" xmlns="http://www.w3.org/2000/svg" xmlns:xlink="http://www.w3.org/1999/xlink" x="0px" y="0px"
	 width="32px" height="32px" viewBox="0 0 32 32" style="enable-background:new 0 0 32 32;" xml:space="preserve">
<style type="text/css">
	.st0{fill:#16BDC9;}
	.st1{fill:#01959F;}
	.st2{fill:#FFFFFF;}
	.st3{fill:#F15F59;}
	.st4{fill:#00BAC6;}
	.st5{fill:none;stroke:#000000;stroke-linecap:round;stroke-linejoin:round;stroke-miterlimit:10;}
	.st6{fill:none;stroke:#01959F;stroke-linecap:round;stroke-miterlimit:10;}
	.st7{fill:none;stroke:#000000;stroke-linecap:round;stroke-miterlimit:10;}
	.st8{fill:none;stroke:#FFFFFF;stroke-linecap:round;stroke-miterlimit:10;}
	.st9{fill:none;stroke:#00BAC6;stroke-linecap:round;stroke-linejoin:round;stroke-miterlimit:10;}
	.st10{fill:none;stroke:#00BAC6;stroke-linecap:round;stroke-miterlimit:10;}
	.st11{fill:none;stroke:#F15F59;stroke-linecap:round;stroke-miterlimit:10;}
	.st12{fill:none;stroke:#000000;stroke-width:0.5;stroke-linecap:round;stroke-linejoin:round;}
	.st13{fill:none;stroke:#000000;stroke-width:0.5;stroke-linecap:round;stroke-linejoin:round;stroke-dasharray:1.832,0.916;}
	.st14{fill:none;stroke:#000000;stroke-width:0.5;stroke-linecap:round;stroke-linejoin:round;stroke-dasharray:1.8563,0.9281;}
	.st15{fill:none;stroke:#000000;stroke-width:0.5;stroke-linecap:round;stroke-linejoin:round;stroke-dasharray:1.6782,0.8391;}
	.st16{fill:none;stroke:#000000;stroke-width:0.5;stroke-linecap:round;stroke-linejoin:round;stroke-dasharray:1.1219,0.5609;}
	
		.st17{fill:none;stroke:#000000;stroke-width:0.5;stroke-linecap:round;stroke-linejoin:round;stroke-miterlimit:10;stroke-dasharray:2,1;}
	
		.st18{fill:none;stroke:#000000;stroke-width:0.5;stroke-linecap:round;stroke-linejoin:round;stroke-miterlimit:10;stroke-dasharray:1,1;}
	.st19{fill:none;stroke:#000000;stroke-width:0.5;stroke-linecap:round;stroke-linejoin:round;stroke-dasharray:0.9564,0.9564;}
	.st20{fill:none;stroke:#000000;stroke-width:0.5;stroke-linecap:round;stroke-linejoin:round;stroke-dasharray:1.0454,1.0454;}
	.st21{fill:none;stroke:#000000;stroke-width:0.5;stroke-linecap:round;stroke-linejoin:round;stroke-dasharray:1.0251,1.0251;}
	.st22{fill:none;stroke:#000000;stroke-width:0.5;stroke-linecap:round;stroke-linejoin:round;stroke-dasharray:1.1555,1.1555;}
</style>
<g>
	<path d="M23.9,13.6c-0.4-1.5-1.1-3-2.2-4.3c0,0,0-0.1-0.1-0.1c0.2-0.4,0.5-0.8,0.9-1.2c0.1-0.1,0.1-0.3,0-0.4
		c-0.1-0.1-0.3-0.1-0.4,0c-0.4,0.3-0.7,0.7-0.9,1.1c0,0-0.1-0.1-0.1-0.1c-1-1-2.1-1.7-3.3-2.2c0,0,0,0,0,0c0,0,0,0,0,0
		C14.1,5,9.7,5.8,6.7,8.8c-0.5,0.5-0.9,1-1.3,1.6c0,0,0,0,0,0c-0.9,1.4-1.5,3-1.6,4.7c0,0,0,0,0,0.1c-0.1,1.6,0.1,3.2,0.7,4.7
		c0,0,0,0,0,0c0,0,0,0,0,0c0.5,1.2,1.2,2.4,2.2,3.4c0.1,0.1,0.2,0.2,0.3,0.3c0,0,0.1,0.1,0.1,0.1c1.9,1.7,4.4,2.6,6.8,2.6
		c2.6,0,5.2-1,7.2-3c2.6-2.6,3.5-6.2,2.7-9.5C23.9,13.7,23.9,13.6,23.9,13.6z M8.4,23.3c2.1-0.9,4.9-2.4,7.7-5.2
		c2.7-2.7,4.4-5.5,5.3-7.6c0.7,1,1.2,2.1,1.5,3.2c-1.2,2.4-2.7,4.6-4.7,6.5c-2,2-4.2,3.6-6.6,4.7C10.4,24.6,9.3,24.1,8.4,23.3z
		 M13.9,6.8c1,0,2.1,0.2,3,0.5C16.6,8.1,16.1,9,15.5,10c-2.8-0.3-5.7-0.3-8.6,0c0.2-0.2,0.3-0.4,0.5-0.5C9.2,7.7,11.6,6.8,13.9,6.8z
		 M4.7,15.5c0.7-0.2,1.4-0.3,2.1-0.4c1.5-0.2,3-0.3,4.4-0.2C9,17,6.8,18.3,5.2,19C4.8,17.9,4.7,16.7,4.7,15.5z M12.3,14
		c-1.8-0.1-3.7-0.1-5.5,0.2c-0.6,0.1-1.3,0.2-1.9,0.3c0.2-1.2,0.6-2.3,1.3-3.4c0.2,0,0.4-0.1,0.6-0.1c2.7-0.4,5.5-0.4,8.1-0.1
		C14.1,11.9,13.3,13,12.3,14z M5.6,19.9c1.9-0.8,4.6-2.4,7.2-5c1.4-1.4,2.5-2.8,3.4-4.1c0,0,0,0,0,0c0.8-1.1,1.3-2.2,1.7-3.1
		c0.9,0.4,1.8,1,2.6,1.8c0.1,0.1,0.1,0.1,0.1,0.2c-0.8,2-2.4,4.9-5.3,7.8c-2.9,2.9-5.8,4.4-7.9,5.2c0,0-0.1,0-0.1-0.1
		C6.6,21.7,6,20.9,5.6,19.9z M20.5,22.5c-2,2-4.7,2.9-7.3,2.7c2-1.1,3.9-2.5,5.7-4.2c1.7-1.7,3.1-3.6,4.3-5.6
		C23.3,17.9,22.4,20.6,20.5,22.5z"/>
	<path d="M27.2,9.3c0,0.5-0.1,1-0.2,1.6L27,11.3c0,0.1,0.1,0.3,0.2,0.3c0,0,0,0,0,0c0.1,0,0.2-0.1,0.2-0.2l0.1-0.4
		c0.1-0.6,0.2-1.1,0.2-1.6c0-0.1-0.1-0.3-0.2-0.3C27.3,9.1,27.2,9.2,27.2,9.3z"/>
	<path d="M28.2,15.8c-0.2-0.2-0.3-0.5-0.5-0.7c-0.1-0.1-0.2-0.2-0.3-0.1c-0.1,0.1-0.2,0.2-0.1,0.3c0.1,0.3,0.3,0.6,0.5,0.8
		c0,0.1,0.1,0.1,0.2,0.1c0.1,0,0.1,0,0.2-0.1C28.3,16.1,28.3,16,28.2,15.8z"/>
	<path d="M27.4,8.6C27.4,8.6,27.4,8.6,27.4,8.6c0.2-0.1,0.3-0.2,0.2-0.3c-0.2-0.5-0.4-0.9-0.9-1.2c-0.2-0.1-0.4-0.3-0.6-0.4
		c-0.1-0.1-0.3,0-0.3,0.1c-0.1,0.1,0,0.3,0.1,0.3c0.2,0.1,0.3,0.2,0.5,0.3c0.3,0.3,0.6,0.6,0.7,1C27.2,8.5,27.3,8.6,27.4,8.6z"/>
	<path d="M27.4,14.2c-0.1-0.4-0.1-0.8-0.1-1.2c0-0.2,0-0.5,0-0.7c0-0.1-0.1-0.3-0.2-0.3c-0.2,0-0.3,0.1-0.3,0.2c0,0.3,0,0.5,0,0.8
		c0,0.5,0.1,0.9,0.2,1.3c0,0.1,0.1,0.2,0.2,0.2c0,0,0,0,0.1,0C27.4,14.5,27.5,14.4,27.4,14.2z"/>
	<path d="M25,6.5c-0.6,0-1.3,0.2-2,0.6c-0.1,0.1-0.2,0.2-0.1,0.3c0,0.1,0.1,0.1,0.2,0.1c0,0,0.1,0,0.1,0C23.9,7.2,24.5,7,25,7
		c0,0,0,0,0,0l0-0.3L25,6.5C25,6.5,25,6.5,25,6.5z"/>
</g>
</svg>
