<?xml version="1.0" encoding="utf-8"?>
<!-- Generator: Adobe Illustrator 22.0.0, SVG Export Plug-In . SVG Version: 6.00 Build 0)  -->
<svg version="1.1" id="Layer_1" xmlns="http://www.w3.org/2000/svg" xmlns:xlink="http://www.w3.org/1999/xlink" x="0px" y="0px"
	 width="32px" height="32px" viewBox="0 0 32 32" style="enable-background:new 0 0 32 32;" xml:space="preserve">
<style type="text/css">
	.st0{fill:#16BDC9;}
	.st1{fill:#01959F;}
	.st2{fill:#FFFFFF;}
	.st3{fill:#F15F59;}
	.st4{fill:#00BAC6;}
	.st5{fill:none;stroke:#000000;stroke-linecap:round;stroke-linejoin:round;stroke-miterlimit:10;}
	.st6{fill:none;stroke:#01959F;stroke-linecap:round;stroke-miterlimit:10;}
	.st7{fill:none;stroke:#000000;stroke-linecap:round;stroke-miterlimit:10;}
	.st8{fill:none;stroke:#FFFFFF;stroke-linecap:round;stroke-miterlimit:10;}
	.st9{fill:none;stroke:#00BAC6;stroke-linecap:round;stroke-linejoin:round;stroke-miterlimit:10;}
	.st10{fill:none;stroke:#00BAC6;stroke-linecap:round;stroke-miterlimit:10;}
	.st11{fill:none;stroke:#F15F59;stroke-linecap:round;stroke-miterlimit:10;}
	.st12{fill:none;stroke:#000000;stroke-width:0.5;stroke-linecap:round;stroke-linejoin:round;}
	.st13{fill:none;stroke:#000000;stroke-width:0.5;stroke-linecap:round;stroke-linejoin:round;stroke-dasharray:1.832,0.916;}
	.st14{fill:none;stroke:#000000;stroke-width:0.5;stroke-linecap:round;stroke-linejoin:round;stroke-dasharray:1.8563,0.9281;}
	.st15{fill:none;stroke:#000000;stroke-width:0.5;stroke-linecap:round;stroke-linejoin:round;stroke-dasharray:1.6782,0.8391;}
	.st16{fill:none;stroke:#000000;stroke-width:0.5;stroke-linecap:round;stroke-linejoin:round;stroke-dasharray:1.1219,0.5609;}
	
		.st17{fill:none;stroke:#000000;stroke-width:0.5;stroke-linecap:round;stroke-linejoin:round;stroke-miterlimit:10;stroke-dasharray:2,1;}
	
		.st18{fill:none;stroke:#000000;stroke-width:0.5;stroke-linecap:round;stroke-linejoin:round;stroke-miterlimit:10;stroke-dasharray:1,1;}
	.st19{fill:none;stroke:#000000;stroke-width:0.5;stroke-linecap:round;stroke-linejoin:round;stroke-dasharray:0.9564,0.9564;}
	.st20{fill:none;stroke:#000000;stroke-width:0.5;stroke-linecap:round;stroke-linejoin:round;stroke-dasharray:1.0454,1.0454;}
	.st21{fill:none;stroke:#000000;stroke-width:0.5;stroke-linecap:round;stroke-linejoin:round;stroke-dasharray:1.0251,1.0251;}
	.st22{fill:none;stroke:#000000;stroke-width:0.5;stroke-linecap:round;stroke-linejoin:round;stroke-dasharray:1.1555,1.1555;}
</style>
<g>
	<path d="M27.9,15.6l-5.8-5.8l0,0l-5.8-5.8c-0.2-0.2-0.5-0.2-0.7,0L9.9,9.9l-5.8,5.8c-0.2,0.2-0.2,0.5,0,0.7l5.8,5.8l0,0l5.8,5.8
		C15.7,28,15.9,28,16,28s0.3,0,0.4-0.1l5.8-5.8l5.8-5.8C28.1,16.2,28.1,15.8,27.9,15.6z M16,5.2l5.1,5.1l-2.3,2.3l-1-1
		c-0.1-0.1-0.3-0.1-0.4,0s-0.1,0.3,0,0.4l1,1L16,15.3l-2.4-2.4l1.3-1.3c0.1-0.1,0.1-0.3,0-0.4s-0.3-0.1-0.4,0l-1.3,1.3L11,10.2
		L16,5.2z M10.2,11l2.4,2.4c-0.1,0-0.2,0-0.2,0.1L11,14.8c-0.1,0.1-0.1,0.3,0,0.4c0,0,0.1,0.1,0.2,0.1s0.1,0,0.2-0.1l1.4-1.4
		c0.1-0.1,0.1-0.1,0.1-0.2l2.4,2.4l-2.4,2.4l-0.7-0.7c-0.1-0.1-0.3-0.1-0.4,0s-0.1,0.3,0,0.4l0.7,0.7l-2.3,2.3L5.2,16L10.2,11z
		 M16,26.8l-5-5l2.3-2.3c0,0,0.1,0.1,0.2,0.1c0.1,0,0.1,0,0.2-0.1c0.1-0.1,0.1-0.2,0-0.3l2.4-2.4l2.4,2.4l-0.3,0.3
		c-0.1,0.1-0.1,0.3,0,0.4c0,0,0.1,0.1,0.2,0.1s0.1,0,0.2-0.1l0.3-0.3l2.3,2.3L16,26.8z M21.8,21l-2.3-2.3l0.5-0.5
		c0.1-0.1,0.1-0.3,0-0.4s-0.3-0.1-0.4,0l-0.5,0.5L16.7,16l5.1-5.1l5,5L21.8,21z"/>
	<path d="M15.6,11l0.4-0.4l0.6,0.6c0,0,0.1,0.1,0.2,0.1s0.1,0,0.2-0.1c0.1-0.1,0.1-0.3,0-0.4L16.2,10c-0.1-0.1-0.3-0.1-0.4,0
		l-0.6,0.6c-0.1,0.1-0.1,0.3,0,0.4S15.5,11.1,15.6,11z"/>
	<path d="M11.3,17.4c0.1,0,0.1,0,0.2-0.1c0.1-0.1,0.1-0.3,0-0.4L10.5,16l0.1-0.1c0.1-0.1,0.1-0.3,0-0.4s-0.3-0.1-0.4,0L10,15.9
		c-0.1,0.1-0.1,0.3,0,0.4l1.1,1.1C11.2,17.4,11.2,17.4,11.3,17.4z"/>
	<path d="M21.6,15.8c-0.1,0.1-0.1,0.1-0.1,0.2l-1.3,1.3c-0.1,0.1-0.1,0.3,0,0.4c0,0,0.1,0.1,0.2,0.1s0.1,0,0.2-0.1l1.4-1.4
		c0.1-0.1,0.1-0.3,0-0.4L22,15.8C21.9,15.7,21.7,15.7,21.6,15.8z"/>
	<path d="M21.1,15.5c0.1,0,0.1,0,0.2-0.1c0.1-0.1,0.1-0.3,0-0.4l-1.4-1.4c-0.1-0.1-0.3-0.1-0.4,0s-0.1,0.3,0,0.4l1.4,1.4
		C21,15.5,21,15.5,21.1,15.5z"/>
	<path d="M14.3,19.8c-0.1-0.1-0.3-0.1-0.4,0s-0.1,0.3,0,0.4l1.4,1.4c0,0,0.1,0.1,0.2,0.1s0.1,0,0.2-0.1c0.1-0.1,0.1-0.3,0-0.4
		L14.3,19.8z"/>
	<path d="M17.5,20.1l-1.4,1.4c-0.1,0.1-0.1,0.3,0,0.4c0,0,0.1,0.1,0.2,0.1s0.1,0,0.2-0.1l1.4-1.4c0.1-0.1,0.1-0.3,0-0.4
		S17.6,20,17.5,20.1z"/>
</g>
</svg>
