<?xml version="1.0" encoding="utf-8"?>
<!-- Generator: Adobe Illustrator 22.0.0, SVG Export Plug-In . SVG Version: 6.00 Build 0)  -->
<svg version="1.1" id="Layer_1" xmlns="http://www.w3.org/2000/svg" xmlns:xlink="http://www.w3.org/1999/xlink" x="0px" y="0px"
	 width="32px" height="32px" viewBox="0 0 32 32" style="enable-background:new 0 0 32 32;" xml:space="preserve">
<style type="text/css">
	.st0{fill:#16BDC9;}
	.st1{fill:#01959F;}
	.st2{fill:#FFFFFF;}
	.st3{fill:#F15F59;}
	.st4{fill:#00BAC6;}
	.st5{fill:none;stroke:#000000;stroke-linecap:round;stroke-linejoin:round;stroke-miterlimit:10;}
	.st6{fill:none;stroke:#01959F;stroke-linecap:round;stroke-miterlimit:10;}
	.st7{fill:none;stroke:#000000;stroke-linecap:round;stroke-miterlimit:10;}
	.st8{fill:none;stroke:#FFFFFF;stroke-linecap:round;stroke-miterlimit:10;}
	.st9{fill:none;stroke:#00BAC6;stroke-linecap:round;stroke-linejoin:round;stroke-miterlimit:10;}
	.st10{fill:none;stroke:#00BAC6;stroke-linecap:round;stroke-miterlimit:10;}
	.st11{fill:none;stroke:#F15F59;stroke-linecap:round;stroke-miterlimit:10;}
	.st12{fill:none;stroke:#000000;stroke-width:0.5;stroke-linecap:round;stroke-linejoin:round;}
	.st13{fill:none;stroke:#000000;stroke-width:0.5;stroke-linecap:round;stroke-linejoin:round;stroke-dasharray:1.832,0.916;}
	.st14{fill:none;stroke:#000000;stroke-width:0.5;stroke-linecap:round;stroke-linejoin:round;stroke-dasharray:1.8563,0.9281;}
	.st15{fill:none;stroke:#000000;stroke-width:0.5;stroke-linecap:round;stroke-linejoin:round;stroke-dasharray:1.6782,0.8391;}
	.st16{fill:none;stroke:#000000;stroke-width:0.5;stroke-linecap:round;stroke-linejoin:round;stroke-dasharray:1.1219,0.5609;}
	
		.st17{fill:none;stroke:#000000;stroke-width:0.5;stroke-linecap:round;stroke-linejoin:round;stroke-miterlimit:10;stroke-dasharray:2,1;}
	
		.st18{fill:none;stroke:#000000;stroke-width:0.5;stroke-linecap:round;stroke-linejoin:round;stroke-miterlimit:10;stroke-dasharray:1,1;}
	.st19{fill:none;stroke:#000000;stroke-width:0.5;stroke-linecap:round;stroke-linejoin:round;stroke-dasharray:0.9564,0.9564;}
	.st20{fill:none;stroke:#000000;stroke-width:0.5;stroke-linecap:round;stroke-linejoin:round;stroke-dasharray:1.0454,1.0454;}
	.st21{fill:none;stroke:#000000;stroke-width:0.5;stroke-linecap:round;stroke-linejoin:round;stroke-dasharray:1.0251,1.0251;}
	.st22{fill:none;stroke:#000000;stroke-width:0.5;stroke-linecap:round;stroke-linejoin:round;stroke-dasharray:1.1555,1.1555;}
</style>
<g>
	<path d="M24.8,7l1,1.4c0,0.1,0.1,0.1,0.2,0.1c0,0,0.1,0,0.1,0c0.1-0.1,0.1-0.2,0.1-0.3l-1-1.4c-0.1-0.1-0.1-0.2-0.2-0.3
		c-0.1-0.1-0.3-0.1-0.4,0s-0.1,0.3,0,0.4C24.7,6.9,24.7,6.9,24.8,7z"/>
	<path d="M22,6.4C22,6.4,22,6.4,22,6.4l0.8-0.2c0.3-0.1,0.7,0,1,0.1c0.1,0,0.3,0,0.3-0.1c0-0.1,0-0.3-0.1-0.3
		c-0.4-0.2-0.9-0.2-1.3-0.1L22,5.9c-0.1,0-0.2,0.2-0.2,0.3C21.8,6.3,21.9,6.4,22,6.4z"/>
	<path d="M27.5,10.8c0,0.1,0.1,0.1,0.2,0.1c0,0,0.1,0,0.1,0c0.1-0.1,0.1-0.2,0.1-0.3l-1.2-1.6c-0.1-0.1-0.2-0.1-0.3-0.1
		c-0.1,0.1-0.1,0.2-0.1,0.3L27.5,10.8z"/>
	<path d="M29.6,13l-1.2-1.6c-0.1-0.1-0.2-0.1-0.3-0.1c-0.1,0.1-0.1,0.2-0.1,0.3l1.2,1.6c0,0.1,0.1,0.1,0.2,0.1c0,0,0.1,0,0.1,0
		C29.7,13.3,29.7,13.1,29.6,13z"/>
	<path d="M30.2,13.8L30.2,13.8c-0.1-0.1-0.2-0.2-0.4-0.1c-0.1,0.1-0.1,0.3,0,0.4c0.1,0.2,0.2,0.4,0.2,0.6c0,0.3-0.2,0.6-0.4,0.8
		c-0.1,0.1-0.1,0.2,0,0.4c0,0.1,0.1,0.1,0.2,0.1c0.1,0,0.1,0,0.2-0.1c0.4-0.3,0.6-0.7,0.6-1.2C30.5,14.4,30.4,14.1,30.2,13.8z"/>
	<path d="M28.8,15.8h-1.3c0.1-0.3,0.2-0.6,0.2-0.9c0-1.5-1-2.7-2.5-2.9l-5.2-0.8c0.3-0.6,0.5-1.3,0.5-2c0-0.8-0.2-1.6-0.6-2.2
		l1.3-0.3c0.1,0,0.2-0.2,0.2-0.3c0-0.1-0.2-0.2-0.3-0.2l-1.6,0.3c-0.8-1-2-1.7-3.4-1.7s-2.6,0.7-3.4,1.7L11,6.1
		c-0.1,0-0.3,0.1-0.3,0.2c0,0.1,0.1,0.3,0.2,0.3l1.3,0.3c-0.4,0.7-0.6,1.4-0.6,2.2c0,0.7,0.2,1.4,0.5,2l-5.2,0.8
		c-1.4,0.2-2.5,1.5-2.5,2.9c0,0.3,0.1,0.6,0.2,0.9H3.2c-0.1,0-0.3,0.1-0.3,0.3s0.1,0.3,0.3,0.3h1.5c0.2,0.4,0.4,0.7,0.8,0.9
		c0.5,0.4,1.2,0.7,1.9,0.7c0.2,0,0.4,0,0.6-0.1l3.1-0.7l-2.3,6.5c-0.3,0.9-0.2,1.8,0.4,2.5c0.5,0.7,1.4,1.2,2.3,1.2h9.1
		c0.9,0,1.7-0.4,2.3-1.2c0.5-0.7,0.7-1.7,0.4-2.5l-2.3-6.5l3.1,0.7c0.2,0,0.4,0.1,0.6,0.1c0.7,0,1.3-0.2,1.9-0.7
		c0.3-0.3,0.6-0.6,0.8-0.9h1.5c0.1,0,0.3-0.1,0.3-0.3S28.9,15.8,28.8,15.8z M16,5.8c1.9,0,3.4,1.5,3.4,3.4s-1.5,3.4-3.4,3.4
		s-3.4-1.5-3.4-3.4S14.1,5.8,16,5.8z M7.8,16.8c-0.6,0.1-1.2,0-1.7-0.4s-0.7-0.9-0.7-1.5c0-1,0.7-1.8,1.7-2l5.7-0.9
		c0,0,0.1,0.1,0.1,0.1L11.5,16L7.8,16.8z M22,25.5c-0.3,0.5-0.9,0.8-1.5,0.8h-9.1c-0.6,0-1.1-0.3-1.5-0.8c-0.3-0.5-0.4-1.1-0.2-1.6
		l3.9-11.1c0.7,0.4,1.5,0.7,2.3,0.7s1.7-0.3,2.3-0.7l3.9,11.1C22.4,24.4,22.3,25,22,25.5z M25.9,16.4c-0.5,0.4-1.1,0.5-1.7,0.4
		L20.5,16l-1.3-3.8c0,0,0.1-0.1,0.1-0.1l5.7,0.9c1,0.2,1.7,1,1.7,2C26.6,15.5,26.4,16,25.9,16.4z"/>
	<path d="M3.9,11.3c-0.1-0.1-0.3-0.1-0.3,0.1L2.4,13c-0.1,0.1-0.1,0.3,0.1,0.3c0,0,0.1,0,0.1,0c0.1,0,0.2,0,0.2-0.1l1.2-1.6
		C4,11.5,4,11.4,3.9,11.3z"/>
	<path d="M6,8.5c0.1,0,0.2,0,0.2-0.1l1-1.4c0-0.1,0.1-0.1,0.2-0.2c0.1-0.1,0.1-0.3,0-0.4C7.3,6.3,7.1,6.4,7,6.5
		C6.9,6.5,6.9,6.6,6.8,6.7l-1,1.4C5.8,8.2,5.8,8.4,5.9,8.5C5.9,8.5,6,8.5,6,8.5z"/>
	<path d="M4.3,10.9c0.1,0,0.2,0,0.2-0.1l1.2-1.6c0.1-0.1,0.1-0.3-0.1-0.3C5.5,8.8,5.3,8.8,5.3,8.9l-1.2,1.6C4,10.7,4,10.8,4.2,10.9
		C4.2,10.9,4.3,10.9,4.3,10.9z"/>
	<path d="M2,14.7c0-0.2,0.1-0.4,0.2-0.6l0,0L2,14l-0.2-0.1c-0.2,0.3-0.3,0.6-0.3,0.9c0,0.5,0.2,0.9,0.6,1.2c0,0,0.1,0.1,0.2,0.1
		c0.1,0,0.2,0,0.2-0.1c0.1-0.1,0.1-0.3,0-0.4C2.1,15.4,2,15,2,14.7z"/>
	<path d="M8.1,6.3c0.3-0.1,0.7-0.1,1-0.1l0.8,0.2c0,0,0,0,0.1,0c0.1,0,0.2-0.1,0.2-0.2c0-0.1-0.1-0.3-0.2-0.3L9.3,5.7
		C8.8,5.7,8.4,5.7,7.9,5.8C7.8,5.9,7.7,6,7.8,6.2S8,6.4,8.1,6.3z"/>
</g>
</svg>
