<?xml version="1.0" encoding="utf-8"?>
<!-- Generator: Adobe Illustrator 22.0.0, SVG Export Plug-In . SVG Version: 6.00 Build 0)  -->
<svg version="1.1" id="Layer_1" xmlns="http://www.w3.org/2000/svg" xmlns:xlink="http://www.w3.org/1999/xlink" x="0px" y="0px"
	 width="32px" height="32px" viewBox="0 0 32 32" style="enable-background:new 0 0 32 32;" xml:space="preserve">
<style type="text/css">
	.st0{fill:#16BDC9;}
	.st1{fill:#01959F;}
	.st2{fill:#FFFFFF;}
	.st3{fill:#F15F59;}
	.st4{fill:#00BAC6;}
	.st5{fill:none;stroke:#000000;stroke-linecap:round;stroke-linejoin:round;stroke-miterlimit:10;}
	.st6{fill:none;stroke:#01959F;stroke-linecap:round;stroke-miterlimit:10;}
	.st7{fill:none;stroke:#000000;stroke-linecap:round;stroke-miterlimit:10;}
	.st8{fill:none;stroke:#FFFFFF;stroke-linecap:round;stroke-miterlimit:10;}
	.st9{fill:none;stroke:#00BAC6;stroke-linecap:round;stroke-linejoin:round;stroke-miterlimit:10;}
	.st10{fill:none;stroke:#00BAC6;stroke-linecap:round;stroke-miterlimit:10;}
	.st11{fill:none;stroke:#F15F59;stroke-linecap:round;stroke-miterlimit:10;}
	.st12{fill:none;stroke:#000000;stroke-width:0.5;stroke-linecap:round;stroke-linejoin:round;}
	.st13{fill:none;stroke:#000000;stroke-width:0.5;stroke-linecap:round;stroke-linejoin:round;stroke-dasharray:1.832,0.916;}
	.st14{fill:none;stroke:#000000;stroke-width:0.5;stroke-linecap:round;stroke-linejoin:round;stroke-dasharray:1.8563,0.9281;}
	.st15{fill:none;stroke:#000000;stroke-width:0.5;stroke-linecap:round;stroke-linejoin:round;stroke-dasharray:1.6782,0.8391;}
	.st16{fill:none;stroke:#000000;stroke-width:0.5;stroke-linecap:round;stroke-linejoin:round;stroke-dasharray:1.1219,0.5609;}
	
		.st17{fill:none;stroke:#000000;stroke-width:0.5;stroke-linecap:round;stroke-linejoin:round;stroke-miterlimit:10;stroke-dasharray:2,1;}
	
		.st18{fill:none;stroke:#000000;stroke-width:0.5;stroke-linecap:round;stroke-linejoin:round;stroke-miterlimit:10;stroke-dasharray:1,1;}
	.st19{fill:none;stroke:#000000;stroke-width:0.5;stroke-linecap:round;stroke-linejoin:round;stroke-dasharray:0.9564,0.9564;}
	.st20{fill:none;stroke:#000000;stroke-width:0.5;stroke-linecap:round;stroke-linejoin:round;stroke-dasharray:1.0454,1.0454;}
	.st21{fill:none;stroke:#000000;stroke-width:0.5;stroke-linecap:round;stroke-linejoin:round;stroke-dasharray:1.0251,1.0251;}
	.st22{fill:none;stroke:#000000;stroke-width:0.5;stroke-linecap:round;stroke-linejoin:round;stroke-dasharray:1.1555,1.1555;}
</style>
<g>
	<path d="M26,11.9l-5.8-6.8C20.1,5,20,4.9,19.8,4.9h-7.7c-0.1,0-0.3,0.1-0.4,0.2L6,11.9c-0.1,0.2-0.2,0.4,0,0.6l9.7,14.4
		c0.1,0.1,0.2,0.2,0.4,0.2s0.3-0.1,0.4-0.2l9.7-14.4C26.2,12.3,26.2,12,26,11.9z M12.4,5.9h3l-0.5,0.9c-0.1,0.1,0,0.3,0.1,0.3
		c0,0,0.1,0,0.1,0c0.1,0,0.2,0,0.2-0.1L16,5.9h3.6l5.2,6h-0.5c-0.1,0-0.3,0.1-0.3,0.3s0.1,0.3,0.3,0.3h0.6l-8.2,12.1
		c0-0.1-0.1-0.2-0.2-0.2c-0.1,0-0.3,0-0.3,0.2l-0.3,1l-0.3-1c0-0.1-0.2-0.2-0.3-0.2c-0.1,0-0.1,0.1-0.2,0.2L7.1,12.4h1.2
		c0.1,0,0.3-0.1,0.3-0.3s-0.1-0.3-0.3-0.3H7.2L12.4,5.9z"/>
	<path d="M15.3,12.4h2c0.1,0,0.3-0.1,0.3-0.3s-0.1-0.3-0.3-0.3h-2c-0.1,0-0.3,0.1-0.3,0.3S15.2,12.4,15.3,12.4z"/>
	<path d="M9.3,12.4h2c0.1,0,0.3-0.1,0.3-0.3s-0.1-0.3-0.3-0.3h-2c-0.1,0-0.3,0.1-0.3,0.3S9.2,12.4,9.3,12.4z"/>
	<path d="M21.3,12.4h2c0.1,0,0.3-0.1,0.3-0.3s-0.1-0.3-0.3-0.3h-2c-0.1,0-0.3,0.1-0.3,0.3S21.2,12.4,21.3,12.4z"/>
	<path d="M19.4,11.9h-1.1c-0.1,0-0.3,0.1-0.3,0.3s0.1,0.3,0.3,0.3h2c0.1,0,0.3-0.1,0.3-0.3s-0.1-0.3-0.3-0.3H20l-0.2-0.3
		c-0.1-0.1-0.2-0.2-0.3-0.1c-0.1,0.1-0.2,0.2-0.1,0.3L19.4,11.9z"/>
	<path d="M18.9,11c0,0.1,0.1,0.1,0.2,0.1c0,0,0.1,0,0.1,0c0.1-0.1,0.2-0.2,0.1-0.3l-1-1.7c-0.1-0.1-0.2-0.2-0.3-0.1
		c-0.1,0.1-0.2,0.2-0.1,0.3L18.9,11z"/>
	<path d="M13.6,9.8c0.1,0,0.2,0,0.2-0.1l1-1.7c0.1-0.1,0-0.3-0.1-0.3c-0.1-0.1-0.3,0-0.3,0.1l-1,1.7c-0.1,0.1,0,0.3,0.1,0.3
		C13.6,9.8,13.6,9.8,13.6,9.8z"/>
	<path d="M17.4,8.4c0,0.1,0.1,0.1,0.2,0.1c0,0,0.1,0,0.1,0c0.1-0.1,0.2-0.2,0.1-0.3l-1-1.7c-0.1-0.1-0.2-0.2-0.3-0.1
		c-0.1,0.1-0.2,0.2-0.1,0.3L17.4,8.4z"/>
	<path d="M12.2,12.4c0,0,0.1,0,0.1,0c0,0,0,0,0.1,0h2c0.1,0,0.3-0.1,0.3-0.3s-0.1-0.3-0.3-0.3h-1.7l0.8-1.4c0.1-0.1,0-0.3-0.1-0.3
		c-0.1-0.1-0.3,0-0.3,0.1l-1,1.7c-0.1,0.1,0,0.3,0.1,0.3C12.1,12.4,12.1,12.4,12.2,12.4z"/>
	<path d="M13.9,17.8l-0.5-1.9c0-0.1-0.2-0.2-0.3-0.2c-0.1,0-0.2,0.2-0.2,0.3l0.5,1.9c0,0.1,0.1,0.2,0.2,0.2c0,0,0,0,0.1,0
		C13.9,18.1,14,17.9,13.9,17.8z"/>
	<path d="M14.7,20.7l-0.5-1.9c0-0.1-0.2-0.2-0.3-0.2c-0.1,0-0.2,0.2-0.2,0.3l0.5,1.9c0,0.1,0.1,0.2,0.2,0.2c0,0,0,0,0.1,0
		C14.7,21,14.7,20.8,14.7,20.7z"/>
	<path d="M13.1,14.9L12.6,13c0-0.1-0.2-0.2-0.3-0.2c-0.1,0-0.2,0.2-0.2,0.3l0.5,1.9c0,0.1,0.1,0.2,0.2,0.2c0,0,0,0,0.1,0
		C13.1,15.2,13.2,15,13.1,14.9z"/>
	<path d="M14.6,21.5c-0.1,0-0.2,0.2-0.2,0.3l0.5,1.9c0,0.1,0.1,0.2,0.2,0.2c0,0,0,0,0.1,0c0.1,0,0.2-0.2,0.2-0.3L15,21.7
		C14.9,21.5,14.8,21.5,14.6,21.5z"/>
	<path d="M19.7,12.8c-0.1,0-0.3,0-0.3,0.2l-0.5,1.9c0,0.1,0,0.3,0.2,0.3c0,0,0,0,0.1,0c0.1,0,0.2-0.1,0.2-0.2l0.5-1.9
		C19.9,13,19.8,12.8,19.7,12.8z"/>
	<path d="M17.4,21.5c-0.1,0-0.3,0-0.3,0.2l-0.5,1.9c0,0.1,0,0.3,0.2,0.3c0,0,0,0,0.1,0c0.1,0,0.2-0.1,0.2-0.2l0.5-1.9
		C17.6,21.7,17.5,21.5,17.4,21.5z"/>
	<path d="M18.9,15.7c-0.1,0-0.3,0-0.3,0.2l-0.5,1.9c0,0.1,0,0.3,0.2,0.3c0,0,0,0,0.1,0c0.1,0,0.2-0.1,0.2-0.2l0.5-1.9
		C19.1,15.9,19,15.7,18.9,15.7z"/>
	<path d="M18.1,18.6c-0.1,0-0.3,0-0.3,0.2l-0.5,1.9c0,0.1,0,0.3,0.2,0.3c0,0,0,0,0.1,0c0.1,0,0.2-0.1,0.2-0.2l0.5-1.9
		C18.3,18.8,18.3,18.6,18.1,18.6z"/>
</g>
</svg>
