<?xml version="1.0" encoding="utf-8"?>
<!-- Generator: Adobe Illustrator 22.0.0, SVG Export Plug-In . SVG Version: 6.00 Build 0)  -->
<svg version="1.1" id="Layer_1" xmlns="http://www.w3.org/2000/svg" xmlns:xlink="http://www.w3.org/1999/xlink" x="0px" y="0px"
	 width="32px" height="32px" viewBox="0 0 32 32" style="enable-background:new 0 0 32 32;" xml:space="preserve">
<style type="text/css">
	.st0{fill:#16BDC9;}
	.st1{fill:#01959F;}
	.st2{fill:#FFFFFF;}
	.st3{fill:#F15F59;}
	.st4{fill:#00BAC6;}
	.st5{fill:none;stroke:#000000;stroke-linecap:round;stroke-linejoin:round;stroke-miterlimit:10;}
	.st6{fill:none;stroke:#01959F;stroke-linecap:round;stroke-miterlimit:10;}
	.st7{fill:none;stroke:#000000;stroke-linecap:round;stroke-miterlimit:10;}
	.st8{fill:none;stroke:#FFFFFF;stroke-linecap:round;stroke-miterlimit:10;}
	.st9{fill:none;stroke:#00BAC6;stroke-linecap:round;stroke-linejoin:round;stroke-miterlimit:10;}
	.st10{fill:none;stroke:#00BAC6;stroke-linecap:round;stroke-miterlimit:10;}
	.st11{fill:none;stroke:#F15F59;stroke-linecap:round;stroke-miterlimit:10;}
	.st12{fill:none;stroke:#000000;stroke-width:0.5;stroke-linecap:round;stroke-linejoin:round;}
	.st13{fill:none;stroke:#000000;stroke-width:0.5;stroke-linecap:round;stroke-linejoin:round;stroke-dasharray:1.832,0.916;}
	.st14{fill:none;stroke:#000000;stroke-width:0.5;stroke-linecap:round;stroke-linejoin:round;stroke-dasharray:1.8563,0.9281;}
	.st15{fill:none;stroke:#000000;stroke-width:0.5;stroke-linecap:round;stroke-linejoin:round;stroke-dasharray:1.6782,0.8391;}
	.st16{fill:none;stroke:#000000;stroke-width:0.5;stroke-linecap:round;stroke-linejoin:round;stroke-dasharray:1.1219,0.5609;}
	
		.st17{fill:none;stroke:#000000;stroke-width:0.5;stroke-linecap:round;stroke-linejoin:round;stroke-miterlimit:10;stroke-dasharray:2,1;}
	
		.st18{fill:none;stroke:#000000;stroke-width:0.5;stroke-linecap:round;stroke-linejoin:round;stroke-miterlimit:10;stroke-dasharray:1,1;}
	.st19{fill:none;stroke:#000000;stroke-width:0.5;stroke-linecap:round;stroke-linejoin:round;stroke-dasharray:0.9564,0.9564;}
	.st20{fill:none;stroke:#000000;stroke-width:0.5;stroke-linecap:round;stroke-linejoin:round;stroke-dasharray:1.0454,1.0454;}
	.st21{fill:none;stroke:#000000;stroke-width:0.5;stroke-linecap:round;stroke-linejoin:round;stroke-dasharray:1.0251,1.0251;}
	.st22{fill:none;stroke:#000000;stroke-width:0.5;stroke-linecap:round;stroke-linejoin:round;stroke-dasharray:1.1555,1.1555;}
</style>
<g>
	<path d="M27.9,11.3c-0.1-0.4-0.2-0.9-0.4-1.3c-0.2-0.4-0.4-0.8-0.6-1.1c-0.2-0.4-0.5-0.7-0.8-1c-0.3-0.3-0.6-0.6-1-0.8
		c-0.4-0.2-0.7-0.5-1.1-0.6C23.5,6.3,23,6.1,22.6,6c-0.7-0.1-1.5-0.2-2.2-0.1c-0.3,0-0.6,0.1-0.8,0.2S19,6.3,18.7,6.4
		S18.2,6.6,18,6.8c-0.2,0.1-0.5,0.3-0.7,0.4s-0.4,0.3-0.6,0.5c-0.2,0.2-0.4,0.4-0.6,0.6c0,0,0,0.1-0.1,0.1c0,0,0-0.1-0.1-0.1
		c-0.2-0.2-0.4-0.4-0.6-0.6c-0.2-0.2-0.4-0.4-0.6-0.5S14.3,6.9,14,6.8c-0.2-0.1-0.5-0.3-0.8-0.4c-0.3-0.1-0.5-0.2-0.8-0.3
		C12.2,6.1,11.9,6,11.6,6C10.9,5.9,10.1,5.9,9.4,6C9,6.1,8.5,6.3,8.1,6.4C7.7,6.6,7.3,6.8,7,7.1C6.6,7.3,6.3,7.6,6,7.9
		c-0.3,0.3-0.6,0.6-0.8,1C4.9,9.2,4.7,9.6,4.5,10c-0.2,0.4-0.3,0.8-0.4,1.3C4,11.7,4,12.2,4,12.7c0,0.5,0,0.9,0.1,1.4
		c0.1,0.4,0.2,0.9,0.4,1.3c0.2,0.4,0.4,0.8,0.6,1.1c0.2,0.4,0.5,0.7,0.8,1l9.7,8.5c0.1,0.1,0.2,0.1,0.3,0.1s0.2,0,0.3-0.1l9.7-8.5
		c0.3-0.3,0.6-0.6,0.8-1c0.2-0.4,0.5-0.7,0.6-1.1c0.2-0.4,0.3-0.8,0.4-1.3c0.1-0.4,0.1-0.9,0.1-1.4S28,11.7,27.9,11.3z M26.5,14.9
		c-0.1,0.3-0.3,0.5-0.4,0.8h-0.2c-0.1,0-0.3,0.1-0.3,0.3c0,0.1,0.1,0.2,0.1,0.2c-0.2,0.2-0.3,0.4-0.5,0.6l-1.5,1.4v-0.4
		c0-0.1-0.1-0.3-0.3-0.3s-0.3,0.1-0.3,0.3v0.8l-0.6,0.6h0c-0.1,0-0.2,0.1-0.2,0.2L20,21.4v-0.2c0-0.1-0.1-0.3-0.3-0.3
		s-0.3,0.1-0.3,0.3v0.7l-0.7,0.6c-0.1,0-0.2,0.1-0.2,0.2l-2.3,2v-0.1c0-0.1-0.1-0.3-0.3-0.3s-0.3,0.1-0.3,0.3v0.1l-3.2-2.8v-0.7
		c0-0.1-0.1-0.3-0.3-0.3S12,21.1,12,21.2v0.2l-2.5-2.2c0,0-0.1-0.1-0.1-0.1l-0.7-0.6v-0.8c0-0.1-0.1-0.3-0.3-0.3s-0.3,0.1-0.3,0.3
		v0.4l-1.5-1.3c-0.2-0.2-0.3-0.4-0.5-0.6c0.1,0,0.1-0.1,0.1-0.2c0-0.1-0.1-0.3-0.3-0.3H5.9c-0.2-0.3-0.3-0.5-0.4-0.8
		c-0.1-0.3-0.3-0.7-0.3-1.1C5,13.5,5,13.1,5,12.8c0.1,0,0.2-0.1,0.2-0.2c0-0.1-0.1-0.2-0.2-0.2c0-0.3,0-0.5,0.1-0.8
		c0.1-0.4,0.2-0.7,0.3-1.1c0.1-0.3,0.3-0.7,0.5-1c0,0,0,0,0,0h0.6c0.1,0,0.3-0.1,0.3-0.3S6.7,8.9,6.6,8.9H6.4
		c0.1-0.1,0.2-0.2,0.3-0.3c0.3-0.3,0.5-0.5,0.9-0.7c0.3-0.2,0.6-0.4,1-0.5C8.9,7.2,9.2,7.1,9.6,7c0.4-0.1,0.8-0.1,1.2-0.1
		c0.3,0,0.5,0,0.7,0c0.2,0,0.4,0.1,0.6,0.1c0,0-0.1,0.1-0.1,0.1v1c0,0.1,0.1,0.3,0.3,0.3s0.3-0.1,0.3-0.3v-1c0.1,0,0.3,0.1,0.4,0.1
		c0.2,0.1,0.4,0.2,0.6,0.3c0.2,0.1,0.4,0.2,0.6,0.4s0.4,0.3,0.5,0.4C14.9,8.6,15,8.8,15.2,9c0.1,0.1,0.1,0.2,0.2,0.2
		c0,0.1,0.1,0.1,0.1,0.2c0,0.1,0.1,0.1,0.1,0.2c0.1,0.1,0.1,0.1,0.2,0.2c0,0.1,0.1,0.1,0.2,0.1c0.1,0,0.2-0.1,0.2-0.1
		c0.1,0,0.2-0.1,0.2-0.2c0,0,0.1-0.1,0.1-0.1h0.1c0.1,0,0.3-0.1,0.3-0.3c0,0,0-0.1,0-0.1c0,0,0-0.1,0.1-0.1c0.1-0.2,0.3-0.3,0.5-0.5
		c0.2-0.2,0.4-0.3,0.5-0.4s0.4-0.3,0.6-0.4c0.2-0.1,0.4-0.2,0.6-0.3c0.1,0,0.3-0.1,0.4-0.1v1c0,0.1,0.1,0.3,0.3,0.3S20,8.3,20,8.2
		v-1c0,0,0-0.1-0.1-0.1C20.1,7,20.3,7,20.5,7c0.6-0.1,1.3-0.1,1.9,0.1c0.4,0.1,0.7,0.2,1.1,0.3c0.3,0.1,0.7,0.3,1,0.5
		c0.3,0.2,0.6,0.4,0.9,0.7c0.1,0.1,0.2,0.2,0.3,0.3h0c-0.1,0-0.3,0.1-0.3,0.3s0.1,0.3,0.3,0.3H26c0,0,0,0,0,0c0.2,0.3,0.4,0.6,0.5,1
		c0.1,0.3,0.3,0.7,0.3,1.1c0.1,0.3,0.1,0.5,0.1,0.8c-0.1,0-0.2,0.1-0.2,0.2c0,0.1,0.1,0.2,0.2,0.2c0,0.3,0,0.7-0.1,1
		C26.8,14.2,26.7,14.6,26.5,14.9z"/>
	<path d="M19.5,9.4v0.8c0,0.1,0.1,0.3,0.3,0.3s0.3-0.1,0.3-0.3V9.4h0.6c0.1,0,0.3-0.1,0.3-0.3s-0.1-0.3-0.3-0.3h-1
		c-0.1,0-0.3,0.1-0.3,0.3C19.3,9.3,19.4,9.3,19.5,9.4z"/>
	<path d="M13.6,9.4h1c0.1,0,0.3-0.1,0.3-0.3s-0.1-0.3-0.3-0.3h-1c-0.1,0-0.3,0.1-0.3,0.3S13.4,9.4,13.6,9.4z"/>
	<path d="M11.6,9.4H12v0.8c0,0.1,0.1,0.3,0.3,0.3s0.3-0.1,0.3-0.3V9.4h0c0.1,0,0.3-0.1,0.3-0.3s-0.1-0.3-0.3-0.3h-1
		c-0.1,0-0.3,0.1-0.3,0.3S11.4,9.4,11.6,9.4z"/>
	<path d="M7.6,9.4h1c0.1,0,0.3-0.1,0.3-0.3S8.7,8.9,8.6,8.9h0c0.1,0,0.2-0.1,0.2-0.2v-1c0-0.1-0.1-0.3-0.3-0.3S8.2,7.5,8.2,7.7v1
		c0,0.1,0.1,0.2,0.2,0.2H7.6C7.4,8.9,7.3,9,7.3,9.2S7.4,9.4,7.6,9.4z"/>
	<path d="M9.6,9.4h1c0.1,0,0.3-0.1,0.3-0.3s-0.1-0.3-0.3-0.3h-1C9.4,8.9,9.3,9,9.3,9.2S9.4,9.4,9.6,9.4z"/>
	<path d="M17.6,9.4h1c0.1,0,0.3-0.1,0.3-0.3s-0.1-0.3-0.3-0.3h-1c-0.1,0-0.3,0.1-0.3,0.3S17.4,9.4,17.6,9.4z"/>
	<path d="M21.6,9.4h1c0.1,0,0.3-0.1,0.3-0.3s-0.1-0.3-0.3-0.3h-1c-0.1,0-0.3,0.1-0.3,0.3S21.4,9.4,21.6,9.4z"/>
	<path d="M17.4,12.8h1c0.1,0,0.3-0.1,0.3-0.3s-0.1-0.3-0.3-0.3h-1c-0.1,0-0.3,0.1-0.3,0.3S17.3,12.8,17.4,12.8z"/>
	<path d="M9.8,12.3c-0.1,0-0.3,0.1-0.3,0.3s0.1,0.3,0.3,0.3h1c0.1,0,0.3-0.1,0.3-0.3s-0.1-0.3-0.3-0.3H9.8z"/>
	<path d="M12.5,12.3c0,0,0-0.1,0-0.1v-1c0-0.1-0.1-0.3-0.3-0.3S12,11.1,12,11.2v1c0,0,0,0.1,0,0.1h-0.4c-0.1,0-0.3,0.1-0.3,0.3
		s0.1,0.3,0.3,0.3h1c0.1,0,0.3-0.1,0.3-0.3s-0.1-0.3-0.3-0.3H12.5z"/>
	<path d="M9.1,12.5c0-0.1-0.1-0.3-0.3-0.3H8.7v-0.6c0-0.1-0.1-0.3-0.3-0.3s-0.3,0.1-0.3,0.3v0.6H7.9c-0.1,0-0.3,0.1-0.3,0.3
		s0.1,0.3,0.3,0.3h0.4c0,0.1,0.1,0.1,0.2,0.1s0.2-0.1,0.2-0.1h0.2C9,12.8,9.1,12.7,9.1,12.5z"/>
	<path d="M21.3,12.8h1c0.1,0,0.3-0.1,0.3-0.3s-0.1-0.3-0.3-0.3h-1c-0.1,0-0.3,0.1-0.3,0.3S21.1,12.8,21.3,12.8z"/>
	<path d="M26,12.3h-1c-0.1,0-0.3,0.1-0.3,0.3s0.1,0.3,0.3,0.3h1c0.1,0,0.3-0.1,0.3-0.3S26.2,12.3,26,12.3z"/>
	<path d="M19.3,12.8h1c0.1,0,0.3-0.1,0.3-0.3s-0.1-0.3-0.3-0.3h-0.4c0,0,0-0.1,0-0.1v-1c0-0.1-0.1-0.3-0.3-0.3s-0.3,0.1-0.3,0.3v1
		c0,0,0,0.1,0,0.1h-0.2c-0.1,0-0.3,0.1-0.3,0.3S19.2,12.8,19.3,12.8z"/>
	<path d="M15.5,12.8h0.2v0.8c0,0.1,0.1,0.3,0.3,0.3s0.3-0.1,0.3-0.3v-0.8h0.2c0.1,0,0.3-0.1,0.3-0.3s-0.1-0.3-0.3-0.3h-1
		c-0.1,0-0.3,0.1-0.3,0.3S15.4,12.8,15.5,12.8z"/>
	<path d="M14.6,12.3h-1c-0.1,0-0.3,0.1-0.3,0.3s0.1,0.3,0.3,0.3h1c0.1,0,0.3-0.1,0.3-0.3S14.7,12.3,14.6,12.3z"/>
	<path d="M7.2,12.5c0-0.1-0.1-0.3-0.3-0.3H6c-0.1,0-0.3,0.1-0.3,0.3s0.1,0.3,0.3,0.3h1C7.1,12.8,7.2,12.7,7.2,12.5z"/>
	<path d="M23.5,8.9c-0.1,0-0.2,0.1-0.2,0.2c0,0.1,0.1,0.3,0.3,0.3h1c0.1,0,0.3-0.1,0.3-0.3s-0.1-0.3-0.3-0.3L23.5,8.9
		c0.2,0,0.3-0.1,0.3-0.2v-1c0-0.1-0.1-0.3-0.3-0.3s-0.3,0.1-0.3,0.3v1C23.3,8.8,23.4,8.9,23.5,8.9z"/>
	<path d="M23.5,10.9c0.1,0,0.3-0.1,0.3-0.3v-1c0-0.1-0.1-0.3-0.3-0.3s-0.3,0.1-0.3,0.3v1C23.3,10.8,23.4,10.9,23.5,10.9z"/>
	<path d="M23.5,12.9c0.1,0,0.2-0.1,0.2-0.1h0.4c0.1,0,0.3-0.1,0.3-0.3s-0.1-0.3-0.3-0.3h-0.3v-0.6c0-0.1-0.1-0.3-0.3-0.3
		s-0.3,0.1-0.3,0.3v0.6h-0.1c-0.1,0-0.3,0.1-0.3,0.3s0.1,0.3,0.3,0.3h0.2C23.4,12.9,23.4,12.9,23.5,12.9z"/>
	<path d="M23.5,13.4c-0.1,0-0.3,0.1-0.3,0.3v1c0,0.1,0.1,0.3,0.3,0.3s0.3-0.1,0.3-0.3v-1C23.8,13.5,23.7,13.4,23.5,13.4z"/>
	<path d="M19.7,16.9c-0.1,0-0.3,0.1-0.3,0.3v1c0,0.1,0.1,0.3,0.3,0.3s0.3-0.1,0.3-0.3v-1C20,17.1,19.9,16.9,19.7,16.9z"/>
	<path d="M19.7,18.9c-0.1,0-0.2,0.1-0.2,0.1h-1c-0.1,0-0.3,0.1-0.3,0.3s0.1,0.3,0.3,0.3h1v0.6c0,0.1,0.1,0.3,0.3,0.3
		s0.3-0.1,0.3-0.3v-1C20,19.1,19.9,18.9,19.7,18.9z"/>
	<path d="M19.5,13.2v1c0,0.1,0.1,0.3,0.3,0.3s0.3-0.1,0.3-0.3v-1c0-0.1-0.1-0.3-0.3-0.3S19.5,13.1,19.5,13.2z"/>
	<path d="M8.5,13.4c-0.1,0-0.3,0.1-0.3,0.3v1c0,0.1,0.1,0.3,0.3,0.3s0.3-0.1,0.3-0.3v-1C8.7,13.5,8.6,13.4,8.5,13.4z"/>
	<path d="M8.5,15.4c-0.1,0-0.3,0.1-0.3,0.3v0c0,0,0,0,0,0h-1c-0.1,0-0.3,0.1-0.3,0.3c0,0.1,0.1,0.2,0.3,0.2h1c0,0,0,0,0,0v0.5
		c0,0.1,0.1,0.3,0.3,0.3s0.3-0.1,0.3-0.3v-1C8.7,15.5,8.6,15.4,8.5,15.4z"/>
	<path d="M8.2,9.7v1c0,0.1,0.1,0.3,0.3,0.3s0.3-0.1,0.3-0.3v-1c0-0.1-0.1-0.3-0.3-0.3S8.2,9.5,8.2,9.7z"/>
	<path d="M12.3,16.9c-0.1,0-0.3,0.1-0.3,0.3v1c0,0.1,0.1,0.3,0.3,0.3s0.3-0.1,0.3-0.3v-1C12.5,17.1,12.4,16.9,12.3,16.9z"/>
	<path d="M12,16.2c0,0.1,0.1,0.3,0.3,0.3s0.3-0.1,0.3-0.3v-0.1c0,0,0.1-0.1,0.1-0.2c0-0.1,0-0.1-0.1-0.2v-0.6c0-0.1-0.1-0.3-0.3-0.3
		S12,15.1,12,15.2v0.5h-0.7c-0.1,0-0.3,0.1-0.3,0.3c0,0.1,0.1,0.2,0.3,0.2L12,16.2L12,16.2z"/>
	<path d="M12,13.2v1c0,0.1,0.1,0.3,0.3,0.3s0.3-0.1,0.3-0.3v-1c0-0.1-0.1-0.3-0.3-0.3S12,13.1,12,13.2z"/>
	<path d="M16,11.8c0.1,0,0.3-0.1,0.3-0.3v-1c0-0.1-0.1-0.3-0.3-0.3s-0.3,0.1-0.3,0.3v1C15.8,11.7,15.9,11.8,16,11.8z"/>
	<path d="M16,20.3c-0.1,0-0.3,0.1-0.3,0.3v1c0,0.1,0.1,0.3,0.3,0.3s0.3-0.1,0.3-0.3v-1C16.3,20.5,16.1,20.3,16,20.3z"/>
	<path d="M16,17.8c0.1,0,0.3-0.1,0.3-0.3v-1c0-0.1-0.1-0.3-0.3-0.3s-0.3,0.1-0.3,0.3v1C15.8,17.7,15.9,17.8,16,17.8z"/>
	<path d="M18.6,15.7h-1c-0.1,0-0.3,0.1-0.3,0.3c0,0.1,0.1,0.2,0.3,0.2h1c0.1,0,0.3-0.1,0.3-0.2C18.9,15.8,18.8,15.7,18.6,15.7z"/>
	<path d="M20.7,16.2c0.1,0,0.3-0.1,0.3-0.2c0-0.1-0.1-0.3-0.3-0.3H20v-0.5c0-0.1-0.1-0.3-0.3-0.3s-0.3,0.1-0.3,0.3v0.6
		c0,0-0.1,0.1-0.1,0.2c0,0.1,0,0.1,0.1,0.2v0.1c0,0.1,0.1,0.3,0.3,0.3s0.3-0.1,0.3-0.3v0H20.7z"/>
	<path d="M16.8,15.9c0-0.1-0.1-0.3-0.3-0.3h-0.3c0,0,0-0.1,0-0.1v-1c0-0.1-0.1-0.3-0.3-0.3s-0.3,0.1-0.3,0.3v1c0,0,0,0.1,0,0.1h-0.3
		c-0.1,0-0.3,0.1-0.3,0.3c0,0.1,0.1,0.2,0.3,0.2h1C16.7,16.2,16.8,16.1,16.8,15.9z"/>
	<path d="M22.8,15.7h-1c-0.1,0-0.3,0.1-0.3,0.3c0,0.1,0.1,0.2,0.3,0.2h1c0.1,0,0.3-0.1,0.3-0.2C23,15.8,22.9,15.7,22.8,15.7z"/>
	<path d="M24.9,15.7h-1c0,0,0,0,0,0v0c0-0.1-0.1-0.3-0.3-0.3s-0.3,0.1-0.3,0.3v1c0,0.1,0.1,0.3,0.3,0.3s0.3-0.1,0.3-0.3v-0.5
		c0,0,0,0,0,0h1c0.1,0,0.3-0.1,0.3-0.2C25.1,15.8,25,15.7,24.9,15.7z"/>
	<path d="M13.4,16.2h1c0.1,0,0.3-0.1,0.3-0.2c0-0.1-0.1-0.3-0.3-0.3h-1c-0.1,0-0.3,0.1-0.3,0.3C13.1,16.1,13.3,16.2,13.4,16.2z"/>
	<path d="M10.5,15.9c0-0.1-0.1-0.3-0.3-0.3h-1c-0.1,0-0.3,0.1-0.3,0.3c0,0.1,0.1,0.2,0.3,0.2h1C10.4,16.2,10.5,16.1,10.5,15.9z"/>
	<path d="M16.3,19.3v-0.7c0-0.1-0.1-0.3-0.3-0.3s-0.3,0.1-0.3,0.3v1c0,0.1,0.1,0.3,0.3,0.3s0.3-0.1,0.3-0.3v-0.2
		c0,0.1,0.1,0.2,0.2,0.2h1c0.1,0,0.3-0.1,0.3-0.3s-0.1-0.3-0.3-0.3h-1C16.4,19.1,16.3,19.2,16.3,19.3z"/>
	<path d="M11.3,19.1h-1c-0.1,0-0.3,0.1-0.3,0.3s0.1,0.3,0.3,0.3h1c0.1,0,0.3-0.1,0.3-0.3S11.5,19.1,11.3,19.1z"/>
	<path d="M21.6,19.1h-1c-0.1,0-0.3,0.1-0.3,0.3s0.1,0.3,0.3,0.3h1c0.1,0,0.3-0.1,0.3-0.3S21.7,19.1,21.6,19.1z"/>
	<path d="M13.4,19.1h-0.9c0-0.1-0.1-0.1-0.2-0.1c-0.1,0-0.3,0.1-0.3,0.3v1c0,0.1,0.1,0.3,0.3,0.3s0.3-0.1,0.3-0.3v-0.6h0.9
		c0.1,0,0.3-0.1,0.3-0.3S13.5,19.1,13.4,19.1z"/>
	<path d="M15.4,19.1h-1c-0.1,0-0.3,0.1-0.3,0.3s0.1,0.3,0.3,0.3h1c0.1,0,0.3-0.1,0.3-0.3S15.6,19.1,15.4,19.1z"/>
	<path d="M17.6,22.5h-1.2c-0.1,0-0.2,0.1-0.2,0.2v-0.1c0-0.1-0.1-0.3-0.3-0.3s-0.3,0.1-0.3,0.3v1c0,0.1,0.1,0.3,0.3,0.3
		s0.3-0.1,0.3-0.3v-0.9c0,0.1,0.1,0.2,0.2,0.2h1.2c0.1,0,0.3-0.1,0.3-0.3S17.8,22.5,17.6,22.5z"/>
	<path d="M15.3,22.5h-1.2c-0.1,0-0.3,0.1-0.3,0.3S14,23,14.2,23h1.2c0.1,0,0.3-0.1,0.3-0.3S15.5,22.5,15.3,22.5z"/>
</g>
</svg>
