<?xml version="1.0" encoding="utf-8"?>
<!-- Generator: Adobe Illustrator 22.0.0, SVG Export Plug-In . SVG Version: 6.00 Build 0)  -->
<svg version="1.1" id="Layer_1" xmlns="http://www.w3.org/2000/svg" xmlns:xlink="http://www.w3.org/1999/xlink" x="0px" y="0px"
	 width="32px" height="32px" viewBox="0 0 32 32" style="enable-background:new 0 0 32 32;" xml:space="preserve">
<style type="text/css">
	.st0{fill:#16BDC9;}
	.st1{fill:#01959F;}
	.st2{fill:#FFFFFF;}
	.st3{fill:#F15F59;}
	.st4{fill:#00BAC6;}
	.st5{fill:none;stroke:#000000;stroke-linecap:round;stroke-linejoin:round;stroke-miterlimit:10;}
	.st6{fill:none;stroke:#01959F;stroke-linecap:round;stroke-miterlimit:10;}
	.st7{fill:none;stroke:#000000;stroke-linecap:round;stroke-miterlimit:10;}
	.st8{fill:none;stroke:#FFFFFF;stroke-linecap:round;stroke-miterlimit:10;}
	.st9{fill:none;stroke:#00BAC6;stroke-linecap:round;stroke-linejoin:round;stroke-miterlimit:10;}
	.st10{fill:none;stroke:#00BAC6;stroke-linecap:round;stroke-miterlimit:10;}
	.st11{fill:none;stroke:#F15F59;stroke-linecap:round;stroke-miterlimit:10;}
	.st12{fill:none;stroke:#000000;stroke-width:0.5;stroke-linecap:round;stroke-linejoin:round;}
	.st13{fill:none;stroke:#000000;stroke-width:0.5;stroke-linecap:round;stroke-linejoin:round;stroke-dasharray:1.832,0.916;}
	.st14{fill:none;stroke:#000000;stroke-width:0.5;stroke-linecap:round;stroke-linejoin:round;stroke-dasharray:1.8563,0.9281;}
	.st15{fill:none;stroke:#000000;stroke-width:0.5;stroke-linecap:round;stroke-linejoin:round;stroke-dasharray:1.6782,0.8391;}
	.st16{fill:none;stroke:#000000;stroke-width:0.5;stroke-linecap:round;stroke-linejoin:round;stroke-dasharray:1.1219,0.5609;}
	
		.st17{fill:none;stroke:#000000;stroke-width:0.5;stroke-linecap:round;stroke-linejoin:round;stroke-miterlimit:10;stroke-dasharray:2,1;}
	
		.st18{fill:none;stroke:#000000;stroke-width:0.5;stroke-linecap:round;stroke-linejoin:round;stroke-miterlimit:10;stroke-dasharray:1,1;}
	.st19{fill:none;stroke:#000000;stroke-width:0.5;stroke-linecap:round;stroke-linejoin:round;stroke-dasharray:0.9564,0.9564;}
	.st20{fill:none;stroke:#000000;stroke-width:0.5;stroke-linecap:round;stroke-linejoin:round;stroke-dasharray:1.0454,1.0454;}
	.st21{fill:none;stroke:#000000;stroke-width:0.5;stroke-linecap:round;stroke-linejoin:round;stroke-dasharray:1.0251,1.0251;}
	.st22{fill:none;stroke:#000000;stroke-width:0.5;stroke-linecap:round;stroke-linejoin:round;stroke-dasharray:1.1555,1.1555;}
</style>
<g>
	<path d="M31.3,14.9l-6.9-5.5c-0.2-0.2-0.5-0.1-0.7,0.1c-0.2,0.2-0.1,0.5,0.1,0.7l6.5,5.2l-9,10.3l1.5-20.7c0-0.1,0-0.3-0.1-0.4
		c-0.1-0.1-0.2-0.2-0.4-0.2H9.3C9.2,4.4,9.1,4.4,9,4.5C8.9,4.7,8.8,4.8,8.8,4.9l1.9,20.7l-9-10.3l6.5-5.2C8.4,10,8.4,9.7,8.3,9.5
		C8.1,9.3,7.8,9.2,7.6,9.4l-6.9,5.5c-0.1,0.1-0.2,0.2-0.2,0.3s0,0.3,0.1,0.4L11,27.4c0,0,0,0,0,0c0,0,0.1,0.1,0.1,0.1c0,0,0,0,0,0
		c0.1,0,0.1,0,0.2,0c0,0,0,0,0,0h0c0,0,0,0,0,0c0,0,0,0,0,0c0,0,0,0,0.1,0c0,0,0.1,0,0.1,0c0,0,0,0,0.1,0c0,0,0,0,0.1,0c0,0,0,0,0,0
		c0,0,0-0.1,0.1-0.1c0,0,0-0.1,0-0.1c0,0,0-0.1,0-0.1c0,0,0-0.1,0-0.1c0,0,0,0,0,0l-2-21.7h11.8l-1.6,21.7c0,0,0,0,0,0
		c0,0.1,0,0.2,0.1,0.3c0,0,0,0,0,0c0,0,0,0,0,0c0,0,0.1,0,0.1,0.1c0,0,0,0,0,0c0,0,0.1,0,0.1,0c0,0,0,0,0,0c0,0,0,0,0,0c0,0,0,0,0,0
		c0,0,0,0,0.1,0c0.1,0,0.1,0,0.1,0c0,0,0,0,0,0c0.1,0,0.1-0.1,0.2-0.1c0,0,0,0,0,0l10.4-11.8c0.1-0.1,0.1-0.2,0.1-0.4
		S31.4,15,31.3,14.9z"/>
	<path d="M15.6,17.1c-0.1,0.4-0.1,0.8-0.1,1.3c0,0.1,0,0.3,0,0.4c0,0.1,0,0.2,0,0.4c0,0.1,0.1,0.2,0.2,0.2c0,0,0,0,0,0
		c0.1,0,0.2-0.1,0.2-0.3c0-0.1,0-0.2,0-0.3c0-0.1,0-0.3,0-0.4c0-0.4,0-0.8,0.1-1.2c0-0.1-0.1-0.3-0.2-0.3
		C15.7,16.9,15.6,16.9,15.6,17.1z"/>
	<path d="M15.5,8.6c-0.8,0.1-1.4,0.6-1.7,1.3c-0.1,0.1,0,0.3,0.1,0.3c0,0,0.1,0,0.1,0c0.1,0,0.2-0.1,0.2-0.2c0.2-0.5,0.7-0.9,1.3-1
		c0.1,0,0.2-0.1,0.2-0.3C15.7,8.7,15.6,8.6,15.5,8.6z"/>
	<path d="M16,16.4C16,16.4,16.1,16.4,16,16.4c0.2,0,0.3-0.1,0.3-0.2c0.2-0.6,0.4-1.2,0.7-1.8c0.1-0.1,0-0.3-0.1-0.3
		c-0.1-0.1-0.3,0-0.3,0.1c-0.3,0.6-0.5,1.2-0.7,1.9C15.8,16.2,15.9,16.4,16,16.4z"/>
	<path d="M13.9,18.6c-0.1-0.5-0.2-1.1-0.2-1.6c0-0.1,0-0.2,0-0.3c0-0.1-0.1-0.3-0.2-0.3c-0.2,0-0.3,0.1-0.3,0.2c0,0.1,0,0.2,0,0.3
		c0,0.6,0.1,1.2,0.2,1.7c0,0.1,0.1,0.2,0.2,0.2c0,0,0,0,0,0C13.8,18.9,13.9,18.7,13.9,18.6z"/>
	<path d="M17.5,11.4c-0.1,0.7-0.3,1.3-0.5,1.8c-0.1,0.1,0,0.3,0.1,0.3c0,0,0.1,0,0.1,0c0.1,0,0.2-0.1,0.2-0.2c0.2-0.6,0.5-1.3,0.6-2
		c0-0.1-0.1-0.3-0.2-0.3C17.6,11.2,17.5,11.3,17.5,11.4z"/>
	<path d="M16.6,8.8c-0.1,0-0.3,0-0.3,0.1s0,0.3,0.1,0.3c0.5,0.2,0.9,0.7,1.1,1.3c0,0.1,0.1,0.2,0.2,0.2c0,0,0,0,0.1,0
		c0.1,0,0.2-0.2,0.2-0.3C17.8,9.6,17.3,9,16.6,8.8z"/>
	<path d="M15.9,19.9c-0.1,0-0.2,0.2-0.2,0.3c0.2,0.6,0.4,1.3,0.6,1.9c0,0.1,0.1,0.2,0.2,0.2c0,0,0.1,0,0.1,0c0.1,0,0.2-0.2,0.1-0.3
		c-0.2-0.6-0.5-1.3-0.6-1.9C16.2,19.9,16,19.8,15.9,19.9z"/>
	<path d="M17.7,25.1c0.1,0,0.2-0.2,0.2-0.3c-0.2-0.7-0.4-1.3-0.6-1.9c0-0.1-0.2-0.2-0.3-0.1c-0.1,0-0.2,0.2-0.1,0.3
		c0.2,0.6,0.5,1.2,0.6,1.9C17.4,25,17.5,25.1,17.7,25.1C17.6,25.1,17.6,25.1,17.7,25.1z"/>
	<path d="M16.1,24.9c-0.1,0-0.2,0.2-0.2,0.3c0.2,0.6,0.3,1.2,0.4,1.9c0,0.1,0.1,0.2,0.2,0.2c0,0,0,0,0,0c0.1,0,0.2-0.2,0.2-0.3
		c-0.1-0.7-0.3-1.4-0.4-2C16.4,25,16.2,24.9,16.1,24.9z"/>
	<path d="M17.8,25.6c-0.1,0-0.2,0.2-0.2,0.3c0.1,0.5,0.1,0.9,0.2,1.3c0,0.1,0.1,0.2,0.2,0.2c0,0,0,0,0,0c0.1,0,0.2-0.1,0.2-0.3
		c0-0.4-0.1-0.9-0.2-1.4C18.1,25.6,17.9,25.5,17.8,25.6z"/>
	<path d="M13.6,11.1c0.1,0.5,0.3,1,0.6,1.3c0,0.1-0.1,0.2-0.1,0.3c-0.1,0.1,0,0.3,0.1,0.3c0,0,0.1,0,0.1,0c0.1,0,0.2-0.1,0.2-0.2
		c0.1-0.3,0.2-0.4,0.2-0.4c0-0.1,0-0.2-0.1-0.3c-0.4-0.3-0.6-0.7-0.6-1.1c0-0.1-0.1-0.2-0.3-0.2C13.7,10.8,13.6,10.9,13.6,11.1z"/>
	<path d="M13.5,15.9C13.5,15.9,13.6,15.9,13.5,15.9c0.2,0,0.3-0.1,0.3-0.2c0.1-0.6,0.2-1.3,0.4-1.9c0-0.1,0-0.3-0.2-0.3
		c-0.1,0-0.3,0-0.3,0.2c-0.2,0.7-0.4,1.3-0.4,2C13.3,15.8,13.4,15.9,13.5,15.9z"/>
	<path d="M16.1,24.1c-0.3-0.8-0.5-1.4-0.8-1.9c-0.1-0.1-0.2-0.2-0.3-0.1c-0.1,0.1-0.2,0.2-0.1,0.3c0.2,0.5,0.5,1,0.8,1.8
		c0,0.1,0.1,0.2,0.2,0.2c0,0,0.1,0,0.1,0C16.1,24.4,16.1,24.3,16.1,24.1z"/>
	<path d="M14.9,21.4c-0.3-0.6-0.5-1.1-0.7-1.8c0-0.1-0.2-0.2-0.3-0.2c-0.1,0-0.2,0.2-0.2,0.3c0.2,0.8,0.5,1.3,0.8,1.9
		c0,0.1,0.1,0.1,0.2,0.1c0,0,0.1,0,0.1,0C14.9,21.6,14.9,21.5,14.9,21.4z"/>
</g>
</svg>
