<?xml version="1.0" encoding="utf-8"?>
<!-- Generator: Adobe Illustrator 22.0.0, SVG Export Plug-In . SVG Version: 6.00 Build 0)  -->
<svg version="1.1" id="Layer_1" xmlns="http://www.w3.org/2000/svg" xmlns:xlink="http://www.w3.org/1999/xlink" x="0px" y="0px"
	 width="32px" height="32px" viewBox="0 0 32 32" style="enable-background:new 0 0 32 32;" xml:space="preserve">
<style type="text/css">
	.st0{fill:#16BDC9;}
	.st1{fill:#01959F;}
	.st2{fill:#FFFFFF;}
	.st3{fill:#F15F59;}
	.st4{fill:#00BAC6;}
	.st5{fill:none;stroke:#000000;stroke-linecap:round;stroke-linejoin:round;stroke-miterlimit:10;}
	.st6{fill:none;stroke:#01959F;stroke-linecap:round;stroke-miterlimit:10;}
	.st7{fill:none;stroke:#000000;stroke-linecap:round;stroke-miterlimit:10;}
	.st8{fill:none;stroke:#FFFFFF;stroke-linecap:round;stroke-miterlimit:10;}
	.st9{fill:none;stroke:#00BAC6;stroke-linecap:round;stroke-linejoin:round;stroke-miterlimit:10;}
	.st10{fill:none;stroke:#00BAC6;stroke-linecap:round;stroke-miterlimit:10;}
	.st11{fill:none;stroke:#F15F59;stroke-linecap:round;stroke-miterlimit:10;}
	.st12{fill:none;stroke:#000000;stroke-width:0.5;stroke-linecap:round;stroke-linejoin:round;}
	.st13{fill:none;stroke:#000000;stroke-width:0.5;stroke-linecap:round;stroke-linejoin:round;stroke-dasharray:1.832,0.916;}
	.st14{fill:none;stroke:#000000;stroke-width:0.5;stroke-linecap:round;stroke-linejoin:round;stroke-dasharray:1.8563,0.9281;}
	.st15{fill:none;stroke:#000000;stroke-width:0.5;stroke-linecap:round;stroke-linejoin:round;stroke-dasharray:1.6782,0.8391;}
	.st16{fill:none;stroke:#000000;stroke-width:0.5;stroke-linecap:round;stroke-linejoin:round;stroke-dasharray:1.1219,0.5609;}
	
		.st17{fill:none;stroke:#000000;stroke-width:0.5;stroke-linecap:round;stroke-linejoin:round;stroke-miterlimit:10;stroke-dasharray:2,1;}
	
		.st18{fill:none;stroke:#000000;stroke-width:0.5;stroke-linecap:round;stroke-linejoin:round;stroke-miterlimit:10;stroke-dasharray:1,1;}
	.st19{fill:none;stroke:#000000;stroke-width:0.5;stroke-linecap:round;stroke-linejoin:round;stroke-dasharray:0.9564,0.9564;}
	.st20{fill:none;stroke:#000000;stroke-width:0.5;stroke-linecap:round;stroke-linejoin:round;stroke-dasharray:1.0454,1.0454;}
	.st21{fill:none;stroke:#000000;stroke-width:0.5;stroke-linecap:round;stroke-linejoin:round;stroke-dasharray:1.0251,1.0251;}
	.st22{fill:none;stroke:#000000;stroke-width:0.5;stroke-linecap:round;stroke-linejoin:round;stroke-dasharray:1.1555,1.1555;}
</style>
<g>
	<path d="M23.1,16.9c-0.3,0-0.5,0.2-0.5,0.5v3.9c-0.8-1-2.1-1.7-3.6-1.7H6.8c-0.9,0-1.8,0.4-2.4,1V7c0-1.3,1.1-2.4,2.4-2.4h12.3
		c1.9,0,3.4,1.5,3.4,3.4v5.6c0,0.3,0.2,0.5,0.5,0.5s0.5-0.2,0.5-0.5V8c0-2.4-2-4.4-4.4-4.4H6.8C5,3.6,3.5,5.1,3.5,7v16
		c0,0,0,0.1,0,0.1c0,0.1,0,0.2,0,0.2c0.1,1.5,1.4,2.7,2.9,3l0,0.2c0,1,0.9,1.9,1.9,1.9h10.9c1.2,0,2.3-0.5,3.2-1.3
		c0.8-0.8,1.2-1.9,1.2-3c0,0,0-0.1,0-0.1v-6.6C23.6,17.1,23.3,16.9,23.1,16.9z M21.6,26.4c-0.6,0.7-1.5,1-2.4,1H8.3
		c-0.5,0-0.9-0.4-0.9-0.9l0-0.1h11.9c0.5,0,1-0.2,1.4-0.6c0.4-0.4,0.5-0.9,0.5-1.5c-0.1-0.9-1-1.7-1.9-1.7H7.1
		c-0.3,0-0.5,0.2-0.5,0.5s0.2,0.5,0.5,0.5h12.1c0.5,0,0.9,0.3,1,0.8c0,0.3-0.1,0.5-0.2,0.7c-0.2,0.2-0.4,0.3-0.7,0.3H7
		c-1.3,0-2.4-0.9-2.5-2.2c-0.1-0.7,0.2-1.3,0.6-1.8c0.5-0.5,1.1-0.8,1.8-0.8H19c1.9,0,3.5,1.5,3.6,3.3
		C22.6,24.8,22.2,25.7,21.6,26.4z"/>
	<path d="M17.3,15.2c-0.1,0-0.3,0.1-0.3,0.3s0.1,0.3,0.3,0.3h2c0.1,0,0.3-0.1,0.3-0.3s-0.1-0.3-0.3-0.3H17.3z"/>
	<path d="M16.3,15.7C16.3,15.7,16.3,15.7,16.3,15.7c0.1,0,0.3-0.1,0.3-0.2c0-0.1-0.1-0.3-0.2-0.3c-0.6,0-1.1-0.4-1.3-0.9
		c-0.1-0.1-0.2-0.2-0.3-0.1c-0.1,0.1-0.2,0.2-0.1,0.3C14.8,15.1,15.5,15.6,16.3,15.7z"/>
	<path d="M20.3,15.2c-0.1,0-0.3,0.1-0.3,0.3s0.1,0.3,0.3,0.3h2c0.1,0,0.3-0.1,0.3-0.3s-0.1-0.3-0.3-0.3H20.3z"/>
	<path d="M28.3,15.2h-2c-0.1,0-0.3,0.1-0.3,0.3s0.1,0.3,0.3,0.3h2c0.1,0,0.3-0.1,0.3-0.3S28.4,15.2,28.3,15.2z"/>
	<path d="M25.3,15.2h-2c-0.1,0-0.3,0.1-0.3,0.3s0.1,0.3,0.3,0.3h2c0.1,0,0.3-0.1,0.3-0.3S25.4,15.2,25.3,15.2z"/>
	<path d="M7.4,11.5c-0.1,0-0.3,0.1-0.3,0.3S7.2,12,7.4,12h2c0.1,0,0.3-0.1,0.3-0.3s-0.1-0.3-0.3-0.3H7.4z"/>
	<path d="M14.8,13.3c-0.1-0.8-0.6-1.4-1.4-1.7c-0.1,0-0.3,0-0.3,0.2c0,0.1,0,0.3,0.2,0.3c0.6,0.2,1,0.7,1,1.3c0,0.1,0.1,0.2,0.2,0.2
		c0,0,0,0,0,0C14.7,13.6,14.8,13.4,14.8,13.3z"/>
	<path d="M10.4,11.5c-0.1,0-0.3,0.1-0.3,0.3s0.1,0.3,0.3,0.3h2c0.1,0,0.3-0.1,0.3-0.3s-0.1-0.3-0.3-0.3H10.4z"/>
</g>
</svg>
