<svg width="30" height="24" viewBox="0 0 30 24" fill="none" xmlns="http://www.w3.org/2000/svg">
<path d="M14.7861 4.10379H27.347C28.3267 4.10379 28.9993 5.09844 28.6191 6.00533L25.1243 14.4598C24.905 14.9718 24.4078 15.3082 23.8521 15.3082H14.479C13.9233 15.3082 13.4116 14.9718 13.2068 14.4598L7.67948 0.929688H1.46484" stroke="black" stroke-miterlimit="10" stroke-linecap="round"/>
<path d="M14.4217 22.8564C15.7138 22.8564 16.7613 21.8086 16.7613 20.5161C16.7613 19.2236 15.7138 18.1758 14.4217 18.1758C13.1295 18.1758 12.082 19.2236 12.082 20.5161C12.082 21.8086 13.1295 22.8564 14.4217 22.8564Z" stroke="black" stroke-miterlimit="10" stroke-linecap="round"/>
<path d="M24.3201 22.8564C25.6123 22.8564 26.6598 21.8086 26.6598 20.5161C26.6598 19.2236 25.6123 18.1758 24.3201 18.1758C23.028 18.1758 21.9805 19.2236 21.9805 20.5161C21.9805 21.8086 23.028 22.8564 24.3201 22.8564Z" stroke="black" stroke-miterlimit="10" stroke-linecap="round"/>
</svg>
