<svg width="60" height="60" viewBox="0 0 60 60" fill="none" xmlns="http://www.w3.org/2000/svg">
<path d="M25 7.5C25 7.5 25 13.5948 25 17.5M30 7.5C30 7.5 30 13.5948 30 17.5M47.5 50H12.5C11.1739 50 9.90215 49.4732 8.96447 48.5355C8.02678 47.5979 7.5 46.3261 7.5 45V22.5C7.5 21.1739 8.02678 19.9021 8.96447 18.9645C9.90215 18.0268 11.1739 17.5 12.5 17.5H47.5C48.8261 17.5 50.0979 18.0268 51.0355 18.9645C51.9732 19.9021 52.5 21.1739 52.5 22.5V45C52.5 46.3261 51.9732 47.5979 51.0355 48.5355C50.0979 49.4732 48.8261 50 47.5 50ZM17.5 17.5V9C17.5 8.60218 17.658 8.22064 17.9393 7.93934C18.2206 7.65804 18.6022 7.5 19 7.5H41C41.197 7.5 41.392 7.5388 41.574 7.61418C41.756 7.68956 41.9214 7.80005 42.0607 7.93934C42.1999 8.07863 42.3104 8.24399 42.3858 8.42597C42.4612 8.60796 42.5 8.80302 42.5 9V17.5H17.5Z" stroke="#333333" stroke-width="3"/>
<path d="M41.25 35C40.9185 35 40.6005 34.8683 40.3661 34.6339C40.1317 34.3995 40 34.0815 40 33.75C40 33.4185 40.1317 33.1005 40.3661 32.8661C40.6005 32.6317 40.9185 32.5 41.25 32.5C41.5815 32.5 41.8995 32.6317 42.1339 32.8661C42.3683 33.1005 42.5 33.4185 42.5 33.75C42.5 34.0815 42.3683 34.3995 42.1339 34.6339C41.8995 34.8683 41.5815 35 41.25 35Z" fill="#333333" stroke="#333333" stroke-width="3" stroke-linecap="round" stroke-linejoin="round"/>
<path d="M17.5 17.8673V14.6314C17.4999 13.9214 17.4529 13.221 17.3626 12.5843C17.2722 11.9475 17.141 11.3914 16.9789 10.9589C16.8169 10.5264 16.6284 10.229 16.428 10.0899C16.2277 9.95071 16.0208 9.97341 15.8233 10.1562L8.49 16.95C8.20604 17.213 7.95503 17.7945 7.77599 18.6042C7.59696 19.4139 7.49993 20.4065 7.5 21.4275V22.5" stroke="#333333" stroke-width="3"/>
</svg>
