<svg width="100" height="100" viewBox="0 0 100 100" fill="none" xmlns="http://www.w3.org/2000/svg">
<path d="M40.7678 8.91016C40.7678 8.91016 40.7678 20.695 40.7678 28.2462M50.4358 8.91016C50.4358 8.91016 50.4358 20.695 50.4358 28.2462M84.2739 91.0884H16.5977C14.0336 91.0884 11.5745 90.0698 9.76139 88.2567C7.94828 86.4436 6.92969 83.9845 6.92969 81.4204V37.9142C6.92969 35.3501 7.94828 32.891 9.76139 31.0779C11.5745 29.2648 14.0336 28.2462 16.5977 28.2462H84.2739C86.838 28.2462 89.2971 29.2648 91.1102 31.0779C92.9233 32.891 93.9419 35.3501 93.9419 37.9142V81.4204C93.9419 83.9845 92.9233 86.4436 91.1102 88.2567C89.2971 90.0698 86.838 91.0884 84.2739 91.0884ZM26.2657 28.2462V11.8106C26.2657 11.0413 26.5713 10.3036 27.1152 9.75967C27.6592 9.21573 28.3969 8.91016 29.1661 8.91016H71.7055C72.0863 8.91016 72.4635 8.98518 72.8154 9.13094C73.1673 9.2767 73.487 9.49034 73.7564 9.75967C74.0257 10.029 74.2393 10.3487 74.3851 10.7006C74.5309 11.0525 74.6059 11.4297 74.6059 11.8106V28.2462H26.2657Z" stroke="#333333" stroke-width="6"/>
<path d="M72.1865 62.084C71.5455 62.084 70.9307 61.8294 70.4775 61.3761C70.0242 60.9228 69.7695 60.308 69.7695 59.667C69.7695 59.026 70.0242 58.4112 70.4775 57.9579C70.9307 57.5046 71.5455 57.25 72.1865 57.25C72.8276 57.25 73.4423 57.5046 73.8956 57.9579C74.3489 58.4112 74.6035 59.026 74.6035 59.667C74.6035 60.308 74.3489 60.9228 73.8956 61.3761C73.4423 61.8294 72.8276 62.084 72.1865 62.084Z" fill="#333333" stroke="#333333" stroke-width="6" stroke-linecap="round" stroke-linejoin="round"/>
<path d="M26.2657 28.9545V22.6975C26.2656 21.3247 26.1747 19.9704 26 18.7391C25.8253 17.5078 25.5715 16.4325 25.2582 15.5962C24.9449 14.76 24.5804 14.1851 24.193 13.916C23.8056 13.6469 23.4055 13.6908 23.0237 14.0443L8.84396 27.1808C8.29488 27.6892 7.80953 28.8137 7.46335 30.3793C7.11717 31.945 6.92956 33.8642 6.92969 35.8385V37.9123" stroke="#333333" stroke-width="5"/>
</svg>
