<svg width="122" height="122" viewBox="0 0 122 122" fill="none" xmlns="http://www.w3.org/2000/svg">
<path d="M46.6262 91.8965H73.8371C76.5675 91.8965 78.7656 89.6977 78.7656 86.9665V39.7028C78.7656 34.8885 74.8783 31 70.0655 31H5V91.8965H10.6226" stroke="#00BAC6" stroke-width="3" stroke-miterlimit="10" stroke-linecap="round"/>
<path d="M78.7656 43.8711H103.894C110.859 43.8711 116.551 51.8795 116.551 58.8464V92.0606H110.581" stroke="#00BAC6" stroke-width="3" stroke-miterlimit="10" stroke-linecap="round"/>
<path d="M28.2339 107.08C33.9333 107.08 38.5537 102.458 38.5537 96.7566C38.5537 91.0554 33.9333 86.4336 28.2339 86.4336C22.5344 86.4336 17.9141 91.0554 17.9141 96.7566C17.9141 102.458 22.5344 107.08 28.2339 107.08Z" stroke="#00BAC6" stroke-width="3" stroke-miterlimit="10" stroke-linecap="round"/>
<path d="M94.5035 107.08C100.203 107.08 104.823 102.458 104.823 96.7566C104.823 91.0554 100.203 86.4336 94.5035 86.4336C88.804 86.4336 84.1836 91.0554 84.1836 96.7566C84.1836 102.458 88.804 107.08 94.5035 107.08Z" stroke="#00BAC6" stroke-width="3" stroke-miterlimit="10" stroke-linecap="round"/>
<path d="M28.5352 59.0947L37.4434 67.9826L55.237 50.1836" stroke="#00BAC6" stroke-width="3" stroke-miterlimit="10" stroke-linecap="round"/>
</svg>
