<svg width="50" height="35" viewBox="0 0 50 35" fill="none" xmlns="http://www.w3.org/2000/svg">
<path d="M18.99 27.31H30.75C31.93 27.31 32.88 26.36 32.88 25.18V4.76C32.88 2.68 31.2 1 29.12 1H1V27.31H3.43" stroke="#00BAC6" stroke-miterlimit="10" stroke-linecap="round"/>
<path d="M32.8906 6.55859H43.7506C46.7606 6.55859 49.2206 10.0186 49.2206 13.0286V27.3686H46.6406" stroke="#00BAC6" stroke-miterlimit="10" stroke-linecap="round"/>
<path d="M11.0381 33.8614C13.5013 33.8614 15.4981 31.8646 15.4981 29.4014C15.4981 26.9382 13.5013 24.9414 11.0381 24.9414C8.57493 24.9414 6.57812 26.9382 6.57812 29.4014C6.57812 31.8646 8.57493 33.8614 11.0381 33.8614Z" stroke="#00BAC6" stroke-miterlimit="10" stroke-linecap="round"/>
<path d="M39.6788 33.8614C42.1419 33.8614 44.1388 31.8646 44.1388 29.4014C44.1388 26.9382 42.1419 24.9414 39.6788 24.9414C37.2156 24.9414 35.2188 26.9382 35.2188 29.4014C35.2188 31.8646 37.2156 33.8614 39.6788 33.8614Z" stroke="#00BAC6" stroke-miterlimit="10" stroke-linecap="round"/>
<path d="M11.1797 13.1312L15.0197 16.9712L22.7097 9.28125" stroke="#00BAC6" stroke-miterlimit="10" stroke-linecap="round"/>
</svg>
