<svg width="26" height="26" viewBox="0 0 26 26" fill="none" xmlns="http://www.w3.org/2000/svg">
<g clip-path="url(#clip0_2276_30383)">
<path d="M20.875 4H5.125C4.50653 4 4 4.50653 4 5.125V20.8784C4 21.4968 4.50653 22.0034 5.125 22.0034H20.875C21.4935 22.0034 22 21.4968 22 20.8784V5.125C22 4.50653 21.4935 4 20.875 4ZM20.875 20.8784H5.125V5.12502H20.875V20.8784ZM7.9375 10.1945H9.0625V11.3195C9.0625 11.63 9.3145 11.882 9.625 11.882C9.9355 11.882 10.1875 11.63 10.1875 11.3195V10.1945H11.3125C11.623 10.1945 11.875 9.94255 11.875 9.63205C11.875 9.32155 11.623 9.06955 11.3125 9.06955H10.1875V7.94455C10.1875 7.63405 9.9355 7.38205 9.625 7.38205C9.3145 7.38205 9.0625 7.63405 9.0625 7.94455V9.06955H7.9375C7.627 9.06955 7.375 9.32155 7.375 9.63205C7.375 9.94255 7.627 10.1945 7.9375 10.1945ZM11.6137 14.393C11.3941 14.1734 11.038 14.1734 10.8183 14.393L9.625 15.5861L8.43167 14.393C8.21202 14.1734 7.85596 14.1734 7.63602 14.393C7.41636 14.6127 7.41636 14.969 7.63602 15.1887L8.82908 16.3817L7.63602 17.5748C7.41636 17.7945 7.41636 18.1508 7.63602 18.3705C7.85567 18.5901 8.21174 18.5901 8.43167 18.3705L9.625 17.1777L10.8183 18.3707C11.038 18.5904 11.3941 18.5904 11.6137 18.3707C11.8334 18.1511 11.8334 17.7947 11.6137 17.5751L10.4207 16.382L11.6137 15.1889C11.8334 14.969 11.8334 14.613 11.6137 14.393ZM14.6875 10.1945H18.0625C18.373 10.1945 18.625 9.94253 18.625 9.63203C18.625 9.32153 18.373 9.06953 18.0625 9.06953H14.6875C14.377 9.06953 14.125 9.32153 14.125 9.63203C14.125 9.94253 14.377 10.1945 14.6875 10.1945ZM14.6875 15.8195H18.0625C18.373 15.8195 18.625 15.5675 18.625 15.257C18.625 14.9465 18.373 14.6945 18.0625 14.6945H14.6875C14.377 14.6945 14.125 14.9465 14.125 15.257C14.125 15.5675 14.377 15.8195 14.6875 15.8195ZM14.6875 18.0695H18.0625C18.373 18.0695 18.625 17.8175 18.625 17.507C18.625 17.1965 18.373 16.9445 18.0625 16.9445H14.6875C14.377 16.9445 14.125 17.1965 14.125 17.507C14.125 17.8175 14.377 18.0695 14.6875 18.0695Z" fill="#00BAC6"/>
</g>
<defs>
<clipPath id="clip0_2276_30383">
<rect width="18" height="18" fill="white" transform="translate(4 4)"/>
</clipPath>
</defs>
</svg>
