<svg width="26" height="26" viewBox="0 0 26 26" fill="none" xmlns="http://www.w3.org/2000/svg">
<path d="M9.25 21.75C9.94036 21.75 10.5 21.1904 10.5 20.5C10.5 19.8096 9.94036 19.25 9.25 19.25C8.55964 19.25 8 19.8096 8 20.5C8 21.1904 8.55964 21.75 9.25 21.75Z" fill="#00BAC6"/>
<path d="M18 21.75C18.6904 21.75 19.25 21.1904 19.25 20.5C19.25 19.8096 18.6904 19.25 18 19.25C17.3096 19.25 16.75 19.8096 16.75 20.5C16.75 21.1904 17.3096 21.75 18 21.75Z" fill="#00BAC6"/>
<path d="M20.5 7.37513H6.6375L6.125 4.75013C6.09578 4.60683 6.01724 4.47832 5.90304 4.38696C5.78884 4.2956 5.64622 4.24718 5.5 4.25013H3V5.50013H4.9875L7.375 17.5001C7.40422 17.6434 7.48276 17.7719 7.59696 17.8633C7.71116 17.9547 7.85378 18.0031 8 18.0001H19.25V16.7501H8.5125L8 14.2501H19.25C19.3945 14.2537 19.5357 14.207 19.6497 14.1181C19.7636 14.0292 19.8432 13.9036 19.875 13.7626L21.125 8.13763C21.1459 8.04489 21.1455 7.9486 21.1236 7.85608C21.1017 7.76357 21.059 7.67726 20.9987 7.60373C20.9385 7.53021 20.8622 7.4714 20.7758 7.43178C20.6894 7.39217 20.595 7.37279 20.5 7.37513ZM18.75 13.0001H7.7625L6.8875 8.62513H19.7188L18.75 13.0001Z" fill="#00BAC6"/>
</svg>
