<svg width="26" height="26" viewBox="0 0 26 26" fill="none" xmlns="http://www.w3.org/2000/svg">
<path d="M21.4535 9H4.19576C3.89106 9 3.59884 9.12104 3.38338 9.3365C3.16792 9.55196 3.04688 9.84418 3.04688 10.1489V21.2956C3.04688 21.6003 3.16792 21.8925 3.38338 22.1079C3.59884 22.3234 3.89106 22.4444 4.19576 22.4444H21.4535C21.7582 22.4444 22.0505 22.3234 22.2659 22.1079C22.4814 21.8925 22.6024 21.6003 22.6024 21.2956V10.1489C22.6024 9.84418 22.4814 9.55196 22.2659 9.3365C22.0505 9.12104 21.7582 9 21.4535 9ZM21.3802 21.2222H4.2691V10.2222H21.3802V21.2222Z" fill="#656565"/>
<path d="M20.4206 4.83377C20.4206 4.67169 20.3562 4.51625 20.2416 4.40165C20.127 4.28704 19.9715 4.22266 19.8095 4.22266H6.36502C6.20294 4.22266 6.0475 4.28704 5.9329 4.40165C5.81829 4.51625 5.75391 4.67169 5.75391 4.83377V5.44488H20.4206V4.83377Z" fill="#656565"/>
<path d="M21.6267 7.27908C21.6267 7.117 21.5624 6.96156 21.4477 6.84696C21.3331 6.73235 21.1777 6.66797 21.0156 6.66797H5.12674C4.96466 6.66797 4.80922 6.73235 4.69462 6.84696C4.58001 6.96156 4.51562 7.117 4.51562 7.27908V7.89019H21.6267V7.27908Z" fill="#656565"/>
<path d="M9.83384 19.3739C10.0032 19.4838 10.2003 19.5431 10.4022 19.545C10.5476 19.5447 10.6914 19.5135 10.8238 19.4534L16.7944 16.7889C16.979 16.7087 17.1361 16.5764 17.2464 16.4081C17.3568 16.2398 17.4156 16.043 17.4156 15.8417C17.4156 15.6405 17.3568 15.4436 17.2464 15.2753C17.1361 15.1071 16.979 14.9747 16.7944 14.8945L10.8238 12.23C10.6658 12.1599 10.4928 12.1302 10.3205 12.1438C10.1482 12.1574 9.98193 12.2138 9.83688 12.3079C9.69184 12.4019 9.57256 12.5307 9.48986 12.6825C9.40716 12.8343 9.36365 13.0044 9.36328 13.1773V18.5062C9.36359 18.6785 9.40676 18.848 9.48891 18.9995C9.57105 19.151 9.68959 19.2797 9.83384 19.3739V19.3739ZM10.2188 13.1773C10.2186 13.1466 10.2264 13.1164 10.2414 13.0896C10.2564 13.0628 10.2781 13.0404 10.3044 13.0245C10.3364 13.0156 10.3702 13.0156 10.4022 13.0245C10.4263 13.019 10.4514 13.019 10.4755 13.0245L16.4461 15.6828C16.4797 15.6966 16.5084 15.7204 16.5281 15.751C16.5477 15.7816 16.5575 15.8176 16.5561 15.8539C16.5571 15.8895 16.5471 15.9244 16.5274 15.954C16.5077 15.9836 16.4793 16.0063 16.4461 16.0189L10.4755 18.6834C10.4495 18.6984 10.42 18.7063 10.3899 18.7063C10.3599 18.7063 10.3304 18.6984 10.3044 18.6834C10.2789 18.6667 10.2578 18.6441 10.2429 18.6175C10.228 18.5909 10.2198 18.5611 10.2188 18.5306V13.1773Z" fill="#656565"/>
</svg>
