<svg width="26" height="26" viewBox="0 0 26 26" fill="none" xmlns="http://www.w3.org/2000/svg">
<g clip-path="url(#clip0_2276_30326)">
<path d="M16.9051 8.82812H3.90338C2.82628 8.82812 1.95312 9.77252 1.95312 10.9375V19.375C1.95312 20.54 2.82628 21.4844 3.90338 21.4844H16.9051C17.9822 21.4844 18.8553 20.54 18.8553 19.375V10.9375C18.8553 9.77252 17.9822 8.82812 16.9051 8.82812Z" stroke="#656565" stroke-width="1.25" stroke-linejoin="round"/>
<path d="M16.7166 8.82741V7.50906C16.7165 7.18571 16.6504 6.86637 16.523 6.57383C16.3957 6.28128 16.2102 6.02274 15.9799 5.81665C15.7495 5.61056 15.4799 5.46199 15.1904 5.38156C14.9008 5.30113 14.5984 5.29081 14.3047 5.35134L3.60434 7.32668C3.13966 7.42246 2.72045 7.69063 2.41901 8.08493C2.11757 8.47924 1.9528 8.97496 1.95313 9.48659V11.6399" stroke="#656565" stroke-width="1.25" stroke-linejoin="round"/>
<path d="M14.9486 16.5605C14.6915 16.5605 14.4401 16.4781 14.2263 16.3236C14.0125 16.169 13.8458 15.9494 13.7474 15.6924C13.649 15.4355 13.6233 15.1527 13.6734 14.88C13.7236 14.6072 13.8474 14.3566 14.0292 14.1599C14.2111 13.9633 14.4427 13.8293 14.695 13.7751C14.9472 13.7208 15.2086 13.7487 15.4462 13.8551C15.6837 13.9615 15.8868 14.1418 16.0297 14.373C16.1725 14.6043 16.2488 14.8762 16.2488 15.1543C16.2488 15.5273 16.1118 15.8849 15.868 16.1487C15.6241 16.4124 15.2934 16.5605 14.9486 16.5605Z" fill="#656565"/>
<g clip-path="url(#clip1_2276_30326)">
<path d="M25.2261 5.86328C25.2261 6.11843 25.0029 6.32496 24.7276 6.32496H22.4846V8.40189C22.4846 8.65703 22.2613 8.86328 21.9861 8.86328C21.7108 8.86328 21.4876 8.65703 21.4876 8.40189V6.32496H19.2446C18.9693 6.32496 18.7461 6.11843 18.7461 5.86328C18.7461 5.60814 18.9693 5.40189 19.2446 5.40189H21.4876V3.32496C21.4876 3.06982 21.7108 2.86328 21.9861 2.86328C22.2613 2.86328 22.4846 3.06982 22.4846 3.32496V5.40189H24.7276C25.0033 5.40174 25.2261 5.60799 25.2261 5.86328Z" fill="#656565"/>
</g>
</g>
<defs>
<clipPath id="clip0_2276_30326">
<rect width="26" height="26" fill="white"/>
</clipPath>
<clipPath id="clip1_2276_30326">
<rect width="7.26923" height="9.09091" fill="white" transform="translate(18 2)"/>
</clipPath>
</defs>
</svg>
