<svg width="26" height="26" viewBox="0 0 26 26" fill="none" xmlns="http://www.w3.org/2000/svg">
<path d="M13 5.5C13.6181 5.5 14.2223 5.68328 14.7362 6.02666C15.2501 6.37004 15.6506 6.8581 15.8871 7.42911C16.1236 8.00013 16.1855 8.62847 16.065 9.23466C15.9444 9.84085 15.6467 10.3977 15.2097 10.8347C14.7727 11.2717 14.2158 11.5694 13.6097 11.69C13.0035 11.8105 12.3751 11.7486 11.8041 11.5121C11.2331 11.2756 10.745 10.8751 10.4017 10.3612C10.0583 9.84725 9.875 9.24307 9.875 8.625C9.875 7.7962 10.2042 7.00134 10.7903 6.41529C11.3763 5.82924 12.1712 5.5 13 5.5V5.5ZM13 4.25C12.1347 4.25 11.2888 4.50659 10.5694 4.98732C9.84992 5.46805 9.28916 6.15133 8.95803 6.95076C8.62689 7.75019 8.54025 8.62985 8.70906 9.47852C8.87787 10.3272 9.29455 11.1067 9.90641 11.7186C10.5183 12.3304 11.2978 12.7471 12.1465 12.9159C12.9951 13.0847 13.8748 12.9981 14.6742 12.667C15.4737 12.3358 16.1569 11.7751 16.6377 11.0556C17.1184 10.3362 17.375 9.49029 17.375 8.625C17.375 7.46468 16.9141 6.35188 16.0936 5.53141C15.2731 4.71094 14.1603 4.25 13 4.25V4.25ZM19.25 21.75H18V18.625C18 18.2146 17.9192 17.8083 17.7621 17.4291C17.6051 17.05 17.3749 16.7055 17.0847 16.4153C16.7945 16.1251 16.45 15.8949 16.0709 15.7379C15.6917 15.5808 15.2854 15.5 14.875 15.5H11.125C10.2962 15.5 9.50134 15.8292 8.91529 16.4153C8.32924 17.0013 8 17.7962 8 18.625V21.75H6.75V18.625C6.75 17.4647 7.21094 16.3519 8.03141 15.5314C8.85188 14.7109 9.96468 14.25 11.125 14.25H14.875C16.0353 14.25 17.1481 14.7109 17.9686 15.5314C18.7891 16.3519 19.25 17.4647 19.25 18.625V21.75Z" fill="#656565"/>
</svg>
