<svg width="26" height="26" viewBox="0 0 26 26" fill="none" xmlns="http://www.w3.org/2000/svg">
<path d="M10.4974 12.1667C12.3383 12.1667 13.8307 10.6743 13.8307 8.83333C13.8307 6.99238 12.3383 5.5 10.4974 5.5C8.65645 5.5 7.16406 6.99238 7.16406 8.83333C7.16406 10.6743 8.65645 12.1667 10.4974 12.1667Z" stroke="#656565" stroke-width="1.25" stroke-linecap="round" stroke-linejoin="round"/>
<path d="M5.5 20.4991V18.8324C5.5 17.9484 5.85119 17.1005 6.47631 16.4754C7.10143 15.8503 7.94928 15.4991 8.83333 15.4991H12.1667C13.0507 15.4991 13.8986 15.8503 14.5237 16.4754C15.1488 17.1005 15.5 17.9484 15.5 18.8324V20.4991M20.5 20.4991V18.8324C20.4958 18.0967 20.2483 17.3831 19.7961 16.8028C19.3439 16.2224 18.7124 15.808 18 15.6241M16.3333 5.60742C17.0503 5.79101 17.6859 6.20801 18.1397 6.79268C18.5935 7.37735 18.8399 8.09645 18.8399 8.83659C18.8399 9.57673 18.5935 10.2958 18.1397 10.8805C17.6859 11.4652 17.0503 11.8822 16.3333 12.0658C16.3333 12.0658 16.6842 10.8805 16.6842 8.83659C16.6842 6.79268 16.3333 5.60742 16.3333 5.60742Z" stroke="#656565" stroke-width="1.25" stroke-linecap="round" stroke-linejoin="round"/>
</svg>
