<svg width="26" height="26" viewBox="0 0 26 26" fill="none" xmlns="http://www.w3.org/2000/svg">
<path d="M10.25 24.75C10.9404 24.75 11.5 24.1904 11.5 23.5C11.5 22.8096 10.9404 22.25 10.25 22.25C9.55964 22.25 9 22.8096 9 23.5C9 24.1904 9.55964 24.75 10.25 24.75Z" fill="#00BAC6"/>
<path d="M19 24.75C19.6904 24.75 20.25 24.1904 20.25 23.5C20.25 22.8096 19.6904 22.25 19 22.25C18.3096 22.25 17.75 22.8096 17.75 23.5C17.75 24.1904 18.3096 24.75 19 24.75Z" fill="#00BAC6"/>
<path d="M21.5 10.3751H7.6375L7.125 7.75013C7.09578 7.60683 7.01724 7.47832 6.90304 7.38696C6.78884 7.2956 6.64622 7.24718 6.5 7.25013H4V8.50013H5.9875L8.375 20.5001C8.40422 20.6434 8.48276 20.7719 8.59696 20.8633C8.71116 20.9547 8.85378 21.0031 9 21.0001H20.25V19.7501H9.5125L9 17.2501H20.25C20.3945 17.2537 20.5357 17.207 20.6497 17.1181C20.7636 17.0292 20.8432 16.9036 20.875 16.7626L22.125 11.1376C22.1459 11.0449 22.1455 10.9486 22.1236 10.8561C22.1017 10.7636 22.059 10.6773 21.9987 10.6037C21.9385 10.5302 21.8622 10.4714 21.7758 10.4318C21.6894 10.3922 21.595 10.3728 21.5 10.3751ZM19.75 16.0001H8.7625L7.8875 11.6251H20.7188L19.75 16.0001Z" fill="#00BAC6"/>
<path d="M6.08333 1L4 3.08333L6.08333 5.16667" stroke="#00BAC6" stroke-linecap="round" stroke-linejoin="round"/>
<path d="M4 3.08203H7.33333C9.63458 3.08203 11.5 4.94745 11.5 7.2487V7.66536" stroke="#00BAC6" stroke-linecap="round" stroke-linejoin="round"/>
</svg>
