<svg width="320" height="320" viewBox="0 0 320 320" fill="none" xmlns="http://www.w3.org/2000/svg">
<path d="M160 0.625C128.479 0.625 97.6652 9.97218 71.4561 27.4845C45.247 44.9969 24.8195 69.8879 12.7568 99.0098C0.694052 128.132 -2.4621 160.177 3.68742 191.093C9.83694 222.008 25.0159 250.406 47.3049 272.695C69.5939 294.984 97.9918 310.163 128.908 316.313C159.823 322.462 191.868 319.306 220.99 307.243C250.112 295.181 275.003 274.753 292.516 248.544C310.028 222.335 319.375 191.521 319.375 160C319.291 117.757 302.473 77.2683 272.602 47.3979C242.732 17.5275 202.243 0.709234 160 0.625ZM160 306.625C131 306.625 102.652 298.026 78.5396 281.914C54.4272 265.803 35.6339 242.903 24.5362 216.111C13.4385 189.319 10.5349 159.837 16.1924 131.395C21.85 102.952 35.8147 76.8263 56.3205 56.3205C76.8264 35.8146 102.952 21.8499 131.395 16.1924C159.837 10.5348 189.319 13.4385 216.111 24.5362C242.903 35.6339 265.803 54.4272 281.914 78.5395C298.026 102.652 306.625 131 306.625 160C306.583 198.874 291.121 236.145 263.633 263.633C236.145 291.121 198.874 306.583 160 306.625ZM89.8751 128.125C89.8751 125.603 90.6228 123.138 92.0238 121.041C93.4248 118.945 95.4161 117.311 97.7459 116.346C100.076 115.381 102.639 115.128 105.112 115.62C107.586 116.112 109.858 117.326 111.641 119.109C113.424 120.893 114.638 123.164 115.13 125.638C115.622 128.111 115.37 130.674 114.405 133.004C113.44 135.334 111.805 137.325 109.709 138.726C107.612 140.127 105.147 140.875 102.625 140.875C99.2436 140.875 96.0005 139.532 93.6095 137.141C91.2184 134.75 89.8751 131.507 89.8751 128.125ZM204.625 128.125C204.625 125.603 205.373 123.138 206.774 121.041C208.175 118.945 210.166 117.311 212.496 116.346C214.826 115.381 217.389 115.128 219.862 115.62C222.336 116.112 224.608 117.326 226.391 119.109C228.174 120.893 229.388 123.164 229.88 125.638C230.372 128.111 230.12 130.674 229.155 133.004C228.19 135.334 226.555 137.325 224.459 138.726C222.362 140.127 219.897 140.875 217.375 140.875C213.994 140.875 210.751 139.532 208.359 137.141C205.968 134.75 204.625 131.507 204.625 128.125ZM231.719 233.312C232.151 234.034 232.436 234.833 232.557 235.665C232.679 236.497 232.634 237.345 232.427 238.16C232.22 238.974 231.853 239.74 231.349 240.412C230.844 241.085 230.212 241.651 229.488 242.078C228.499 242.581 227.409 242.854 226.3 242.875C225.174 242.869 224.07 242.573 223.092 242.014C222.115 241.456 221.298 240.654 220.722 239.688C214.566 229.031 205.714 220.182 195.056 214.03C184.397 207.878 172.307 204.639 160 204.639C147.693 204.639 135.603 207.878 124.945 214.03C114.286 220.182 105.434 229.031 99.2782 239.688C98.898 240.48 98.358 241.186 97.6921 241.76C97.0262 242.333 96.2487 242.763 95.4086 243.022C94.5686 243.282 93.684 243.364 92.8105 243.265C91.937 243.166 91.0935 242.887 90.3329 242.446C89.5724 242.005 88.9112 241.411 88.391 240.703C87.8708 239.994 87.5028 239.185 87.3102 238.328C87.1175 237.47 87.1043 236.582 87.2714 235.719C87.4386 234.856 87.7824 234.036 88.2813 233.312C95.5296 220.698 105.977 210.219 118.569 202.932C131.16 195.644 145.452 191.807 160 191.807C174.549 191.807 188.84 195.644 201.432 202.932C214.023 210.219 224.471 220.698 231.719 233.312Z" fill="#00BAC6"/>
</svg>
