<svg width="243" height="243" viewBox="0 0 243 243" fill="none" xmlns="http://www.w3.org/2000/svg">
<path d="M45.704 110.243C45.704 110.243 79.3516 108.896 86.6229 53.5864C93.08 4.46628 149.819 26.824 166.22 46.4044C187.466 71.7693 176.14 115.402 203.625 120.914C231.109 126.426 227.72 174.366 186 168.5C134.102 161.203 132.1 204.874 116.52 217.71C105.339 226.923 71.528 230.442 70 197C68.7142 168.859 44.8086 156.561 36.3949 153.371C24.2603 148.769 16.6142 115.44 45.704 110.243Z" fill="#DEEEEF"/>
<path d="M140.806 149.233L128.72 137.291L118.591 147.542L130.677 159.484L140.806 149.233Z" fill="#00BAC6"/>
<path d="M172.654 180.385L140.885 148.993C140.708 148.818 140.45 148.792 140.308 148.936L130.574 158.787C130.432 158.93 130.461 159.188 130.638 159.363L162.407 190.755C162.584 190.93 162.842 190.955 162.984 190.812L172.718 180.961C172.859 180.817 172.831 180.56 172.654 180.385Z" fill="#01959F"/>
<path d="M97.7299 155.431C120.473 155.431 138.909 136.994 138.909 114.251C138.909 91.5087 120.473 73.072 97.7299 73.072C74.9872 73.072 56.5505 91.5087 56.5505 114.251C56.5505 136.994 74.9872 155.431 97.7299 155.431Z" fill="#01959F"/>
<path d="M97.73 148.712C116.762 148.712 132.19 133.283 132.19 114.252C132.19 95.2197 116.762 79.7914 97.73 79.7914C78.6981 79.7914 63.2698 95.2197 63.2698 114.252C63.2698 133.283 78.6981 148.712 97.73 148.712Z" fill="#DEEEEF"/>
</svg>
