<svg width="464" height="464" viewBox="0 0 464 464" fill="none" xmlns="http://www.w3.org/2000/svg">
<path d="M362.393 231.999C362.416 251.665 357.984 271.082 349.431 288.792C340.877 306.501 328.424 322.043 313.006 334.253L275.422 246.499L361.233 214.309C362.016 220.109 362.393 225.996 362.393 231.999Z" fill="#00BAC6" fill-opacity="0.25"/>
<path d="M464 232C464 293.53 439.557 352.54 396.049 396.049C352.54 439.557 293.53 464 232 464C170.47 464 111.46 439.557 67.9512 396.049C24.4428 352.54 0 293.53 0 232C0 170.47 24.4428 111.46 67.9512 67.9512C111.46 24.4428 170.47 0 232 0C293.53 0 352.54 24.4428 396.049 67.9512C439.557 111.46 464 170.47 464 232ZM435 232C434.986 201.221 427.973 170.849 414.492 143.18C401.011 115.51 381.415 91.2689 357.186 72.2884C332.957 53.3079 304.728 40.0854 274.636 33.6209C244.544 27.1565 213.376 27.6193 183.489 34.9744C153.602 42.3295 125.779 56.3844 102.124 76.076C78.4692 95.7676 59.6015 120.58 46.9481 148.638C34.2947 176.695 28.187 207.262 29.0868 238.028C29.9866 268.793 37.8704 298.951 52.142 326.221L109.794 278.168C99.0203 249.757 98.4982 218.478 108.317 189.723C118.137 160.969 137.682 136.542 163.583 120.655C189.483 104.768 220.116 98.4173 250.198 102.697C280.28 106.978 307.925 121.62 328.367 144.101L217.413 188.5L246.413 261L285.07 351.19C268.83 358.469 250.85 362.5 231.913 362.5C216.141 362.516 200.498 359.666 185.745 354.09L137.663 411.8C168.606 428.04 203.216 436.016 238.146 434.958C273.075 433.901 307.139 423.844 337.042 405.761C366.946 387.679 391.674 362.183 408.835 331.742C425.997 301.301 435.009 266.945 435 232ZM194.445 236.031C195.29 234.772 195.718 233.28 195.671 231.765C195.623 230.249 195.102 228.787 194.18 227.583C193.258 226.38 191.982 225.496 190.531 225.055C189.081 224.614 187.529 224.639 186.093 225.127L142.593 239.627L147.204 253.373L170.636 245.543L153.381 271.469C152.542 272.726 152.116 274.214 152.164 275.724C152.211 277.235 152.73 278.693 153.647 279.894C154.564 281.096 155.834 281.981 157.278 282.425C158.723 282.869 160.27 282.851 161.704 282.373L185.136 274.543L167.881 300.469C167.042 301.726 166.616 303.214 166.664 304.724C166.711 306.235 167.23 307.693 168.147 308.894C169.064 310.096 170.334 310.981 171.778 311.425C173.223 311.869 174.77 311.851 176.204 311.373L219.704 296.873L215.093 283.127L191.661 290.957L208.945 265.031C209.79 263.772 210.218 262.28 210.171 260.765C210.123 259.249 209.602 257.787 208.68 256.583C207.758 255.38 206.482 254.496 205.031 254.055C203.581 253.614 202.029 253.639 200.593 254.127L177.161 261.957L194.445 236.031Z" fill="#00BAC6" fill-opacity="0.25"/>
</svg>
