<svg width="82" height="24" viewBox="0 0 82 24" fill="none" xmlns="http://www.w3.org/2000/svg">
<path d="M9.97302 0H82V23.3747H45.9865H9.97302L0 11.5075L9.97302 0Z" fill="white"/>
<path d="M0.657315 11.5125L10.2013 0.5H81.5V22.8747H45.9865H10.2059L0.657315 11.5125Z" stroke="#D8D8D8" stroke-opacity="0.45"/>
<path d="M21.9693 14C21.5962 14 21.2471 13.9219 20.9219 13.7657C20.5998 13.6094 20.3049 13.3926 20.0371 13.1152L20.5775 12.3548C20.7688 12.5333 20.9617 12.6752 21.1562 12.7804C21.3507 12.8857 21.542 12.959 21.7301 13.0004C21.9214 13.0419 22.1079 13.0546 22.2897 13.0387C22.4746 13.0196 22.6532 12.9765 22.8253 12.9096C22.9879 12.8458 23.1203 12.7772 23.2223 12.7039C23.3275 12.6274 23.4072 12.562 23.4614 12.5078L21.9501 8.87304L22.8206 8.50956C22.9226 8.75826 23.0453 9.05638 23.1888 9.40391C23.31 9.70362 23.4614 10.0735 23.6432 10.5135C23.8249 10.9503 24.0385 11.4604 24.284 12.0439C24.3478 12.197 24.4036 12.3372 24.4514 12.4648C24.5024 12.5891 24.5662 12.6959 24.6427 12.7852C24.7193 12.8713 24.8213 12.9399 24.9488 12.9909C25.0764 13.0387 25.2485 13.0626 25.4653 13.0626C25.5961 13.0626 25.7077 13.1072 25.8001 13.1965C25.8926 13.2858 25.9388 13.3974 25.9388 13.5313C25.9388 13.6652 25.8926 13.7768 25.8001 13.8661C25.7077 13.9554 25.5961 14 25.4653 14C25.2581 14 25.0732 13.9841 24.9106 13.9522C24.7511 13.9171 24.6093 13.8709 24.4849 13.8135C24.3637 13.7561 24.2569 13.6891 24.1645 13.6126C24.072 13.5329 23.9923 13.45 23.9253 13.3639C23.8297 13.4341 23.7197 13.5074 23.5953 13.5839C23.4742 13.6604 23.3339 13.7306 23.1745 13.7943C22.9959 13.8645 22.811 13.9171 22.6197 13.9522C22.4284 13.9841 22.2116 14 21.9693 14ZM24.9646 13.5313C24.9646 13.3974 25.0093 13.2858 25.0985 13.1965C25.1878 13.1041 25.2994 13.0578 25.4333 13.0578H25.7968C26.0646 13.0578 26.3213 13.0419 26.5668 13.01C26.8123 12.9781 27.0275 12.9191 27.2124 12.833C27.4006 12.747 27.5488 12.6306 27.6572 12.4839C27.7656 12.3341 27.8151 12.1428 27.8055 11.91C27.7991 11.7314 27.7832 11.5465 27.7577 11.3552C27.7353 11.1639 27.6891 10.9455 27.619 10.7L28.5133 10.4465C28.542 10.5581 28.5691 10.6761 28.5946 10.8004C28.6201 10.9216 28.6424 11.0459 28.6616 11.1735C28.6807 11.301 28.6967 11.4301 28.7094 11.5609C28.7253 11.6884 28.7365 11.8143 28.7429 11.9387C28.7493 12.0567 28.7636 12.181 28.7859 12.3117C28.8082 12.4425 28.8481 12.5636 28.9055 12.6752C28.9629 12.7868 29.041 12.8793 29.1398 12.9526C29.2419 13.0259 29.3742 13.0626 29.5368 13.0626C29.6707 13.0626 29.7839 13.1072 29.8764 13.1965C29.9688 13.2858 30.0151 13.3974 30.0151 13.5313C30.0151 13.5983 30.0023 13.6604 29.9768 13.7178C29.9513 13.772 29.9162 13.8214 29.8716 13.8661C29.8301 13.9075 29.7807 13.941 29.7233 13.9665C29.6691 13.9888 29.6101 14 29.5464 14C29.2243 14 28.9581 13.9426 28.7477 13.8278C28.5372 13.7099 28.3651 13.5632 28.2311 13.3878C28.1164 13.4994 27.9681 13.5951 27.7864 13.6748C27.6046 13.7513 27.4038 13.8135 27.1838 13.8613C26.9669 13.9091 26.739 13.9442 26.4998 13.9665C26.2607 13.9888 26.0264 14 25.7968 14H25.4333C25.2994 14 25.1878 13.9554 25.0985 13.8661C25.0093 13.7768 24.9646 13.6652 24.9646 13.5313ZM26.9542 15.8174L26.1794 16.5922L25.3951 15.8126L26.1698 15.033L26.9542 15.8174ZM28.9151 15.8222L28.1403 16.6017L27.3559 15.8174L28.1307 15.0426L28.9151 15.8222ZM29.0789 13.5313C29.0789 13.3974 29.1235 13.2858 29.2128 13.1965C29.3021 13.1041 29.4137 13.0578 29.5476 13.0578H29.9111C30.1789 13.0578 30.4355 13.0419 30.6811 13.01C30.9266 12.9781 31.1418 12.9191 31.3267 12.833C31.5148 12.747 31.6631 12.6306 31.7715 12.4839C31.8799 12.3341 31.9293 12.1428 31.9198 11.91C31.9134 11.7314 31.8974 11.5465 31.8719 11.3552C31.8496 11.1639 31.8034 10.9455 31.7332 10.7L32.6276 10.4465C32.6563 10.5581 32.6834 10.6761 32.7089 10.8004C32.7344 10.9216 32.7567 11.0459 32.7758 11.1735C32.795 11.301 32.8109 11.4301 32.8237 11.5609C32.8396 11.6884 32.8508 11.8143 32.8571 11.9387C32.8635 12.0567 32.8779 12.181 32.9002 12.3117C32.9225 12.4425 32.9624 12.5636 33.0198 12.6752C33.0771 12.7868 33.1553 12.8793 33.2541 12.9526C33.3561 13.0259 33.4884 13.0626 33.6511 13.0626C33.785 13.0626 33.8982 13.1072 33.9906 13.1965C34.0831 13.2858 34.1293 13.3974 34.1293 13.5313C34.1293 13.5983 34.1166 13.6604 34.0911 13.7178C34.0655 13.772 34.0305 13.8214 33.9858 13.8661C33.9444 13.9075 33.895 13.941 33.8376 13.9665C33.7834 13.9888 33.7244 14 33.6606 14C33.3386 14 33.0724 13.9426 32.8619 13.8278C32.6515 13.7099 32.4793 13.5632 32.3454 13.3878C32.2306 13.4994 32.0824 13.5951 31.9006 13.6748C31.7189 13.7513 31.518 13.8135 31.298 13.8613C31.0812 13.9091 30.8532 13.9442 30.6141 13.9665C30.375 13.9888 30.1406 14 29.9111 14H29.5476C29.4137 14 29.3021 13.9554 29.2128 13.8661C29.1235 13.7768 29.0789 13.6652 29.0789 13.5313ZM31.5037 8.79652L30.7289 9.5713L29.9445 8.79174L30.7193 8.01217L31.5037 8.79652ZM33.4645 8.8013L32.6898 9.58087L31.9054 8.79652L32.6802 8.02174L33.4645 8.8013ZM33.2218 13.5313C33.2218 13.4707 33.2361 13.4133 33.2648 13.3591C33.2903 13.3017 33.3254 13.2523 33.37 13.2109C33.4115 13.1662 33.4609 13.1312 33.5183 13.1057C33.5757 13.0801 33.6347 13.0658 33.6952 13.0626H33.7431C33.877 13.0626 34.0045 13.0275 34.1257 12.9574C34.2468 12.8841 34.36 12.7916 34.4652 12.68C34.5705 12.5684 34.6661 12.4441 34.7522 12.307C34.8415 12.1699 34.9212 12.0359 34.9913 11.9052C35.0583 11.7777 35.1173 11.6517 35.1683 11.5274C35.2225 11.3999 35.2703 11.2819 35.3118 11.1735C35.3532 11.0619 35.3867 10.963 35.4122 10.877C35.4409 10.7877 35.4632 10.7175 35.4792 10.6665C35.4951 10.5932 35.5031 10.5549 35.5031 10.5517L36.4213 10.8052C36.4181 10.8084 36.4134 10.8196 36.407 10.8387C36.4038 10.8578 36.3974 10.8849 36.3878 10.92C36.3687 10.9933 36.3448 11.1001 36.3161 11.2404C36.2874 11.3807 36.2603 11.537 36.2348 11.7091C36.1997 11.9865 36.1918 12.2304 36.2109 12.4409C36.23 12.6481 36.2731 12.8059 36.34 12.9143C36.3847 12.9972 36.4548 13.0435 36.5505 13.053C36.5887 13.0626 36.6238 13.0674 36.6557 13.0674C36.7768 13.0674 36.8932 13.0275 37.0048 12.9478C37.1483 12.8394 37.2886 12.6688 37.4257 12.4361C37.5628 12.2033 37.6855 11.918 37.7939 11.58C37.8481 11.4238 37.8928 11.2755 37.9278 11.1352C37.9629 10.9949 37.99 10.8754 38.0092 10.7765C38.0251 10.6968 38.0378 10.6346 38.0474 10.59C38.057 10.5422 38.0618 10.5151 38.0618 10.5087L38.9944 10.6857C38.988 10.6888 38.9816 10.7143 38.9752 10.7622C38.9689 10.8068 38.9577 10.8706 38.9418 10.9535C38.9258 11.0364 38.9115 11.1384 38.8987 11.2596C38.886 11.3775 38.878 11.5035 38.8748 11.6374C38.8589 11.9275 38.8716 12.1794 38.9131 12.393C38.9545 12.6067 39.0199 12.7677 39.1092 12.8761C39.1442 12.9207 39.1905 12.9606 39.2478 12.9957C39.3084 13.0307 39.3977 13.0483 39.5157 13.0483C39.6815 13.0483 39.8154 12.9909 39.9174 12.8761C40.0258 12.7581 40.1119 12.5843 40.1757 12.3548C40.2426 12.1252 40.2857 11.8542 40.3048 11.5417C40.3112 11.3983 40.3144 11.2659 40.3144 11.1448C40.3144 11.0204 40.3112 10.9136 40.3048 10.8243C40.2952 10.7446 40.2889 10.6809 40.2857 10.633C40.2857 10.582 40.2857 10.5549 40.2857 10.5517L41.2231 10.4752C41.2294 10.4912 41.2358 10.5804 41.2422 10.743C41.2518 10.81 41.2613 10.8865 41.2709 10.9726C41.2836 11.0587 41.2996 11.1528 41.3187 11.2548C41.3378 11.3536 41.3602 11.4588 41.3857 11.5704C41.4112 11.6788 41.4415 11.7872 41.4765 11.8957C41.7284 12.6736 42.0807 13.0626 42.5335 13.0626H42.5909H42.6292C42.7631 13.0626 42.8747 13.1072 42.9639 13.1965C43.0532 13.2858 43.0978 13.3974 43.0978 13.5313C43.0978 13.662 43.0532 13.7736 42.9639 13.8661C42.8747 13.9554 42.7631 14 42.6292 14H42.5909H42.5335C42.2752 14 42.0329 13.9474 41.8065 13.8422C41.5834 13.7338 41.3825 13.5759 41.2039 13.3687C41.1147 13.2699 41.027 13.1503 40.9409 13.01C40.8516 13.2077 40.7464 13.3719 40.6252 13.5026C40.4818 13.6652 40.316 13.7896 40.1278 13.8757C39.9397 13.9586 39.7357 14 39.5157 14C39.2797 14 39.0645 13.9554 38.87 13.8661C38.6755 13.7736 38.5097 13.6413 38.3726 13.4691C38.328 13.4117 38.2865 13.3512 38.2483 13.2874C38.21 13.2236 38.1749 13.1551 38.1431 13.0817C37.9645 13.3432 37.77 13.5536 37.5596 13.713C37.2758 13.9139 36.9745 14.0143 36.6557 14.0143C36.611 14.0143 36.568 14.0112 36.5265 14.0048C36.4851 14.0016 36.442 13.9968 36.3974 13.9904C36.0212 13.9203 35.7326 13.729 35.5318 13.4165C35.4999 13.3623 35.4712 13.3065 35.4457 13.2491C35.4202 13.1886 35.3947 13.1264 35.3692 13.0626C35.2639 13.1997 35.1571 13.3193 35.0487 13.4213C34.6534 13.8071 34.2181 14 33.7431 14H33.6952C33.6315 14 33.5709 13.9888 33.5135 13.9665C33.4561 13.941 33.4067 13.9075 33.3652 13.8661C33.3206 13.8214 33.2855 13.7704 33.26 13.713C33.2345 13.6557 33.2218 13.5951 33.2218 13.5313ZM42.0925 13.5265C42.0925 13.4628 42.1052 13.4038 42.1307 13.3496C42.1562 13.2922 42.1913 13.2428 42.2359 13.2013C42.2806 13.1567 42.3332 13.1232 42.3938 13.1009C42.4511 13.0754 42.5133 13.0626 42.5803 13.0626H42.6233C42.8146 13.0626 42.982 13.061 43.1255 13.0578C43.2722 13.0546 43.4045 13.0499 43.5225 13.0435C43.6404 13.0371 43.7472 13.0291 43.8429 13.0196C43.9417 13.01 44.0374 12.9988 44.1298 12.9861C43.8907 12.7278 43.7106 12.4743 43.5894 12.2257C43.4714 11.9738 43.4125 11.7314 43.4125 11.4987C43.4125 11.3393 43.4332 11.1719 43.4746 10.9965C43.5193 10.818 43.5862 10.6474 43.6755 10.4848C43.768 10.319 43.8827 10.1659 44.0198 10.0257C44.1569 9.88217 44.3211 9.7642 44.5125 9.67174L44.1346 9.52348L44.589 8.66261L46.2533 9.34652C46.5498 9.47725 46.8352 9.60797 47.1094 9.7387C47.3868 9.86942 47.6419 10.0001 47.8746 10.1309C48.1106 10.2616 48.3178 10.3939 48.4964 10.5278C48.6749 10.6617 48.8136 10.7957 48.9125 10.9296C49.2058 11.3345 49.3525 11.749 49.3525 12.173C49.3525 12.4855 49.2696 12.7788 49.1038 13.053C48.938 13.3241 48.6877 13.5488 48.3529 13.7274L48.3577 13.7226C48.2684 13.7768 48.1632 13.823 48.042 13.8613C47.9209 13.8964 47.7933 13.9251 47.6594 13.9474C47.5287 13.9697 47.3964 13.9872 47.2625 14C47.1285 14.0096 47.0058 14.0143 46.8942 14.0143C46.6136 14.0143 46.341 13.9936 46.0764 13.9522C45.8149 13.9107 45.5487 13.8358 45.2777 13.7274C45.1087 13.7784 44.9174 13.8214 44.7038 13.8565C44.4933 13.8916 44.2717 13.9203 44.039 13.9426C43.8062 13.9617 43.5687 13.9761 43.3264 13.9857C43.084 13.9952 42.8497 14 42.6233 14H42.5803C42.5133 14 42.4511 13.9888 42.3938 13.9665C42.3332 13.941 42.2806 13.9075 42.2359 13.8661C42.1913 13.8214 42.1562 13.7704 42.1307 13.713C42.1052 13.6557 42.0925 13.5935 42.0925 13.5265ZM47.162 11.2691C47.162 11.403 47.1429 11.5481 47.1046 11.7043C47.0664 11.8606 47.0122 12.0184 46.942 12.1778C46.8751 12.3341 46.7922 12.4887 46.6933 12.6417C46.5945 12.7948 46.4845 12.9351 46.3633 13.0626C46.4654 13.0786 46.5498 13.0881 46.6168 13.0913C46.6838 13.0945 46.7459 13.0961 46.8033 13.0961H47.0329C47.2752 13.0961 47.4856 13.0706 47.6642 13.0196C47.8459 12.9654 47.9942 12.8936 48.109 12.8043C48.2269 12.7151 48.3146 12.6114 48.372 12.4935C48.4294 12.3723 48.4581 12.2464 48.4581 12.1157C48.4581 12.0041 48.4294 11.8829 48.372 11.7522C48.3146 11.6214 48.2285 11.4907 48.1138 11.36C48.0022 11.2261 47.8619 11.0954 47.6929 10.9678C47.5239 10.8403 47.3262 10.7239 47.0998 10.6187C47.1349 10.7399 47.154 10.8546 47.1572 10.963C47.1604 11.0714 47.162 11.1735 47.162 11.2691ZM46.1816 11.2309C46.1816 11.1352 46.1736 11.0348 46.1577 10.9296C46.1449 10.8212 46.1146 10.7191 46.0668 10.6235C46.0222 10.5246 45.9568 10.4386 45.8707 10.3652C45.7878 10.2887 45.6778 10.2361 45.5407 10.2074C45.3654 10.1723 45.2043 10.1899 45.0577 10.26C44.911 10.327 44.7835 10.4226 44.6751 10.547C44.5698 10.6713 44.4869 10.8116 44.4264 10.9678C44.3658 11.1241 44.3355 11.2739 44.3355 11.4174C44.3355 11.5513 44.3594 11.6788 44.4072 11.8C44.4551 11.9212 44.5188 12.0359 44.5985 12.1443C44.6814 12.2496 44.7771 12.35 44.8855 12.4457C44.9939 12.5381 45.1087 12.6242 45.2298 12.7039C45.3925 12.6306 45.5327 12.5381 45.6507 12.4265C45.7719 12.3149 45.8707 12.1938 45.9472 12.063C46.0269 11.9291 46.0859 11.7904 46.1242 11.647C46.1625 11.5035 46.1816 11.3648 46.1816 11.2309ZM55.9715 14C55.6207 14 55.3194 13.9586 55.0675 13.8757C54.8188 13.7928 54.6084 13.6652 54.4362 13.493C54.331 13.3878 54.2497 13.2746 54.1923 13.1535C54.1381 13.0323 54.0967 12.9128 54.068 12.7948C54.0425 12.6768 54.0281 12.5652 54.0249 12.46C54.0217 12.3516 54.0201 12.2591 54.0201 12.1826V12.0917C54.0201 12.0886 54.0217 12.0312 54.0249 11.9196C54.0281 11.8048 54.0297 11.6517 54.0297 11.4604C54.0329 11.2659 54.0345 11.0428 54.0345 10.7909C54.0345 10.539 54.0329 10.2728 54.0297 9.99217C54.0297 9.71797 54.0265 9.43261 54.0201 9.13609C54.0138 8.83957 54.0042 8.55261 53.9915 8.27522C53.9787 7.99783 53.9612 7.74275 53.9388 7.51C53.9165 7.27406 53.891 7.08116 53.8623 6.9313L54.7997 6.75913C54.8284 6.92174 54.8539 7.12101 54.8762 7.35696C54.8986 7.5929 54.9161 7.84957 54.9288 8.12696C54.9448 8.40435 54.9559 8.69449 54.9623 8.99739C54.9687 9.2971 54.9719 9.59043 54.9719 9.87739C54.9751 10.158 54.9767 10.4274 54.9767 10.6857C54.9767 10.9439 54.9767 11.1735 54.9767 11.3743C54.9767 11.5752 54.9751 11.741 54.9719 11.8717C54.9719 12.0025 54.9719 12.0806 54.9719 12.1061V12.1922C54.9687 12.3325 54.9735 12.4568 54.9862 12.5652C54.999 12.6704 55.042 12.7581 55.1154 12.8283C55.2588 12.9781 55.5299 13.0546 55.9284 13.0578H55.9715C56.0352 13.0578 56.0958 13.0706 56.1532 13.0961C56.2106 13.1216 56.26 13.1567 56.3015 13.2013C56.3461 13.2428 56.3812 13.2922 56.4067 13.3496C56.4322 13.407 56.4449 13.4675 56.4449 13.5313C56.4449 13.6652 56.3987 13.7768 56.3062 13.8661C56.2138 13.9554 56.1022 14 55.9715 14ZM55.4904 13.5361C55.4904 13.4723 55.5031 13.4117 55.5286 13.3543C55.551 13.297 55.5844 13.2475 55.6291 13.2061C55.6705 13.1614 55.72 13.1264 55.7773 13.1009C55.8347 13.0754 55.8969 13.0626 55.9639 13.0626H56.8391C57.2663 13.0626 57.676 13.0228 58.0682 12.943C58.4636 12.8601 58.8462 12.7533 59.216 12.6226C59.5859 12.4919 59.9462 12.3436 60.2969 12.1778C60.6476 12.0088 60.9952 11.8399 61.3395 11.6709L61.4256 11.6278C61.2088 11.5513 60.9984 11.4668 60.7943 11.3743C60.5934 11.2819 60.3958 11.191 60.2013 11.1017C60.0546 11.0316 59.9095 10.9646 59.766 10.9009C59.6258 10.8371 59.4886 10.7813 59.3547 10.7335C59.224 10.6825 59.0981 10.6426 58.9769 10.6139C58.8589 10.582 58.7489 10.5661 58.6469 10.5661C58.513 10.5661 58.3871 10.5948 58.2691 10.6522C58.1511 10.7096 58.0427 10.7813 57.9439 10.8674C57.845 10.9535 57.7558 11.0475 57.676 11.1496C57.5963 11.2484 57.5294 11.3425 57.4752 11.4317C57.421 11.5178 57.3779 11.5912 57.346 11.6517C57.3173 11.7091 57.303 11.7378 57.303 11.7378L56.4373 11.3457C56.4373 11.3425 56.4485 11.317 56.4708 11.2691C56.4963 11.2213 56.5314 11.1575 56.576 11.0778C56.6239 10.9981 56.6797 10.9088 56.7434 10.81C56.8104 10.7112 56.8869 10.6107 56.973 10.5087C57.2217 10.2186 57.4863 9.99696 57.7669 9.84391C58.0507 9.69087 58.344 9.61435 58.6469 9.61435C58.8 9.61435 58.9562 9.63188 59.1156 9.66696C59.275 9.70203 59.436 9.74986 59.5986 9.81043C59.7613 9.86783 59.9255 9.93478 60.0913 10.0113C60.2602 10.0846 60.4308 10.1612 60.603 10.2409C60.7911 10.3333 60.9808 10.4226 61.1721 10.5087C61.3666 10.5948 61.5611 10.6729 61.7556 10.743C61.9501 10.8132 62.1446 10.869 62.3391 10.9104C62.5368 10.9519 62.7329 10.9726 62.9273 10.9726L63.1139 11.8765C62.9704 11.9371 62.8253 12.0025 62.6786 12.0726C62.5352 12.1396 62.3901 12.2081 62.2434 12.2783C62.2785 12.3994 62.3343 12.503 62.4108 12.5891C62.4905 12.672 62.5814 12.7438 62.6834 12.8043C62.7855 12.8617 62.8923 12.908 63.0039 12.943C63.1186 12.9749 63.2302 13.0004 63.3386 13.0196C63.4471 13.0387 63.5475 13.0514 63.64 13.0578C63.7356 13.061 63.8121 13.0626 63.8695 13.0626H63.8982H63.9365C64.0034 13.0626 64.0656 13.0754 64.123 13.1009C64.1804 13.1264 64.2298 13.1614 64.2713 13.2061C64.3159 13.2475 64.3494 13.297 64.3717 13.3543C64.3972 13.4117 64.41 13.4723 64.41 13.5361C64.41 13.67 64.3637 13.7816 64.2713 13.8709C64.182 13.957 64.0704 14 63.9365 14H63.8695C63.5539 14 63.2621 13.9713 62.9943 13.9139C62.7265 13.8533 62.4873 13.7672 62.2769 13.6557C62.0665 13.5441 61.8847 13.4086 61.7317 13.2491C61.5818 13.0865 61.4671 12.9032 61.3873 12.6991C61.0621 12.8617 60.7242 13.0212 60.3734 13.1774C60.0227 13.3336 59.6592 13.4739 59.283 13.5983C58.9068 13.7194 58.5146 13.8183 58.1065 13.8948C57.7015 13.9681 57.2791 14.0048 56.8391 14.0048L55.9639 14C55.83 14 55.7184 13.957 55.6291 13.8709C55.5366 13.7816 55.4904 13.67 55.4904 13.5361ZM60.5169 15.7361L59.7373 16.5157L58.953 15.7313L59.7326 14.9517L60.5169 15.7361ZM63.4635 13.5313C63.4635 13.4006 63.5082 13.2906 63.5974 13.2013C63.6867 13.1088 63.7983 13.0626 63.9322 13.0626H64.0135C64.5492 13.0626 64.9382 12.967 65.1805 12.7757C65.4228 12.5812 65.544 12.2942 65.544 11.9148C65.544 11.8255 65.5408 11.7362 65.5344 11.647C65.528 11.5545 65.5169 11.4604 65.5009 11.3648C65.4882 11.2659 65.469 11.1639 65.4435 11.0587C65.4212 10.9503 65.3925 10.8355 65.3574 10.7143L66.2566 10.4609C66.2884 10.5725 66.3155 10.6809 66.3379 10.7861C66.3602 10.8881 66.3793 10.9965 66.3953 11.1113C66.4144 11.2261 66.4303 11.3504 66.4431 11.4843C66.4558 11.6183 66.4686 11.7697 66.4813 11.9387C66.4909 12.0567 66.5069 12.181 66.5292 12.3117C66.5515 12.4425 66.5913 12.5636 66.6487 12.6752C66.7061 12.7868 66.7842 12.8793 66.8831 12.9526C66.9851 13.0259 67.1174 13.0626 67.28 13.0626C67.3438 13.0626 67.4044 13.0754 67.4618 13.1009C67.5192 13.1232 67.5686 13.1567 67.61 13.2013C67.6547 13.2428 67.6898 13.2922 67.7153 13.3496C67.7408 13.407 67.7535 13.4675 67.7535 13.5313C67.7535 13.5983 67.7408 13.6604 67.7153 13.7178C67.6898 13.772 67.6547 13.8214 67.61 13.8661C67.5686 13.9075 67.5192 13.941 67.4618 13.9665C67.4076 13.9888 67.3486 14 67.2848 14C67.1254 14 66.9787 13.9857 66.8448 13.957C66.7141 13.9283 66.5945 13.8884 66.4861 13.8374C66.3809 13.7832 66.2853 13.7194 66.1992 13.6461C66.1163 13.5728 66.0413 13.493 65.9744 13.407C65.7735 13.6046 65.5121 13.7529 65.19 13.8517C64.8712 13.9506 64.479 14 64.0135 14H63.9322C63.7983 14 63.6867 13.9554 63.5974 13.8661C63.5082 13.7768 63.4635 13.6652 63.4635 13.5313ZM66.5292 8.50478L65.7496 9.28435L64.9653 8.5L65.7448 7.72043L66.5292 8.50478ZM68.8787 15.65L68.104 16.4248L67.3196 15.6452L68.0944 14.8657L68.8787 15.65ZM70.8396 15.6548L70.0648 16.4343L69.2805 15.65L70.0553 14.8752L70.8396 15.6548ZM66.5735 13.5313C66.5735 13.3974 66.6198 13.2858 66.7122 13.1965C66.8015 13.1072 66.9115 13.0626 67.0422 13.0626H67.5731C67.6847 13.0658 67.8058 13.0674 67.9366 13.0674C68.0673 13.0642 68.1996 13.0562 68.3335 13.0435C68.4674 13.0307 68.5982 13.0132 68.7257 12.9909C68.8564 12.9654 68.976 12.9319 69.0844 12.8904C69.1928 12.8458 69.2885 12.7916 69.3714 12.7278C69.4542 12.6641 69.5164 12.5875 69.5579 12.4983C69.6216 12.3612 69.6392 12.1667 69.6105 11.9148C69.585 11.6597 69.5212 11.3632 69.4192 11.0252C69.3841 10.9232 69.3427 10.8132 69.2948 10.6952C69.2502 10.5741 69.2056 10.4625 69.1609 10.3604C69.1099 10.2393 69.0573 10.1197 69.0031 10.0017L69.8544 9.58087C69.8544 9.58406 69.8687 9.61754 69.8974 9.6813C69.9293 9.74188 69.9676 9.82478 70.0122 9.93C70.0569 10.0352 70.1063 10.158 70.1605 10.2983C70.2147 10.4354 70.2657 10.582 70.3135 10.7383C70.61 11.6533 70.6467 12.3675 70.4235 12.8809C70.1971 13.3942 69.7954 13.7322 69.2183 13.8948C69.1322 13.9203 69.0222 13.941 68.8883 13.957C68.7544 13.9697 68.6173 13.9793 68.477 13.9857C68.3367 13.992 68.2028 13.9968 68.0753 14C67.9477 14 67.8489 14 67.7787 14H67.0853H67.0422C66.9115 14 66.8015 13.9554 66.7122 13.8661C66.6198 13.7768 66.5735 13.6652 66.5735 13.5313ZM73.1926 6.44826C73.3329 7.74594 73.4142 8.90652 73.4365 9.93C73.4716 11.6199 73.4461 12.9909 73.36 14.043L72.4178 13.9904C72.5199 12.5716 72.5517 11.3807 72.5135 10.4178C72.4497 8.87145 72.3636 7.59609 72.2552 6.59174L73.1926 6.44826Z" fill="#2B2B2B"/>
</svg>
